<svg width="874" height="760" viewBox="0 0 874 760" fill="none" xmlns="http://www.w3.org/2000/svg">
<rect width="874" height="760" fill="white"/>
<path d="M306.5 243.5V88.5H567.5V243.5H306.5Z" fill="#ECFDFF" stroke="black" stroke-width="7"/>
<path d="M380.304 146.436H384.66V151.26H380.304V146.436ZM380.232 166.092H384.552V180.204H380.232V166.092ZM367.056 148.848H398.016V154.356H393.876V152.376H371.052V154.356H367.056V148.848ZM366.804 155.04H398.268V158.424H366.804V155.04ZM366.156 168.54H398.952V172.104H366.156V168.54ZM378.576 152.196L382.608 153.348C381.84 154.428 381.012 155.556 380.124 156.732C379.236 157.884 378.372 159 377.532 160.08C376.692 161.136 375.912 162.072 375.192 162.888L371.124 161.772C371.868 160.932 372.672 159.972 373.536 158.892C374.424 157.788 375.312 156.66 376.2 155.508C377.088 154.332 377.88 153.228 378.576 152.196ZM374.004 161.988L376.38 159.396C377.964 159.684 379.68 160.044 381.528 160.476C383.376 160.884 385.224 161.328 387.072 161.808C388.944 162.288 390.708 162.78 392.364 163.284C394.044 163.788 395.508 164.28 396.756 164.76L394.2 167.784C393.072 167.304 391.704 166.8 390.096 166.272C388.488 165.744 386.76 165.216 384.912 164.688C383.064 164.16 381.204 163.668 379.332 163.212C377.46 162.732 375.684 162.324 374.004 161.988ZM379.152 170.592L382.356 172.032C381.252 173.232 379.92 174.348 378.36 175.38C376.824 176.388 375.156 177.276 373.356 178.044C371.58 178.812 369.768 179.424 367.92 179.88C367.752 179.52 367.512 179.124 367.2 178.692C366.888 178.26 366.564 177.828 366.228 177.396C365.892 176.988 365.568 176.652 365.256 176.388C367.056 176.076 368.844 175.632 370.62 175.056C372.396 174.48 374.016 173.82 375.48 173.076C376.968 172.308 378.192 171.48 379.152 170.592ZM385.632 170.52C386.64 171.384 387.9 172.2 389.412 172.968C390.948 173.712 392.616 174.36 394.416 174.912C396.24 175.464 398.076 175.884 399.924 176.172C399.612 176.484 399.276 176.856 398.916 177.288C398.556 177.72 398.22 178.152 397.908 178.584C397.62 179.04 397.368 179.46 397.152 179.844C395.328 179.388 393.504 178.776 391.68 178.008C389.88 177.24 388.188 176.34 386.604 175.308C385.02 174.252 383.652 173.112 382.5 171.888L385.632 170.52ZM387.972 157.056H392.472C392.016 158.376 391.428 159.552 390.708 160.584C389.988 161.616 389.052 162.528 387.9 163.32C386.772 164.112 385.356 164.796 383.652 165.372C381.972 165.924 379.944 166.392 377.568 166.776C375.192 167.16 372.384 167.46 369.144 167.676C369.072 167.196 368.88 166.632 368.568 165.984C368.28 165.336 368.004 164.784 367.74 164.328C370.716 164.184 373.272 163.98 375.408 163.716C377.544 163.428 379.332 163.092 380.772 162.708C382.236 162.3 383.424 161.832 384.336 161.304C385.272 160.752 386.016 160.128 386.568 159.432C387.144 158.736 387.612 157.944 387.972 157.056ZM421.632 146.868H426.024V180.204H421.632V146.868ZM415.512 148.416L419.688 149.244C419.352 150.876 418.944 152.496 418.464 154.104C417.984 155.712 417.444 157.224 416.844 158.64C416.268 160.032 415.656 161.256 415.008 162.312C414.744 162.096 414.372 161.856 413.892 161.592C413.436 161.328 412.968 161.076 412.488 160.836C412.032 160.572 411.624 160.38 411.264 160.26C411.912 159.3 412.512 158.184 413.064 156.912C413.616 155.616 414.096 154.248 414.504 152.808C414.912 151.344 415.248 149.88 415.512 148.416ZM416.916 153.384H433.584V157.632H415.836L416.916 153.384ZM411.876 163.86H435.276V168.072H411.876V163.86ZM409.212 146.544L413.316 147.84C412.548 149.856 411.648 151.896 410.616 153.96C409.584 156 408.456 157.932 407.232 159.756C406.032 161.58 404.784 163.188 403.488 164.58C403.344 164.22 403.14 163.764 402.876 163.212C402.612 162.636 402.324 162.06 402.012 161.484C401.7 160.908 401.412 160.44 401.148 160.08C402.228 158.976 403.26 157.704 404.244 156.264C405.252 154.824 406.176 153.276 407.016 151.62C407.88 149.964 408.612 148.272 409.212 146.544ZM405.648 156.516L409.752 152.412V152.448V180.168H405.648V156.516ZM453.168 167.172H465.624V170.196H453.168V167.172ZM448.704 148.884H470.196V151.944H448.704V148.884ZM449.676 153.42H469.224V156.3H449.676V153.42ZM447.588 157.812H471.348V160.908H447.588V157.812ZM453.204 171.816H465.66V174.84H453.204V171.816ZM450 162.312H465.408V165.48H453.996V180.24H450V162.312ZM464.796 162.312H468.9V176.1C468.9 177.036 468.78 177.78 468.54 178.332C468.324 178.884 467.88 179.304 467.208 179.592C466.584 179.88 465.816 180.06 464.904 180.132C463.992 180.204 462.9 180.228 461.628 180.204C461.556 179.676 461.4 179.052 461.16 178.332C460.944 177.636 460.716 177.036 460.476 176.532C461.22 176.58 461.952 176.604 462.672 176.604C463.416 176.604 463.908 176.604 464.148 176.604C464.58 176.604 464.796 176.412 464.796 176.028V162.312ZM457.2 146.4H461.484V158.856H457.2V146.4ZM441.684 146.4H445.608V180.204H441.684V146.4ZM438.588 153.528L441.612 153.924C441.612 154.908 441.54 156.012 441.396 157.236C441.276 158.46 441.12 159.672 440.928 160.872C440.736 162.072 440.508 163.14 440.244 164.076L437.112 162.996C437.376 162.156 437.604 161.196 437.796 160.116C437.988 159.012 438.156 157.884 438.3 156.732C438.444 155.58 438.54 154.512 438.588 153.528ZM444.996 152.448L447.66 151.332C448.068 152.148 448.476 153.048 448.884 154.032C449.292 154.992 449.592 155.808 449.784 156.48L446.94 157.848C446.772 157.152 446.496 156.288 446.112 155.256C445.728 154.224 445.356 153.288 444.996 152.448ZM492.876 160.332H503.856V163.752H492.876V160.332ZM490.716 147.948H503.964V151.728H494.64V180.204H490.716V147.948ZM501.804 147.948H505.8V154.752C505.8 155.664 505.68 156.408 505.44 156.984C505.2 157.536 504.72 157.956 504 158.244C503.304 158.532 502.464 158.712 501.48 158.784C500.496 158.832 499.344 158.856 498.024 158.856C497.928 158.28 497.76 157.644 497.52 156.948C497.304 156.252 497.064 155.652 496.8 155.148C497.4 155.172 497.988 155.196 498.564 155.22C499.164 155.22 499.692 155.22 500.148 155.22C500.604 155.196 500.916 155.184 501.084 155.184C501.348 155.16 501.528 155.124 501.624 155.076C501.744 155.004 501.804 154.872 501.804 154.68V147.948ZM497.412 162.888C498.012 164.88 498.804 166.776 499.788 168.576C500.772 170.376 501.948 171.996 503.316 173.436C504.684 174.852 506.208 175.992 507.888 176.856C507.432 177.24 506.928 177.768 506.376 178.44C505.824 179.112 505.392 179.724 505.08 180.276C503.304 179.196 501.72 177.828 500.328 176.172C498.936 174.492 497.724 172.596 496.692 170.484C495.684 168.348 494.832 166.08 494.136 163.68L497.412 162.888ZM502.632 160.332H503.352L504.072 160.188L506.664 161.124C506.232 163.836 505.572 166.404 504.684 168.828C503.796 171.252 502.68 173.436 501.336 175.38C500.016 177.3 498.444 178.944 496.62 180.312C496.308 179.808 495.876 179.28 495.324 178.728C494.772 178.176 494.256 177.72 493.776 177.36C495.432 176.208 496.86 174.792 498.06 173.112C499.284 171.408 500.268 169.536 501.012 167.496C501.78 165.456 502.32 163.344 502.632 161.16V160.332ZM474.876 149.604H488.736V153.204H474.876V149.604ZM474.66 169.908H489.132V173.544H474.66V169.908ZM473.58 155.652H490.068V159.288H473.58V155.652ZM474.336 163.5H489.528V167.136H474.336V163.5ZM480.024 146.508H484.02V157.02H480.024V146.508ZM480.024 165.012H484.02V180.132H480.024V165.012ZM484.884 158.748L488.484 159.648C488.124 160.464 487.788 161.256 487.476 162.024C487.164 162.792 486.864 163.452 486.576 164.004L483.48 163.176C483.648 162.744 483.816 162.276 483.984 161.772C484.176 161.244 484.356 160.716 484.524 160.188C484.692 159.66 484.812 159.18 484.884 158.748ZM475.884 159.648L479.088 158.82C479.424 159.492 479.724 160.248 479.988 161.088C480.276 161.904 480.456 162.6 480.528 163.176L477.18 164.112C477.108 163.512 476.94 162.804 476.676 161.988C476.436 161.148 476.172 160.368 475.884 159.648Z" fill="black"/>
<path d="M3.5 579.5V424.5H266.5V579.5H3.5Z" fill="#ECFDFF" stroke="black" stroke-width="7"/>
<path d="M69.544 490.888L73.648 491.932C71.968 496.492 69.664 500.38 66.736 503.596C63.808 506.812 60.34 509.38 56.332 511.3C56.188 511.012 55.948 510.652 55.612 510.22C55.276 509.764 54.928 509.32 54.568 508.888C54.208 508.456 53.884 508.096 53.596 507.808C57.46 506.224 60.736 504.004 63.424 501.148C66.112 498.292 68.152 494.872 69.544 490.888ZM55.108 501.004L57.448 498.088C58.792 498.64 60.208 499.276 61.696 499.996C63.184 500.692 64.648 501.436 66.088 502.228C67.552 502.996 68.908 503.776 70.156 504.568C71.428 505.36 72.496 506.116 73.36 506.836L70.732 510.22C69.916 509.5 68.896 508.732 67.672 507.916C66.472 507.076 65.164 506.236 63.748 505.396C62.332 504.556 60.88 503.764 59.392 503.02C57.904 502.252 56.476 501.58 55.108 501.004ZM54.064 492.256L57.304 490.888C57.928 491.824 58.528 492.856 59.104 493.984C59.68 495.112 60.088 496.096 60.328 496.936L56.872 498.448C56.68 497.608 56.308 496.612 55.756 495.46C55.228 494.284 54.664 493.216 54.064 492.256ZM60.616 491.104L64.036 489.952C64.564 490.936 65.068 492.028 65.548 493.228C66.028 494.404 66.352 495.424 66.52 496.288L62.92 497.584C62.824 497.032 62.656 496.384 62.416 495.64C62.2 494.896 61.936 494.128 61.624 493.336C61.312 492.544 60.976 491.8 60.616 491.104ZM48.7 484.948H79.444V517.132H74.908V489.088H52.984V517.132H48.7V484.948ZM51.184 511.516H76.672V515.656H51.184V511.516ZM94.96 499.276H104.248V502.66H94.96V499.276ZM94.96 505.36H104.284V508.744H94.96V505.36ZM88.012 511.408H112.312V515.404H88.012V511.408ZM85.276 492.796H114.688V517.24H110.296V496.756H89.452V517.24H85.276V492.796ZM93.124 495.424H96.976V513.208H93.124V495.424ZM102.52 495.424H106.408V513.172H102.52V495.424ZM97.228 487.36L102.304 488.44C101.872 489.76 101.452 491.08 101.044 492.4C100.66 493.696 100.288 494.812 99.928 495.748L96.004 494.704C96.172 494.008 96.34 493.24 96.508 492.4C96.676 491.536 96.82 490.672 96.94 489.808C97.084 488.92 97.18 488.104 97.228 487.36ZM83.8 485.488H116.344V489.556H83.8V485.488ZM124.768 486.82C125.344 486.916 125.98 486.988 126.676 487.036C127.372 487.084 128.02 487.108 128.62 487.108C129.076 487.108 129.7 487.108 130.492 487.108C131.284 487.108 132.16 487.108 133.12 487.108C134.08 487.108 135.028 487.108 135.964 487.108C136.924 487.108 137.8 487.108 138.592 487.108C139.384 487.108 139.984 487.108 140.392 487.108C141.016 487.108 141.664 487.084 142.336 487.036C143.008 486.988 143.656 486.916 144.28 486.82V491.464C143.656 491.416 143.008 491.392 142.336 491.392C141.664 491.368 141.016 491.356 140.392 491.356C139.984 491.356 139.384 491.356 138.592 491.356C137.8 491.356 136.924 491.356 135.964 491.356C135.028 491.356 134.08 491.356 133.12 491.356C132.184 491.356 131.308 491.356 130.492 491.356C129.7 491.356 129.076 491.356 128.62 491.356C127.996 491.356 127.336 491.368 126.64 491.392C125.944 491.392 125.32 491.416 124.768 491.464V486.82ZM120.592 496.036C121.12 496.108 121.684 496.168 122.284 496.216C122.908 496.24 123.496 496.252 124.048 496.252C124.36 496.252 124.984 496.252 125.92 496.252C126.856 496.252 127.984 496.252 129.304 496.252C130.648 496.252 132.076 496.252 133.588 496.252C135.1 496.252 136.612 496.252 138.124 496.252C139.66 496.252 141.088 496.252 142.408 496.252C143.728 496.252 144.844 496.252 145.756 496.252C146.692 496.252 147.316 496.252 147.628 496.252C148.012 496.252 148.528 496.24 149.176 496.216C149.848 496.168 150.424 496.108 150.904 496.036V500.716C150.472 500.668 149.944 500.644 149.32 500.644C148.696 500.62 148.132 500.608 147.628 500.608C147.316 500.608 146.692 500.608 145.756 500.608C144.844 500.608 143.728 500.608 142.408 500.608C141.088 500.608 139.66 500.608 138.124 500.608C136.612 500.608 135.1 500.608 133.588 500.608C132.076 500.608 130.648 500.608 129.304 500.608C127.984 500.608 126.856 500.608 125.92 500.608C124.984 500.608 124.36 500.608 124.048 500.608C123.52 500.608 122.932 500.62 122.284 500.644C121.66 500.668 121.096 500.704 120.592 500.752V496.036ZM139.024 498.556C139.024 500.884 138.82 502.984 138.412 504.856C138.004 506.704 137.416 508.372 136.648 509.86C136.24 510.676 135.664 511.516 134.92 512.38C134.2 513.244 133.372 514.06 132.436 514.828C131.5 515.596 130.492 516.244 129.412 516.772L125.2 513.712C126.472 513.232 127.696 512.524 128.872 511.588C130.048 510.628 130.996 509.62 131.716 508.564C132.628 507.196 133.24 505.672 133.552 503.992C133.864 502.312 134.02 500.5 134.02 498.556H139.024ZM146.44 484.336C146.752 484.768 147.076 485.284 147.412 485.884C147.772 486.484 148.108 487.084 148.42 487.684C148.756 488.284 149.044 488.812 149.284 489.268L146.404 490.528C146.02 489.784 145.564 488.944 145.036 488.008C144.532 487.048 144.04 486.22 143.56 485.524L146.44 484.336ZM150.688 482.716C151 483.172 151.336 483.712 151.696 484.336C152.056 484.936 152.404 485.536 152.74 486.136C153.1 486.712 153.388 487.204 153.604 487.612L150.724 488.872C150.364 488.104 149.908 487.252 149.356 486.316C148.828 485.38 148.324 484.576 147.844 483.904L150.688 482.716ZM157.312 497.332C157.744 497.356 158.296 497.392 158.968 497.44C159.64 497.464 160.336 497.488 161.056 497.512C161.8 497.536 162.484 497.548 163.108 497.548C163.708 497.548 164.452 497.548 165.34 497.548C166.228 497.548 167.188 497.548 168.22 497.548C169.276 497.548 170.356 497.548 171.46 497.548C172.588 497.548 173.704 497.548 174.808 497.548C175.912 497.548 176.956 497.548 177.94 497.548C178.924 497.548 179.8 497.548 180.568 497.548C181.36 497.548 181.984 497.548 182.44 497.548C183.28 497.548 184.072 497.524 184.816 497.476C185.56 497.404 186.172 497.356 186.652 497.332V502.984C186.244 502.96 185.632 502.924 184.816 502.876C184 502.828 183.208 502.804 182.44 502.804C181.984 502.804 181.36 502.804 180.568 502.804C179.776 502.804 178.888 502.804 177.904 502.804C176.92 502.804 175.876 502.804 174.772 502.804C173.692 502.804 172.588 502.804 171.46 502.804C170.332 502.804 169.24 502.804 168.184 502.804C167.152 502.804 166.192 502.804 165.304 502.804C164.44 502.804 163.708 502.804 163.108 502.804C162.076 502.804 161.02 502.828 159.94 502.876C158.86 502.9 157.984 502.936 157.312 502.984V497.332ZM205.444 497.152C206.548 497.776 207.748 498.52 209.044 499.384C210.364 500.224 211.696 501.1 213.04 502.012C214.384 502.924 215.644 503.812 216.82 504.676C218.02 505.54 219.028 506.308 219.844 506.98L216.424 511.048C215.632 510.328 214.648 509.5 213.472 508.564C212.32 507.604 211.072 506.632 209.728 505.648C208.384 504.64 207.052 503.68 205.732 502.768C204.436 501.856 203.272 501.076 202.24 500.428L205.444 497.152ZM222.364 491.032C222.148 491.368 221.932 491.764 221.716 492.22C221.5 492.676 221.32 493.132 221.176 493.588C220.816 494.692 220.324 495.928 219.7 497.296C219.1 498.64 218.38 500.02 217.54 501.436C216.7 502.828 215.74 504.196 214.66 505.54C212.956 507.652 210.904 509.656 208.504 511.552C206.128 513.448 203.212 515.056 199.756 516.376L195.58 512.74C198.1 511.972 200.284 511.06 202.132 510.004C203.98 508.948 205.576 507.82 206.92 506.62C208.288 505.42 209.476 504.22 210.484 503.02C211.3 502.084 212.068 501.04 212.788 499.888C213.532 498.712 214.168 497.548 214.696 496.396C215.248 495.22 215.632 494.176 215.848 493.264H203.68L205.336 489.16H215.56C216.136 489.16 216.7 489.124 217.252 489.052C217.828 488.98 218.308 488.884 218.692 488.764L222.364 491.032ZM210.484 485.488C210.052 486.112 209.62 486.784 209.188 487.504C208.78 488.224 208.468 488.776 208.252 489.16C207.436 490.6 206.404 492.136 205.156 493.768C203.908 495.376 202.504 496.948 200.944 498.484C199.408 500.02 197.776 501.388 196.048 502.588L192.16 499.6C194.272 498.28 196.06 496.9 197.524 495.46C199.012 493.996 200.248 492.592 201.232 491.248C202.216 489.88 203.008 488.668 203.608 487.612C203.896 487.18 204.196 486.604 204.508 485.884C204.844 485.14 205.096 484.468 205.264 483.868L210.484 485.488Z" fill="black"/>
<path d="M306.5 579.5V424.5H567.5V579.5H306.5Z" fill="#ECFDFF" stroke="black" stroke-width="7"/>
<path d="M343.1 487.144H372.008V491.68H343.1V487.144ZM341.12 510.364H374.024V514.72H341.12V510.364ZM354.908 489.628H359.84V512.128H354.908V489.628ZM376.544 502.192H394.76V505.684H376.544V502.192ZM376.976 489.484H394.652V492.904H376.976V489.484ZM383.06 499.636L387.056 500.464C386.456 501.712 385.808 502.996 385.112 504.316C384.44 505.636 383.768 506.92 383.096 508.168C382.424 509.392 381.8 510.484 381.224 511.444L377.444 510.292C378.02 509.38 378.632 508.312 379.28 507.088C379.952 505.864 380.612 504.604 381.26 503.308C381.932 501.988 382.532 500.764 383.06 499.636ZM388.136 504.604L392.132 504.964C391.796 506.86 391.292 508.492 390.62 509.86C389.972 511.204 389.096 512.356 387.992 513.316C386.912 514.252 385.592 515.032 384.032 515.656C382.472 516.304 380.612 516.844 378.452 517.276C378.332 516.676 378.104 516.04 377.768 515.368C377.432 514.696 377.084 514.144 376.724 513.712C379.1 513.4 381.056 512.908 382.592 512.236C384.152 511.564 385.376 510.616 386.264 509.392C387.152 508.168 387.776 506.572 388.136 504.604ZM390.692 483.832L394.328 485.308C393.752 486.1 393.176 486.892 392.6 487.684C392.048 488.452 391.544 489.112 391.088 489.664L388.316 488.44C388.724 487.816 389.156 487.072 389.612 486.208C390.068 485.32 390.428 484.528 390.692 483.832ZM383.852 483.364H387.812V500.14H383.852V483.364ZM377.876 485.308L380.972 484.012C381.452 484.684 381.896 485.44 382.304 486.28C382.712 487.12 383 487.852 383.168 488.476L379.856 489.916C379.736 489.292 379.484 488.548 379.1 487.684C378.716 486.82 378.308 486.028 377.876 485.308ZM383.96 491.176L386.732 492.868C386.156 493.828 385.4 494.788 384.464 495.748C383.552 496.708 382.568 497.608 381.512 498.448C380.48 499.264 379.46 499.96 378.452 500.536C378.212 500.08 377.876 499.54 377.444 498.916C377.036 498.292 376.64 497.788 376.256 497.404C377.216 496.996 378.188 496.468 379.172 495.82C380.156 495.148 381.068 494.416 381.908 493.624C382.772 492.808 383.456 491.992 383.96 491.176ZM387.452 492.22C387.788 492.388 388.244 492.64 388.82 492.976C389.42 493.312 390.056 493.684 390.728 494.092C391.424 494.476 392.048 494.836 392.6 495.172C393.176 495.508 393.584 495.76 393.824 495.928L391.556 498.916C391.22 498.604 390.788 498.22 390.26 497.764C389.732 497.308 389.168 496.84 388.568 496.36C387.968 495.88 387.392 495.424 386.84 494.992C386.288 494.56 385.808 494.212 385.4 493.948L387.452 492.22ZM397.136 489.916H410.384V493.912H397.136V489.916ZM397.532 483.364L401.924 484.012C401.54 486.484 401.048 488.884 400.448 491.212C399.848 493.516 399.116 495.652 398.252 497.62C397.412 499.564 396.428 501.28 395.3 502.768C395.084 502.48 394.772 502.144 394.364 501.76C393.956 501.376 393.524 501.004 393.068 500.644C392.612 500.26 392.228 499.948 391.916 499.708C392.924 498.46 393.788 496.984 394.508 495.28C395.252 493.552 395.876 491.68 396.38 489.664C396.884 487.624 397.268 485.524 397.532 483.364ZM404.084 492.364L408.512 492.796C407.984 496.9 407.168 500.512 406.064 503.632C404.984 506.752 403.484 509.44 401.564 511.696C399.644 513.952 397.172 515.836 394.148 517.348C394.004 517.012 393.788 516.592 393.5 516.088C393.212 515.584 392.9 515.08 392.564 514.576C392.228 514.096 391.916 513.712 391.628 513.424C394.364 512.224 396.572 510.664 398.252 508.744C399.956 506.824 401.264 504.508 402.176 501.796C403.088 499.06 403.724 495.916 404.084 492.364ZM399.584 493.12C400.088 496.144 400.796 498.988 401.708 501.652C402.62 504.316 403.82 506.656 405.308 508.672C406.796 510.688 408.632 512.272 410.816 513.424C410.504 513.688 410.156 514.036 409.772 514.468C409.388 514.924 409.016 515.392 408.656 515.872C408.32 516.352 408.044 516.784 407.828 517.168C405.404 515.728 403.4 513.868 401.816 511.588C400.256 509.308 398.996 506.668 398.036 503.668C397.076 500.644 396.296 497.344 395.696 493.768L399.584 493.12ZM380.612 510.328L382.916 507.412C384.332 507.94 385.736 508.552 387.128 509.248C388.544 509.944 389.852 510.664 391.052 511.408C392.276 512.128 393.296 512.824 394.112 513.496L391.088 516.556C390.344 515.884 389.408 515.176 388.28 514.432C387.152 513.688 385.928 512.968 384.608 512.272C383.288 511.552 381.956 510.904 380.612 510.328ZM418.268 486.82C418.844 486.916 419.48 486.988 420.176 487.036C420.872 487.084 421.52 487.108 422.12 487.108C422.576 487.108 423.2 487.108 423.992 487.108C424.784 487.108 425.66 487.108 426.62 487.108C427.58 487.108 428.528 487.108 429.464 487.108C430.424 487.108 431.3 487.108 432.092 487.108C432.884 487.108 433.484 487.108 433.892 487.108C434.516 487.108 435.164 487.084 435.836 487.036C436.508 486.988 437.156 486.916 437.78 486.82V491.464C437.156 491.416 436.508 491.392 435.836 491.392C435.164 491.368 434.516 491.356 433.892 491.356C433.484 491.356 432.884 491.356 432.092 491.356C431.3 491.356 430.424 491.356 429.464 491.356C428.528 491.356 427.58 491.356 426.62 491.356C425.684 491.356 424.808 491.356 423.992 491.356C423.2 491.356 422.576 491.356 422.12 491.356C421.496 491.356 420.836 491.368 420.14 491.392C419.444 491.392 418.82 491.416 418.268 491.464V486.82ZM414.092 496.036C414.62 496.108 415.184 496.168 415.784 496.216C416.408 496.24 416.996 496.252 417.548 496.252C417.86 496.252 418.484 496.252 419.42 496.252C420.356 496.252 421.484 496.252 422.804 496.252C424.148 496.252 425.576 496.252 427.088 496.252C428.6 496.252 430.112 496.252 431.624 496.252C433.16 496.252 434.588 496.252 435.908 496.252C437.228 496.252 438.344 496.252 439.256 496.252C440.192 496.252 440.816 496.252 441.128 496.252C441.512 496.252 442.028 496.24 442.676 496.216C443.348 496.168 443.924 496.108 444.404 496.036V500.716C443.972 500.668 443.444 500.644 442.82 500.644C442.196 500.62 441.632 500.608 441.128 500.608C440.816 500.608 440.192 500.608 439.256 500.608C438.344 500.608 437.228 500.608 435.908 500.608C434.588 500.608 433.16 500.608 431.624 500.608C430.112 500.608 428.6 500.608 427.088 500.608C425.576 500.608 424.148 500.608 422.804 500.608C421.484 500.608 420.356 500.608 419.42 500.608C418.484 500.608 417.86 500.608 417.548 500.608C417.02 500.608 416.432 500.62 415.784 500.644C415.16 500.668 414.596 500.704 414.092 500.752V496.036ZM432.524 498.556C432.524 500.884 432.32 502.984 431.912 504.856C431.504 506.704 430.916 508.372 430.148 509.86C429.74 510.676 429.164 511.516 428.42 512.38C427.7 513.244 426.872 514.06 425.936 514.828C425 515.596 423.992 516.244 422.912 516.772L418.7 513.712C419.972 513.232 421.196 512.524 422.372 511.588C423.548 510.628 424.496 509.62 425.216 508.564C426.128 507.196 426.74 505.672 427.052 503.992C427.364 502.312 427.52 500.5 427.52 498.556H432.524ZM439.94 484.336C440.252 484.768 440.576 485.284 440.912 485.884C441.272 486.484 441.608 487.084 441.92 487.684C442.256 488.284 442.544 488.812 442.784 489.268L439.904 490.528C439.52 489.784 439.064 488.944 438.536 488.008C438.032 487.048 437.54 486.22 437.06 485.524L439.94 484.336ZM444.188 482.716C444.5 483.172 444.836 483.712 445.196 484.336C445.556 484.936 445.904 485.536 446.24 486.136C446.6 486.712 446.888 487.204 447.104 487.612L444.224 488.872C443.864 488.104 443.408 487.252 442.856 486.316C442.328 485.38 441.824 484.576 441.344 483.904L444.188 482.716ZM450.812 497.332C451.244 497.356 451.796 497.392 452.468 497.44C453.14 497.464 453.836 497.488 454.556 497.512C455.3 497.536 455.984 497.548 456.608 497.548C457.208 497.548 457.952 497.548 458.84 497.548C459.728 497.548 460.688 497.548 461.72 497.548C462.776 497.548 463.856 497.548 464.96 497.548C466.088 497.548 467.204 497.548 468.308 497.548C469.412 497.548 470.456 497.548 471.44 497.548C472.424 497.548 473.3 497.548 474.068 497.548C474.86 497.548 475.484 497.548 475.94 497.548C476.78 497.548 477.572 497.524 478.316 497.476C479.06 497.404 479.672 497.356 480.152 497.332V502.984C479.744 502.96 479.132 502.924 478.316 502.876C477.5 502.828 476.708 502.804 475.94 502.804C475.484 502.804 474.86 502.804 474.068 502.804C473.276 502.804 472.388 502.804 471.404 502.804C470.42 502.804 469.376 502.804 468.272 502.804C467.192 502.804 466.088 502.804 464.96 502.804C463.832 502.804 462.74 502.804 461.684 502.804C460.652 502.804 459.692 502.804 458.804 502.804C457.94 502.804 457.208 502.804 456.608 502.804C455.576 502.804 454.52 502.828 453.44 502.876C452.36 502.9 451.484 502.936 450.812 502.984V497.332ZM498.944 497.152C500.048 497.776 501.248 498.52 502.544 499.384C503.864 500.224 505.196 501.1 506.54 502.012C507.884 502.924 509.144 503.812 510.32 504.676C511.52 505.54 512.528 506.308 513.344 506.98L509.924 511.048C509.132 510.328 508.148 509.5 506.972 508.564C505.82 507.604 504.572 506.632 503.228 505.648C501.884 504.64 500.552 503.68 499.232 502.768C497.936 501.856 496.772 501.076 495.74 500.428L498.944 497.152ZM515.864 491.032C515.648 491.368 515.432 491.764 515.216 492.22C515 492.676 514.82 493.132 514.676 493.588C514.316 494.692 513.824 495.928 513.2 497.296C512.6 498.64 511.88 500.02 511.04 501.436C510.2 502.828 509.24 504.196 508.16 505.54C506.456 507.652 504.404 509.656 502.004 511.552C499.628 513.448 496.712 515.056 493.256 516.376L489.08 512.74C491.6 511.972 493.784 511.06 495.632 510.004C497.48 508.948 499.076 507.82 500.42 506.62C501.788 505.42 502.976 504.22 503.984 503.02C504.8 502.084 505.568 501.04 506.288 499.888C507.032 498.712 507.668 497.548 508.196 496.396C508.748 495.22 509.132 494.176 509.348 493.264H497.18L498.836 489.16H509.06C509.636 489.16 510.2 489.124 510.752 489.052C511.328 488.98 511.808 488.884 512.192 488.764L515.864 491.032ZM503.984 485.488C503.552 486.112 503.12 486.784 502.688 487.504C502.28 488.224 501.968 488.776 501.752 489.16C500.936 490.6 499.904 492.136 498.656 493.768C497.408 495.376 496.004 496.948 494.444 498.484C492.908 500.02 491.276 501.388 489.548 502.588L485.66 499.6C487.772 498.28 489.56 496.9 491.024 495.46C492.512 493.996 493.748 492.592 494.732 491.248C495.716 489.88 496.508 488.668 497.108 487.612C497.396 487.18 497.696 486.604 498.008 485.884C498.344 485.14 498.596 484.468 498.764 483.868L503.984 485.488Z" fill="black"/>
<path d="M605.5 579.5V424.5H868.5V579.5H605.5Z" fill="#ECFDFF" stroke="black" stroke-width="7"/>
<path d="M641.476 480.02V482.252H656.56V480.02H641.476ZM641.476 485.78V488.048H656.56V485.78H641.476ZM641.476 474.296V476.528H656.56V474.296H641.476ZM637.3 470.552H660.952V491.792H637.3V470.552ZM650.656 488.912H655.084V497.516C655.084 498.092 655.168 498.464 655.336 498.632C655.528 498.776 655.96 498.848 656.632 498.848C656.776 498.848 657.004 498.848 657.316 498.848C657.652 498.848 658.024 498.848 658.432 498.848C658.84 498.848 659.224 498.848 659.584 498.848C659.944 498.848 660.22 498.848 660.412 498.848C660.82 498.848 661.132 498.74 661.348 498.524C661.564 498.308 661.72 497.852 661.816 497.156C661.912 496.46 661.984 495.404 662.032 493.988C662.344 494.228 662.728 494.468 663.184 494.708C663.664 494.948 664.156 495.152 664.66 495.32C665.188 495.488 665.632 495.632 665.992 495.752C665.848 497.648 665.596 499.112 665.236 500.144C664.876 501.2 664.348 501.932 663.652 502.34C662.956 502.748 662.008 502.952 660.808 502.952C660.616 502.952 660.352 502.952 660.016 502.952C659.704 502.952 659.356 502.952 658.972 502.952C658.588 502.952 658.192 502.952 657.784 502.952C657.4 502.952 657.052 502.952 656.74 502.952C656.428 502.952 656.188 502.952 656.02 502.952C654.604 502.952 653.5 502.784 652.708 502.448C651.94 502.112 651.4 501.548 651.088 500.756C650.8 499.964 650.656 498.896 650.656 497.552V488.912ZM641.872 490.388H646.48C646.336 492.02 646.072 493.52 645.688 494.888C645.328 496.232 644.728 497.444 643.888 498.524C643.072 499.604 641.908 500.54 640.396 501.332C638.884 502.148 636.916 502.832 634.492 503.384C634.372 502.976 634.168 502.532 633.88 502.052C633.616 501.596 633.316 501.128 632.98 500.648C632.668 500.192 632.356 499.82 632.044 499.532C634.132 499.148 635.8 498.68 637.048 498.128C638.296 497.552 639.244 496.892 639.892 496.148C640.564 495.404 641.032 494.564 641.296 493.628C641.56 492.668 641.752 491.588 641.872 490.388ZM673.444 472.784H677.62V503.204H673.444V472.784ZM668.584 479.264H681.184V483.296H668.584V479.264ZM673.804 481.172L676.324 482.252C675.964 483.548 675.544 484.892 675.064 486.284C674.608 487.676 674.092 489.056 673.516 490.424C672.964 491.768 672.352 493.04 671.68 494.24C671.032 495.44 670.36 496.484 669.664 497.372C669.472 496.748 669.172 496.052 668.764 495.284C668.38 494.492 668.008 493.82 667.648 493.268C668.296 492.548 668.92 491.708 669.52 490.748C670.12 489.764 670.696 488.72 671.248 487.616C671.8 486.512 672.292 485.408 672.724 484.304C673.156 483.2 673.516 482.156 673.804 481.172ZM679.024 469.796L681.904 473.108C680.704 473.564 679.384 473.972 677.944 474.332C676.528 474.668 675.076 474.956 673.588 475.196C672.124 475.412 670.708 475.604 669.34 475.772C669.244 475.316 669.076 474.764 668.836 474.116C668.596 473.444 668.356 472.892 668.116 472.46C669.436 472.268 670.756 472.04 672.076 471.776C673.396 471.488 674.656 471.176 675.856 470.84C677.056 470.504 678.112 470.156 679.024 469.796ZM677.296 484.16C677.512 484.328 677.836 484.64 678.268 485.096C678.724 485.528 679.204 486.008 679.708 486.536C680.236 487.064 680.704 487.556 681.112 488.012C681.52 488.444 681.808 488.756 681.976 488.948L679.528 492.368C679.312 491.912 679.024 491.396 678.664 490.82C678.328 490.244 677.956 489.644 677.548 489.02C677.164 488.396 676.78 487.808 676.396 487.256C676.012 486.68 675.676 486.212 675.388 485.852L677.296 484.16ZM689.14 469.4H693.46V480.92H689.14V469.4ZM682.084 471.092H700.948V473.684H682.084V471.092ZM682.732 474.908H700.12V477.428H682.732V474.908ZM680.968 478.652H701.704V481.352H680.968V478.652ZM687.088 489.164V490.712H695.872V489.164H687.088ZM687.088 493.196V494.744H695.872V493.196H687.088ZM687.088 485.204V486.716H695.872V485.204H687.088ZM683.236 482.54H699.94V497.408H683.236V482.54ZM692.488 499.028L695.368 496.976C696.16 497.408 696.976 497.888 697.816 498.416C698.68 498.944 699.496 499.46 700.264 499.964C701.032 500.444 701.692 500.864 702.244 501.224L698.464 503.276C698.032 502.916 697.48 502.484 696.808 501.98C696.136 501.5 695.428 500.996 694.684 500.468C693.94 499.94 693.208 499.46 692.488 499.028ZM687.232 496.796L690.58 498.992C689.86 499.568 689.008 500.132 688.024 500.684C687.04 501.26 686.008 501.776 684.928 502.232C683.872 502.688 682.852 503.072 681.868 503.384C681.556 503 681.136 502.544 680.608 502.016C680.104 501.512 679.636 501.068 679.204 500.684C680.188 500.42 681.184 500.072 682.192 499.64C683.2 499.184 684.148 498.716 685.036 498.236C685.924 497.732 686.656 497.252 687.232 496.796ZM721 481.712C721.864 481.712 722.632 481.928 723.304 482.36C724 482.768 724.552 483.32 724.96 484.016C725.392 484.688 725.608 485.456 725.608 486.32C725.608 487.16 725.392 487.928 724.96 488.624C724.552 489.32 724 489.884 723.304 490.316C722.632 490.724 721.864 490.928 721 490.928C720.16 490.928 719.392 490.724 718.696 490.316C718 489.884 717.436 489.32 717.004 488.624C716.596 487.928 716.392 487.16 716.392 486.32C716.392 485.456 716.596 484.688 717.004 484.016C717.436 483.32 718 482.768 718.696 482.36C719.392 481.928 720.16 481.712 721 481.712ZM761.86 484.088L764.596 481.496C765.292 482.6 765.988 483.776 766.684 485.024C767.404 486.272 768.064 487.496 768.664 488.696C769.288 489.896 769.792 490.964 770.176 491.9L767.224 494.744C766.864 493.784 766.384 492.692 765.784 491.468C765.184 490.22 764.548 488.96 763.876 487.688C763.204 486.392 762.532 485.192 761.86 484.088ZM754.264 475.664H770.86V479.624H758.116V503.132H754.264V475.664ZM769.204 475.664H773.056V498.812C773.056 499.772 772.948 500.54 772.732 501.116C772.54 501.716 772.132 502.184 771.508 502.52C770.932 502.832 770.188 503.036 769.276 503.132C768.388 503.228 767.332 503.276 766.108 503.276C766.06 502.7 765.916 502.028 765.676 501.26C765.46 500.492 765.208 499.844 764.92 499.316C765.664 499.34 766.396 499.352 767.116 499.352C767.836 499.352 768.316 499.352 768.556 499.352C768.988 499.352 769.204 499.136 769.204 498.704V475.664ZM761.86 469.364H765.892C765.868 472.22 765.784 474.92 765.64 477.464C765.52 480.008 765.256 482.384 764.848 484.592C764.464 486.8 763.876 488.804 763.084 490.604C762.292 492.38 761.2 493.952 759.808 495.32C759.64 495.008 759.4 494.672 759.088 494.312C758.776 493.952 758.44 493.616 758.08 493.304C757.744 492.968 757.432 492.716 757.144 492.548C758.296 491.348 759.196 489.956 759.844 488.372C760.492 486.764 760.948 484.988 761.212 483.044C761.5 481.1 761.68 478.988 761.752 476.708C761.824 474.404 761.86 471.956 761.86 469.364ZM745.48 469.436L749.224 470.84C748.744 471.752 748.24 472.7 747.712 473.684C747.184 474.668 746.668 475.604 746.164 476.492C745.66 477.38 745.18 478.148 744.724 478.796L741.844 477.572C742.276 476.828 742.72 475.988 743.176 475.052C743.632 474.116 744.064 473.156 744.472 472.172C744.88 471.188 745.216 470.276 745.48 469.436ZM749.62 473.72L753.148 475.304C752.284 476.672 751.336 478.112 750.304 479.624C749.272 481.112 748.24 482.552 747.208 483.944C746.176 485.312 745.204 486.512 744.292 487.544L741.772 486.14C742.444 485.324 743.14 484.412 743.86 483.404C744.58 482.372 745.288 481.304 745.984 480.2C746.704 479.072 747.376 477.956 748 476.852C748.624 475.724 749.164 474.68 749.62 473.72ZM739.936 477.968L742.024 475.016C742.648 475.568 743.284 476.18 743.932 476.852C744.604 477.5 745.216 478.16 745.768 478.832C746.344 479.48 746.776 480.068 747.064 480.596L744.868 483.944C744.58 483.368 744.16 482.732 743.608 482.036C743.08 481.34 742.492 480.632 741.844 479.912C741.196 479.192 740.56 478.544 739.936 477.968ZM748.576 482.288L751.42 481.1C751.876 481.916 752.32 482.792 752.752 483.728C753.208 484.64 753.592 485.54 753.904 486.428C754.24 487.292 754.468 488.072 754.588 488.768L751.528 490.136C751.408 489.44 751.192 488.648 750.88 487.76C750.592 486.848 750.244 485.912 749.836 484.952C749.428 483.992 749.008 483.104 748.576 482.288ZM739.9 485.276C741.556 485.228 743.536 485.156 745.84 485.06C748.144 484.964 750.484 484.868 752.86 484.772L752.824 488.192C750.592 488.36 748.372 488.516 746.164 488.66C743.98 488.804 742.012 488.936 740.26 489.056L739.9 485.276ZM749.332 491.252L752.356 490.28C752.812 491.312 753.244 492.44 753.652 493.664C754.084 494.864 754.408 495.92 754.624 496.832L751.42 497.984C751.252 497.072 750.964 495.992 750.556 494.744C750.148 493.472 749.74 492.308 749.332 491.252ZM741.484 490.568L745.048 491.216C744.856 492.944 744.568 494.648 744.184 496.328C743.8 498.008 743.356 499.424 742.852 500.576C742.612 500.408 742.288 500.216 741.88 500C741.472 499.808 741.052 499.616 740.62 499.424C740.212 499.232 739.852 499.088 739.54 498.992C740.068 497.912 740.488 496.628 740.8 495.14C741.112 493.628 741.34 492.104 741.484 490.568ZM745.516 487.184H749.296V503.24H745.516V487.184ZM786.664 474.98V479.804H799.336V474.98H786.664ZM782.488 470.84H803.728V483.908H782.488V470.84ZM777.52 486.932H791.308V503.024H786.988V491.072H781.624V503.24H777.52V486.932ZM794.332 486.932H808.588V503.06H804.268V491.072H798.472V503.24H794.332V486.932ZM779.32 497.264H788.788V501.404H779.32V497.264ZM796.312 497.264H806.392V501.404H796.312V497.264ZM637.768 516.82C638.344 516.916 638.98 516.988 639.676 517.036C640.372 517.084 641.02 517.108 641.62 517.108C642.076 517.108 642.7 517.108 643.492 517.108C644.284 517.108 645.16 517.108 646.12 517.108C647.08 517.108 648.028 517.108 648.964 517.108C649.924 517.108 650.8 517.108 651.592 517.108C652.384 517.108 652.984 517.108 653.392 517.108C654.016 517.108 654.664 517.084 655.336 517.036C656.008 516.988 656.656 516.916 657.28 516.82V521.464C656.656 521.416 656.008 521.392 655.336 521.392C654.664 521.368 654.016 521.356 653.392 521.356C652.984 521.356 652.384 521.356 651.592 521.356C650.8 521.356 649.924 521.356 648.964 521.356C648.028 521.356 647.08 521.356 646.12 521.356C645.184 521.356 644.308 521.356 643.492 521.356C642.7 521.356 642.076 521.356 641.62 521.356C640.996 521.356 640.336 521.368 639.64 521.392C638.944 521.392 638.32 521.416 637.768 521.464V516.82ZM633.592 526.036C634.12 526.108 634.684 526.168 635.284 526.216C635.908 526.24 636.496 526.252 637.048 526.252C637.36 526.252 637.984 526.252 638.92 526.252C639.856 526.252 640.984 526.252 642.304 526.252C643.648 526.252 645.076 526.252 646.588 526.252C648.1 526.252 649.612 526.252 651.124 526.252C652.66 526.252 654.088 526.252 655.408 526.252C656.728 526.252 657.844 526.252 658.756 526.252C659.692 526.252 660.316 526.252 660.628 526.252C661.012 526.252 661.528 526.24 662.176 526.216C662.848 526.168 663.424 526.108 663.904 526.036V530.716C663.472 530.668 662.944 530.644 662.32 530.644C661.696 530.62 661.132 530.608 660.628 530.608C660.316 530.608 659.692 530.608 658.756 530.608C657.844 530.608 656.728 530.608 655.408 530.608C654.088 530.608 652.66 530.608 651.124 530.608C649.612 530.608 648.1 530.608 646.588 530.608C645.076 530.608 643.648 530.608 642.304 530.608C640.984 530.608 639.856 530.608 638.92 530.608C637.984 530.608 637.36 530.608 637.048 530.608C636.52 530.608 635.932 530.62 635.284 530.644C634.66 530.668 634.096 530.704 633.592 530.752V526.036ZM652.024 528.556C652.024 530.884 651.82 532.984 651.412 534.856C651.004 536.704 650.416 538.372 649.648 539.86C649.24 540.676 648.664 541.516 647.92 542.38C647.2 543.244 646.372 544.06 645.436 544.828C644.5 545.596 643.492 546.244 642.412 546.772L638.2 543.712C639.472 543.232 640.696 542.524 641.872 541.588C643.048 540.628 643.996 539.62 644.716 538.564C645.628 537.196 646.24 535.672 646.552 533.992C646.864 532.312 647.02 530.5 647.02 528.556H652.024ZM659.44 514.336C659.752 514.768 660.076 515.284 660.412 515.884C660.772 516.484 661.108 517.084 661.42 517.684C661.756 518.284 662.044 518.812 662.284 519.268L659.404 520.528C659.02 519.784 658.564 518.944 658.036 518.008C657.532 517.048 657.04 516.22 656.56 515.524L659.44 514.336ZM663.688 512.716C664 513.172 664.336 513.712 664.696 514.336C665.056 514.936 665.404 515.536 665.74 516.136C666.1 516.712 666.388 517.204 666.604 517.612L663.724 518.872C663.364 518.104 662.908 517.252 662.356 516.316C661.828 515.38 661.324 514.576 660.844 513.904L663.688 512.716ZM670.312 527.332C670.744 527.356 671.296 527.392 671.968 527.44C672.64 527.464 673.336 527.488 674.056 527.512C674.8 527.536 675.484 527.548 676.108 527.548C676.708 527.548 677.452 527.548 678.34 527.548C679.228 527.548 680.188 527.548 681.22 527.548C682.276 527.548 683.356 527.548 684.46 527.548C685.588 527.548 686.704 527.548 687.808 527.548C688.912 527.548 689.956 527.548 690.94 527.548C691.924 527.548 692.8 527.548 693.568 527.548C694.36 527.548 694.984 527.548 695.44 527.548C696.28 527.548 697.072 527.524 697.816 527.476C698.56 527.404 699.172 527.356 699.652 527.332V532.984C699.244 532.96 698.632 532.924 697.816 532.876C697 532.828 696.208 532.804 695.44 532.804C694.984 532.804 694.36 532.804 693.568 532.804C692.776 532.804 691.888 532.804 690.904 532.804C689.92 532.804 688.876 532.804 687.772 532.804C686.692 532.804 685.588 532.804 684.46 532.804C683.332 532.804 682.24 532.804 681.184 532.804C680.152 532.804 679.192 532.804 678.304 532.804C677.44 532.804 676.708 532.804 676.108 532.804C675.076 532.804 674.02 532.828 672.94 532.876C671.86 532.9 670.984 532.936 670.312 532.984V527.332ZM718.444 527.152C719.548 527.776 720.748 528.52 722.044 529.384C723.364 530.224 724.696 531.1 726.04 532.012C727.384 532.924 728.644 533.812 729.82 534.676C731.02 535.54 732.028 536.308 732.844 536.98L729.424 541.048C728.632 540.328 727.648 539.5 726.472 538.564C725.32 537.604 724.072 536.632 722.728 535.648C721.384 534.64 720.052 533.68 718.732 532.768C717.436 531.856 716.272 531.076 715.24 530.428L718.444 527.152ZM735.364 521.032C735.148 521.368 734.932 521.764 734.716 522.22C734.5 522.676 734.32 523.132 734.176 523.588C733.816 524.692 733.324 525.928 732.7 527.296C732.1 528.64 731.38 530.02 730.54 531.436C729.7 532.828 728.74 534.196 727.66 535.54C725.956 537.652 723.904 539.656 721.504 541.552C719.128 543.448 716.212 545.056 712.756 546.376L708.58 542.74C711.1 541.972 713.284 541.06 715.132 540.004C716.98 538.948 718.576 537.82 719.92 536.62C721.288 535.42 722.476 534.22 723.484 533.02C724.3 532.084 725.068 531.04 725.788 529.888C726.532 528.712 727.168 527.548 727.696 526.396C728.248 525.22 728.632 524.176 728.848 523.264H716.68L718.336 519.16H728.56C729.136 519.16 729.7 519.124 730.252 519.052C730.828 518.98 731.308 518.884 731.692 518.764L735.364 521.032ZM723.484 515.488C723.052 516.112 722.62 516.784 722.188 517.504C721.78 518.224 721.468 518.776 721.252 519.16C720.436 520.6 719.404 522.136 718.156 523.768C716.908 525.376 715.504 526.948 713.944 528.484C712.408 530.02 710.776 531.388 709.048 532.588L705.16 529.6C707.272 528.28 709.06 526.9 710.524 525.46C712.012 523.996 713.248 522.592 714.232 521.248C715.216 519.88 716.008 518.668 716.608 517.612C716.896 517.18 717.196 516.604 717.508 515.884C717.844 515.14 718.096 514.468 718.264 513.868L723.484 515.488Z" fill="black"/>
<line x1="439.5" y1="244" x2="439.5" y2="421" stroke="black" stroke-width="7"/>
<line x1="131.5" y1="421" x2="131.5" y2="326" stroke="black" stroke-width="7"/>
<line x1="127.998" y1="327.686" x2="738.827" y2="327.686" stroke="black" stroke-width="7"/>
<line x1="735.5" y1="421" x2="735.5" y2="325" stroke="black" stroke-width="7"/>
</svg>
