<svg width="296" height="253" viewBox="0 0 296 253" fill="none" xmlns="http://www.w3.org/2000/svg">
<g clip-path="url(#clip0_21_3)">
<rect width="296" height="253" fill="white"/>
<rect x="-55.5" y="-9.5" width="545" height="284" rx="4.5" stroke="#9747FF" stroke-dasharray="10 5"/>
<g filter="url(#filter0_d_21_3)">
<rect width="182.004" height="30.8008" rx="3" transform="matrix(1 0 -0.0130896 0.999914 6.91626 46)" fill="white"/>
</g>
<g filter="url(#filter1_d_21_3)">
<rect width="93.8023" height="30.8008" rx="3" transform="matrix(1 0 -0.0130896 0.999914 193.121 46)" fill="white"/>
</g>
<rect x="0.246728" y="0.249979" width="51.3013" height="21.9005" rx="2.75" transform="matrix(1 0 -0.0130896 0.999914 214.07 50.1998)" fill="white" stroke="#5AC5FF" stroke-width="0.5"/>
<g filter="url(#filter2_d_21_3)">
<rect width="176.404" height="30.8008" rx="3" transform="matrix(1 0 -0.0130896 0.999914 293.923 46)" fill="white"/>
</g>
<path d="M25.3525 55.4794C25.4043 55.5993 25.4753 55.776 25.5656 56.0093C25.6558 56.2426 25.7492 56.4959 25.8456 56.7692C25.9488 57.0359 26.0421 57.2925 26.1255 57.5392C26.209 57.7792 26.2699 57.9691 26.3081 58.1091L25.5245 58.3791C25.4864 58.2391 25.4255 58.0491 25.342 57.8092C25.2652 57.5625 25.1786 57.3059 25.0821 57.0392C24.9922 56.7726 24.9022 56.5226 24.8119 56.2893C24.7217 56.0493 24.6441 55.866 24.5791 55.7393L25.3525 55.4794ZM29.7841 56.1193C29.7496 56.206 29.715 56.3026 29.6803 56.4093C29.6523 56.5159 29.6244 56.6093 29.5967 56.6893C29.4979 57.1026 29.3657 57.5292 29.1999 57.9691C29.0408 58.4091 28.8518 58.8424 28.6329 59.269C28.414 59.689 28.1656 60.079 27.8876 60.4389C27.5417 60.8856 27.1496 61.2989 26.7113 61.6788C26.2798 62.0521 25.8255 62.3788 25.3485 62.6587C24.8782 62.9387 24.4053 63.162 23.9297 63.3287L23.2489 62.6287C23.7307 62.4888 24.21 62.2921 24.6866 62.0388C25.1633 61.7855 25.6172 61.4855 26.0484 61.1389C26.4864 60.7856 26.8748 60.3956 27.2137 59.969C27.4847 59.6357 27.7299 59.2457 27.949 58.7991C28.1683 58.3458 28.3579 57.8692 28.5177 57.3692C28.6777 56.8626 28.7943 56.3593 28.8675 55.8593L29.7841 56.1193ZM22.5546 56.0793C22.6195 56.2193 22.7003 56.4093 22.7972 56.6493C22.8941 56.8826 22.9974 57.1392 23.1071 57.4192C23.2169 57.6925 23.3167 57.9558 23.4068 58.2091C23.5035 58.4558 23.5809 58.6591 23.6388 58.8191L22.845 59.109C22.8065 58.9891 22.7519 58.8324 22.6811 58.6391C22.6171 58.4391 22.5398 58.2291 22.4494 58.0091C22.3657 57.7825 22.2786 57.5592 22.1881 57.3392C22.1044 57.1192 22.0236 56.9259 21.9457 56.7593C21.868 56.5859 21.8064 56.4559 21.7608 56.3693L22.5546 56.0793ZM31.7707 58.6691C31.8706 58.6758 31.9938 58.6858 32.1403 58.6991C32.2869 58.7058 32.4468 58.7124 32.6201 58.7191C32.8001 58.7191 32.9801 58.7191 33.1601 58.7191C33.2667 58.7191 33.4301 58.7191 33.6501 58.7191C33.8767 58.7191 34.1401 58.7191 34.4401 58.7191C34.7401 58.7191 35.0567 58.7191 35.3901 58.7191C35.7301 58.7191 36.0667 58.7191 36.4001 58.7191C36.7401 58.7191 37.0601 58.7191 37.3601 58.7191C37.6667 58.7191 37.9301 58.7191 38.1501 58.7191C38.3701 58.7191 38.5334 58.7191 38.6401 58.7191C38.8934 58.7191 39.1102 58.7124 39.2903 58.6991C39.4705 58.6858 39.614 58.6758 39.7207 58.6691L39.7079 59.649C39.608 59.6423 39.4581 59.6323 39.2583 59.619C39.0651 59.6057 38.8586 59.599 38.6386 59.599C38.5319 59.599 38.3652 59.599 38.1386 59.599C37.9119 59.599 37.6486 59.599 37.3486 59.599C37.0552 59.599 36.7386 59.599 36.3986 59.599C36.0586 59.599 35.7186 59.599 35.3786 59.599C35.0452 59.599 34.7286 59.599 34.4286 59.599C34.1352 59.599 33.8752 59.599 33.6486 59.599C33.4219 59.599 33.2552 59.599 33.1486 59.599C32.8752 59.599 32.6151 59.6057 32.3683 59.619C32.1215 59.6257 31.9181 59.6357 31.7579 59.649L31.7707 58.6691ZM45.9368 62.7887C45.9578 62.7087 45.9723 62.6221 45.9802 62.5288C45.9948 62.4288 46.0028 62.3288 46.0041 62.2288C46.005 62.1621 46.0069 62.0155 46.0099 61.7888C46.0129 61.5622 46.0165 61.2855 46.0208 60.9589C46.0251 60.6256 46.0298 60.2656 46.0349 59.879C46.04 59.4923 46.045 59.1057 46.0501 58.7191C46.0552 58.3258 46.06 57.9591 46.0645 57.6192C46.0689 57.2792 46.0728 56.9859 46.076 56.7393C46.0792 56.4926 46.0814 56.326 46.0825 56.2393C46.0851 56.046 46.0805 55.886 46.0688 55.7593C46.0572 55.626 46.0484 55.5394 46.0422 55.4994H46.9622C46.9617 55.5394 46.9539 55.626 46.9388 55.7593C46.9237 55.8927 46.915 56.0526 46.9125 56.2393C46.9113 56.3326 46.9091 56.4993 46.906 56.7393C46.9029 56.9726 46.8992 57.2592 46.8947 57.5992C46.8904 57.9325 46.8857 58.2925 46.8806 58.6791C46.8756 59.0591 46.8707 59.4357 46.8658 59.809C46.8609 60.1823 46.8564 60.5289 46.8522 60.8489C46.8481 61.1622 46.8447 61.4222 46.842 61.6288C46.8393 61.8355 46.8376 61.9621 46.837 62.0088C47.1523 61.8621 47.4881 61.6688 47.8446 61.4289C48.2011 61.1889 48.5481 60.9089 48.8856 60.5889C49.2298 60.2689 49.531 59.9223 49.7892 59.549L50.2503 60.229C49.9586 60.6156 49.6171 60.9856 49.2258 61.3389C48.8412 61.6922 48.4403 62.0088 48.0233 62.2888C47.6063 62.5688 47.1999 62.8054 46.8041 62.9987C46.7234 63.0454 46.6529 63.0887 46.5924 63.1287C46.5385 63.1687 46.4947 63.202 46.461 63.2287L45.9368 62.7887ZM41.3575 62.7387C41.7814 62.4388 42.1428 62.0755 42.4417 61.6488C42.7406 61.2222 42.97 60.7656 43.1297 60.2789C43.206 60.0523 43.2663 59.769 43.3108 59.429C43.3552 59.0891 43.3899 58.7291 43.4149 58.3491C43.44 57.9625 43.4549 57.5892 43.4596 57.2292C43.471 56.8626 43.4786 56.5393 43.4823 56.2593C43.4842 56.1126 43.4792 55.9827 43.4674 55.8693C43.4556 55.7493 43.4404 55.636 43.4218 55.5294H44.3418C44.3346 55.5694 44.3272 55.6293 44.3195 55.7093C44.3119 55.7827 44.3041 55.866 44.2962 55.9593C44.2883 56.0526 44.2837 56.1493 44.2824 56.2493C44.2787 56.5293 44.2711 56.8592 44.2594 57.2392C44.2479 57.6125 44.2261 58.0058 44.194 58.4191C44.1687 58.8257 44.1336 59.2124 44.0888 59.579C44.0507 59.9456 43.9933 60.2523 43.9168 60.4989C43.7631 61.0322 43.5265 61.5355 43.207 62.0088C42.8942 62.4821 42.5254 62.8954 42.1008 63.2487L41.3575 62.7387ZM58.7816 56.3093C58.7478 56.3493 58.7036 56.4159 58.649 56.5093C58.6012 56.5959 58.5602 56.6759 58.5259 56.7493C58.3949 57.0759 58.2235 57.4392 58.0116 57.8392C57.7998 58.2325 57.5647 58.6224 57.3063 59.0091C57.0479 59.3957 56.7766 59.7457 56.4925 60.059C56.1205 60.4723 55.7118 60.8756 55.2667 61.2689C54.8216 61.6555 54.3535 62.0188 53.8624 62.3588C53.3714 62.6921 52.861 62.9787 52.3312 63.2187L51.6999 62.5488C52.2427 62.3354 52.7628 62.0721 53.2603 61.7588C53.7645 61.4388 54.2357 61.0922 54.6739 60.7189C55.1189 60.3389 55.5138 59.959 55.8588 59.579C56.0889 59.319 56.316 59.0291 56.5402 58.7091C56.7712 58.3824 56.9755 58.0525 57.1532 57.7192C57.3376 57.3792 57.4716 57.0726 57.5552 56.7992C57.5019 56.7992 57.3752 56.7992 57.1752 56.7992C56.9752 56.7992 56.7385 56.7992 56.4652 56.7992C56.1919 56.7992 55.9052 56.7992 55.6052 56.7992C55.3052 56.7992 55.0185 56.7992 54.7452 56.7992C54.4719 56.7992 54.2352 56.7992 54.0352 56.7992C53.8419 56.7992 53.7152 56.7992 53.6552 56.7992C53.5419 56.7992 53.4118 56.8026 53.2651 56.8092C53.125 56.8159 52.9949 56.8226 52.8748 56.8292C52.7614 56.8359 52.6846 56.8426 52.6446 56.8492L52.6565 55.9393C52.703 55.946 52.7862 55.956 52.9061 55.9693C53.0327 55.976 53.1659 55.9827 53.3058 55.9893C53.4457 55.996 53.5657 55.9993 53.6657 55.9993C53.739 55.9993 53.8723 55.9993 54.0657 55.9993C54.259 55.9993 54.489 55.9993 54.7557 55.9993C55.029 55.9993 55.3123 55.9993 55.6057 55.9993C55.899 55.9993 56.179 55.9993 56.4457 55.9993C56.719 55.9993 56.9523 55.9993 57.1457 55.9993C57.339 55.9993 57.4657 55.9993 57.5257 55.9993C57.6923 55.9993 57.8391 55.9926 57.9659 55.9793C58.0995 55.966 58.203 55.946 58.2767 55.9193L58.7816 56.3093ZM56.6295 59.529C56.8998 59.7557 57.1766 60.0056 57.4597 60.2789C57.7494 60.5523 58.0324 60.8356 58.3085 61.1289C58.5848 61.4155 58.8412 61.6922 59.0777 61.9588C59.3143 62.2188 59.5178 62.4554 59.6884 62.6687L58.9805 63.2687C58.7514 62.9487 58.4759 62.6054 58.154 62.2388C57.8322 61.8655 57.4904 61.4955 57.1285 61.1289C56.7734 60.7556 56.4146 60.4123 56.052 60.099L56.6295 59.529ZM64.0756 62.1188C64.0768 62.0255 64.0792 61.8388 64.0829 61.5588C64.0867 61.2722 64.0911 60.9356 64.0961 60.5489C64.1013 60.1556 64.1066 59.7457 64.1122 59.319C64.1179 58.8857 64.1234 58.4658 64.1287 58.0591C64.134 57.6525 64.1388 57.2925 64.1429 56.9792C64.147 56.6659 64.1499 56.4393 64.1518 56.2993C64.1536 56.1593 64.1491 55.9893 64.1384 55.7893C64.1277 55.5894 64.11 55.4127 64.0854 55.2594H65.0654C65.0501 55.406 65.0312 55.5794 65.0086 55.7793C64.9926 55.9793 64.9837 56.1526 64.9818 56.2993C64.9783 56.5593 64.9742 56.8726 64.9694 57.2392C64.9647 57.5992 64.9597 57.9858 64.9543 58.3991C64.9489 58.8057 64.9436 59.2124 64.9383 59.619C64.9397 60.019 64.9381 60.3956 64.9335 60.7489C64.929 61.0955 64.9251 61.3922 64.9219 61.6388C64.9187 61.8788 64.9166 62.0388 64.9156 62.1188C64.9142 62.2254 64.9126 62.3488 64.9107 62.4888C64.9156 62.6287 64.9237 62.7721 64.9351 62.9187C64.9466 63.0587 64.9549 63.1854 64.9601 63.2987H63.9901C64.0189 63.1387 64.038 62.9487 64.0476 62.7287C64.0638 62.5088 64.0731 62.3054 64.0756 62.1188ZM64.7911 57.8792C65.1164 57.9791 65.4749 58.0991 65.8664 58.2391C66.2646 58.3724 66.6694 58.5158 67.0807 58.6691C67.4921 58.8224 67.88 58.9791 68.2446 59.139C68.6159 59.2924 68.9373 59.439 69.2088 59.579L68.8577 60.4289C68.5731 60.2689 68.2518 60.1123 67.8938 59.959C67.5359 59.799 67.168 59.6423 66.79 59.489C66.4187 59.3357 66.0571 59.199 65.7054 59.0791C65.3604 58.9524 65.0517 58.8491 64.7794 58.7691L64.7911 57.8792ZM75.5994 57.2392C75.6448 57.3392 75.7028 57.4892 75.7736 57.6892C75.8444 57.8825 75.9183 58.0891 75.9954 58.3091C76.0792 58.5291 76.1531 58.7391 76.2172 58.9391C76.2813 59.1324 76.3293 59.2857 76.3612 59.399L75.6178 59.659C75.5926 59.5457 75.5479 59.3924 75.4838 59.199C75.4263 59.0057 75.359 58.7991 75.2819 58.5791C75.2049 58.3524 75.1276 58.1425 75.0502 57.9491C74.9727 57.7558 74.9114 57.6025 74.8662 57.4892L75.5994 57.2392ZM79.2121 57.7992C79.1775 57.8992 79.1463 57.9925 79.1185 58.0791C79.0974 58.1591 79.0764 58.2325 79.0556 58.2991C78.9151 58.8457 78.7281 59.3824 78.4945 59.909C78.261 60.4289 77.9613 60.9156 77.5954 61.3689C77.1277 61.9555 76.6013 62.4454 76.0161 62.8387C75.4377 63.232 74.867 63.5353 74.3042 63.7487L73.653 63.0787C74.0412 62.9587 74.4333 62.7987 74.8293 62.5988C75.2319 62.3988 75.6117 62.1588 75.9687 61.8788C76.3324 61.5988 76.6531 61.2889 76.9309 60.9489C77.1747 60.6556 77.3924 60.3256 77.5838 59.959C77.782 59.5923 77.9471 59.2024 78.0792 58.7891C78.2112 58.3758 78.3034 57.9558 78.3557 57.5292L79.2121 57.7992ZM73.2729 57.7392C73.3248 57.8525 73.3894 58.0058 73.4669 58.1991C73.5444 58.3924 73.6249 58.6058 73.7085 58.8391C73.7989 59.0657 73.8827 59.2857 73.9599 59.499C74.0438 59.7057 74.1083 59.8723 74.1533 59.999L73.3897 60.2789C73.3513 60.1523 73.2935 59.9823 73.2163 59.769C73.1459 59.549 73.0655 59.3224 72.9752 59.0891C72.885 58.8557 72.7977 58.6424 72.7136 58.4491C72.6361 58.2558 72.5746 58.1158 72.5291 58.0291L73.2729 57.7392ZM85.8771 55.1294C85.8622 55.2427 85.8471 55.3794 85.8317 55.5394C85.823 55.6927 85.8146 55.8293 85.8063 55.9493C85.7663 56.9692 85.6646 57.8625 85.5013 58.6291C85.338 59.389 85.1159 60.0556 84.8351 60.6289C84.561 61.1955 84.2278 61.6922 83.8356 62.1188C83.45 62.5454 83.0083 62.9287 82.5105 63.2687L81.7882 62.6787C81.9494 62.5921 82.1241 62.4821 82.3126 62.3488C82.501 62.2154 82.6728 62.0788 82.8279 61.9388C83.1449 61.6588 83.4292 61.3355 83.6806 60.9689C83.9388 60.6023 84.1609 60.1823 84.3471 59.709C84.54 59.2357 84.6904 58.6924 84.7985 58.0791C84.9132 57.4592 84.9792 56.7526 84.9962 55.9593C84.9972 55.886 84.995 55.7993 84.9896 55.6993C84.9842 55.5993 84.9756 55.4994 84.9635 55.3994C84.9582 55.2994 84.9494 55.2094 84.9371 55.1294H85.8771ZM89.3198 57.2092C89.3054 57.2959 89.2909 57.3825 89.2764 57.4692C89.2686 57.5558 89.2643 57.6325 89.2634 57.6992C89.2543 57.8858 89.2376 58.1425 89.2133 58.4691C89.1957 58.7957 89.1677 59.1524 89.1293 59.539C89.0977 59.919 89.056 60.3023 89.0043 60.6889C88.9592 61.0755 88.9012 61.4322 88.8303 61.7588C88.7594 62.0788 88.6794 62.3354 88.5902 62.5288C88.4875 62.7354 88.3488 62.8887 88.1742 62.9887C88.0062 63.0887 87.7856 63.1387 87.5122 63.1387C87.2589 63.1387 86.9924 63.1287 86.7126 63.1087C86.4328 63.0954 86.163 63.082 85.9031 63.0687L85.814 62.2388C86.0869 62.2721 86.3499 62.2988 86.603 62.3188C86.8627 62.3388 87.0959 62.3488 87.3026 62.3488C87.4492 62.3488 87.5695 62.3254 87.6635 62.2788C87.7574 62.2321 87.8319 62.1455 87.8869 62.0188C87.9689 61.8655 88.0383 61.6555 88.0951 61.3889C88.1519 61.1222 88.2025 60.8222 88.2469 60.4889C88.2913 60.1556 88.329 59.819 88.3601 59.479C88.3912 59.139 88.4121 58.8157 88.4228 58.5091C88.4402 58.2025 88.4502 57.9425 88.453 57.7292H83.183C82.983 57.7292 82.7863 57.7325 82.5929 57.7392C82.3996 57.7392 82.2128 57.7492 82.0325 57.7692L82.0436 56.9192C82.2167 56.9392 82.4032 56.9559 82.603 56.9692C82.8029 56.9759 82.9962 56.9792 83.1829 56.9792H88.1229C88.2562 56.9792 88.3729 56.9759 88.473 56.9692C88.5798 56.9559 88.6767 56.9426 88.7635 56.9292L89.3198 57.2092ZM91.7707 58.6691C91.8706 58.6758 91.9938 58.6858 92.1403 58.6991C92.2869 58.7058 92.4468 58.7124 92.6201 58.7191C92.8001 58.7191 92.9801 58.7191 93.1601 58.7191C93.2667 58.7191 93.4301 58.7191 93.6501 58.7191C93.8767 58.7191 94.1401 58.7191 94.4401 58.7191C94.7401 58.7191 95.0567 58.7191 95.3901 58.7191C95.7301 58.7191 96.0667 58.7191 96.4001 58.7191C96.7401 58.7191 97.0601 58.7191 97.3601 58.7191C97.6667 58.7191 97.9301 58.7191 98.1501 58.7191C98.3701 58.7191 98.5334 58.7191 98.6401 58.7191C98.8934 58.7191 99.1102 58.7124 99.2903 58.6991C99.4705 58.6858 99.614 58.6758 99.7207 58.6691L99.7079 59.649C99.608 59.6423 99.4581 59.6323 99.2583 59.619C99.0651 59.6057 98.8586 59.599 98.6386 59.599C98.5319 59.599 98.3652 59.599 98.1386 59.599C97.9119 59.599 97.6486 59.599 97.3486 59.599C97.0552 59.599 96.7386 59.599 96.3986 59.599C96.0586 59.599 95.7186 59.599 95.3786 59.599C95.0452 59.599 94.7286 59.599 94.4286 59.599C94.1352 59.599 93.8752 59.599 93.6486 59.599C93.4219 59.599 93.2552 59.599 93.1486 59.599C92.8752 59.599 92.6151 59.6057 92.3683 59.619C92.1215 59.6257 91.9181 59.6357 91.7579 59.649L91.7707 58.6691ZM105.36 59.459H106.12L106.108 60.4189H105.348L105.36 59.459ZM105.34 60.2889L105.936 60.5589C105.673 60.7856 105.37 61.0022 105.027 61.2089C104.685 61.4089 104.316 61.5955 103.92 61.7688C103.525 61.9355 103.123 62.0855 102.714 62.2188C102.306 62.3454 101.905 62.4521 101.51 62.5388C101.465 62.4521 101.399 62.3521 101.314 62.2388C101.235 62.1255 101.16 62.0355 101.088 61.9688C101.475 61.9021 101.87 61.8122 102.271 61.6988C102.679 61.5855 103.071 61.4588 103.446 61.3189C103.828 61.1722 104.183 61.0122 104.512 60.8389C104.841 60.6589 105.117 60.4756 105.34 60.2889ZM106.19 60.259C106.493 61.0456 106.994 61.6922 107.695 62.1988C108.395 62.6987 109.267 63.0387 110.311 63.2187C110.23 63.2854 110.149 63.3787 110.068 63.4987C109.986 63.6253 109.921 63.732 109.873 63.8186C109.142 63.672 108.495 63.4453 107.932 63.1387C107.376 62.8387 106.901 62.4621 106.507 62.0088C106.113 61.5488 105.797 61.0156 105.558 60.4089L106.19 60.259ZM109.133 60.7589L109.678 61.1589C109.362 61.3789 109.006 61.5922 108.61 61.7988C108.22 62.0055 107.858 62.1788 107.523 62.3188L107.058 61.9488C107.279 61.8421 107.517 61.7222 107.773 61.5888C108.028 61.4488 108.276 61.3089 108.518 61.1689C108.76 61.0222 108.965 60.8856 109.133 60.7589ZM102.463 63.0887C102.797 63.042 103.184 62.9887 103.625 62.9287C104.066 62.8621 104.533 62.7887 105.028 62.7087C105.529 62.6287 106.03 62.5521 106.531 62.4788L106.553 63.0787C105.845 63.192 105.14 63.3054 104.439 63.4187C103.737 63.5387 103.119 63.6387 102.585 63.7187L102.463 63.0887ZM101.283 60.059H110.193L110.184 60.6789H101.274L101.283 60.059ZM106.889 54.9894H107.579L107.535 58.3591H106.845L106.889 54.9894ZM109.183 54.6994H109.873L109.818 58.8691C109.816 59.0624 109.787 59.209 109.732 59.309C109.684 59.409 109.587 59.4857 109.439 59.539C109.299 59.5923 109.108 59.6257 108.868 59.639C108.635 59.6457 108.341 59.649 107.988 59.649C107.976 59.5557 107.947 59.4524 107.902 59.339C107.857 59.219 107.808 59.1124 107.756 59.0191C108.029 59.0257 108.276 59.0324 108.496 59.0391C108.716 59.0391 108.863 59.0357 108.936 59.0291C109.009 59.0291 109.059 59.0191 109.086 58.9991C109.113 58.9724 109.127 58.9291 109.128 58.8691L109.183 54.6994ZM103.564 54.5994H104.234L104.168 59.679H103.498L103.564 54.5994ZM105.406 57.5292H106.036L106.02 58.7591C106.018 58.8991 106 59.0091 105.965 59.0891C105.931 59.1624 105.86 59.219 105.753 59.259C105.652 59.3057 105.525 59.3324 105.372 59.339C105.219 59.3457 105.028 59.349 104.802 59.349C104.789 59.2757 104.764 59.1957 104.725 59.109C104.686 59.0224 104.647 58.9424 104.608 58.8691C104.775 58.8757 104.915 58.8791 105.028 58.8791C105.148 58.8791 105.231 58.8757 105.278 58.8691C105.351 58.8691 105.389 58.8324 105.39 58.7591L105.406 57.5292ZM101.776 57.5292H105.696L105.689 58.0391H102.369L102.351 59.409H101.751L101.776 57.5292ZM101.29 56.4593H106.34L106.333 56.9992H101.283L101.29 56.4593ZM102.345 55.3094H106.005L105.998 55.8393H102.128L102.345 55.3094ZM102.264 54.6294L102.852 54.7694C102.741 55.0761 102.607 55.3794 102.45 55.6793C102.299 55.9793 102.143 56.236 101.98 56.4493C101.92 56.4026 101.834 56.3526 101.722 56.2993C101.609 56.2393 101.513 56.1893 101.434 56.1493C101.616 55.9493 101.776 55.716 101.913 55.4494C102.056 55.1761 102.173 54.9027 102.264 54.6294ZM103.511 61.7088L103.906 61.3189L104.245 61.4289L104.219 63.3487H103.489L103.511 61.7088ZM115.652 56.2693H120.402L120.393 56.9892H115.293L115.652 56.2693ZM116.874 58.4391H120.144L120.135 59.129H116.865L116.874 58.4391ZM116.845 60.6489H120.245L120.236 61.3589H116.836L116.845 60.6489ZM116.529 56.5093H117.289L117.194 63.7886H116.434L116.529 56.5093ZM116.062 54.7194L116.78 54.9094C116.586 55.436 116.36 55.956 116.1 56.4693C115.846 56.9759 115.573 57.4525 115.281 57.8992C114.988 58.3458 114.686 58.7424 114.375 59.0891C114.336 59.0491 114.28 58.9957 114.207 58.9291C114.142 58.8624 114.069 58.7957 113.99 58.7291C113.917 58.6624 113.855 58.6124 113.802 58.5791C114.106 58.2658 114.397 57.9025 114.676 57.4892C114.955 57.0759 115.211 56.6326 115.444 56.1593C115.683 55.686 115.889 55.206 116.062 54.7194ZM113.653 54.6394L114.371 54.8594C114.15 55.4194 113.889 55.9793 113.589 56.5393C113.288 57.0926 112.965 57.6125 112.618 58.0991C112.272 58.5791 111.913 59.0091 111.541 59.389C111.515 59.329 111.476 59.2524 111.424 59.159C111.372 59.0591 111.317 58.9591 111.258 58.8591C111.206 58.7591 111.157 58.6824 111.111 58.6291C111.449 58.3025 111.774 57.9258 112.086 57.4992C112.398 57.0726 112.688 56.6159 112.954 56.1293C113.227 55.636 113.46 55.1394 113.653 54.6394ZM112.56 57.2092L113.31 56.4593L113.319 56.4793L113.224 63.7786H112.474L112.56 57.2092Z" fill="black"/>
<path d="M244.494 57.727L244.399 64.9991H243.518L243.601 58.6503H243.558L241.767 59.8291L241.779 58.9343L243.613 57.727H244.494ZM246.49 64.9991L246.499 64.36L248.934 61.7324C249.219 61.4246 249.455 61.1571 249.64 60.9299C249.825 60.7003 249.963 60.4849 250.053 60.2836C250.146 60.0801 250.194 59.867 250.197 59.6445C250.2 59.3888 250.141 59.1675 250.021 58.9805C249.902 58.7935 249.739 58.6491 249.529 58.5473C249.32 58.4455 249.084 58.3946 248.821 58.3946C248.542 58.3946 248.297 58.4526 248.087 58.5686C247.88 58.6822 247.718 58.842 247.602 59.0479C247.488 59.2539 247.429 59.4954 247.425 59.7723H246.587C246.593 59.3462 246.696 58.9722 246.896 58.6503C247.097 58.3283 247.368 58.0774 247.709 57.8975C248.052 57.7176 248.436 57.6276 248.859 57.6276C249.286 57.6276 249.662 57.7176 249.989 57.8975C250.315 58.0774 250.57 58.32 250.753 58.6254C250.936 58.9308 251.025 59.2705 251.021 59.6445C251.017 59.912 250.965 60.1736 250.865 60.4292C250.767 60.6825 250.597 60.9654 250.356 61.2779C250.118 61.588 249.788 61.9667 249.365 62.4141L247.709 64.1611L247.708 64.218H251.089L251.078 64.9991H246.49Z" fill="black"/>
<g filter="url(#filter3_d_21_3)">
<rect width="182.004" height="30.8008" rx="3" transform="matrix(1 0 -0.0130896 0.999914 6.4032 85.1976)" fill="white"/>
</g>
<g filter="url(#filter4_d_21_3)">
<rect width="93.8023" height="30.8008" rx="3" transform="matrix(1 0 -0.0130896 0.999914 192.608 85.1976)" fill="white"/>
</g>
<rect x="0.246728" y="0.249979" width="51.3013" height="21.9005" rx="2.75" transform="matrix(1 0 -0.0130896 0.999914 213.556 89.3974)" fill="white" stroke="#5AC5FF" stroke-width="0.5"/>
<g filter="url(#filter5_d_21_3)">
<rect width="176.404" height="30.8008" rx="3" transform="matrix(1 0 -0.0130896 0.999914 293.41 85.1976)" fill="white"/>
</g>
<path d="M27.8276 94.807C27.8252 94.9869 27.8832 95.1403 28.0016 95.2669C28.1267 95.3869 28.2759 95.4469 28.4492 95.4469C28.6292 95.4469 28.7833 95.3869 28.9116 95.2669C29.0399 95.1403 29.1052 94.9869 29.1076 94.807C29.11 94.627 29.0486 94.477 28.9235 94.357C28.7985 94.2303 28.646 94.167 28.466 94.167C28.2926 94.167 28.1418 94.2303 28.0135 94.357C27.8919 94.477 27.83 94.627 27.8276 94.807ZM27.3676 94.807C27.3702 94.607 27.4226 94.4236 27.5248 94.257C27.627 94.0903 27.7587 93.957 27.92 93.857C28.088 93.757 28.272 93.707 28.472 93.707C28.6787 93.707 28.8647 93.757 29.03 93.857C29.1954 93.957 29.3237 94.0903 29.4148 94.257C29.5126 94.4236 29.5602 94.607 29.5576 94.807C29.555 95.0069 29.5026 95.1903 29.4004 95.3569C29.3049 95.5236 29.1731 95.6569 29.0052 95.7569C28.8373 95.8502 28.65 95.8969 28.4433 95.8969C28.2433 95.8969 28.0606 95.8502 27.8952 95.7569C27.7365 95.6569 27.6082 95.5236 27.5104 95.3569C27.4126 95.1903 27.365 95.0069 27.3676 94.807ZM25.7018 94.487C25.6945 94.5336 25.6836 94.6003 25.6692 94.687C25.6614 94.7736 25.6535 94.8636 25.6456 94.9569C25.6378 95.0503 25.6333 95.1336 25.6324 95.2069C25.6301 95.3802 25.6275 95.5802 25.6245 95.8069C25.6215 96.0335 25.6186 96.2568 25.6157 96.4768C25.6129 96.6968 25.6103 96.8901 25.6082 97.0568C25.6064 97.1901 25.6039 97.3834 25.6006 97.6367C25.5972 97.89 25.5935 98.1767 25.5893 98.4966C25.5851 98.8166 25.5808 99.1466 25.5763 99.4865C25.572 99.8199 25.5677 100.143 25.5636 100.456C25.5595 100.77 25.5559 101.046 25.5528 101.286C25.5496 101.526 25.5473 101.706 25.5457 101.826C25.5422 102.093 25.4729 102.293 25.3379 102.426C25.2028 102.56 24.9819 102.626 24.6752 102.626C24.5352 102.626 24.3786 102.623 24.2054 102.616C24.0388 102.61 23.8723 102.6 23.7058 102.586C23.5393 102.573 23.3894 102.563 23.2562 102.556L23.1966 101.756C23.4161 101.796 23.629 101.826 23.8355 101.846C24.0419 101.866 24.2117 101.876 24.3451 101.876C24.4784 101.876 24.5755 101.846 24.6362 101.786C24.6971 101.72 24.7317 101.623 24.74 101.496C24.7413 101.403 24.7434 101.243 24.7463 101.016C24.7494 100.783 24.7529 100.516 24.7568 100.216C24.7608 99.9098 24.765 99.5899 24.7694 99.2566C24.7738 98.9166 24.778 98.5966 24.7819 98.2967C24.7859 97.99 24.7894 97.7267 24.7923 97.5067C24.7951 97.2867 24.7971 97.1368 24.7982 97.0568C24.7996 96.9434 24.8019 96.7734 24.8048 96.5468C24.8078 96.3202 24.8109 96.0835 24.8141 95.8369C24.8174 95.5836 24.8202 95.3702 24.8225 95.1969C24.8239 95.0903 24.8156 94.9636 24.7975 94.8169C24.7861 94.6703 24.7742 94.5603 24.7618 94.487H25.7018ZM21.1797 96.1768C21.3195 96.1902 21.456 96.2035 21.5891 96.2168C21.7224 96.2235 21.869 96.2268 22.029 96.2268C22.109 96.2268 22.2723 96.2268 22.519 96.2268C22.7657 96.2268 23.0623 96.2268 23.409 96.2268C23.7623 96.2268 24.139 96.2268 24.539 96.2268C24.939 96.2268 25.339 96.2268 25.739 96.2268C26.1457 96.2268 26.5223 96.2268 26.869 96.2268C27.2223 96.2268 27.519 96.2268 27.759 96.2268C28.0057 96.2268 28.1723 96.2268 28.259 96.2268C28.379 96.2268 28.5124 96.2235 28.6591 96.2168C28.8127 96.2035 28.9528 96.1902 29.0797 96.1768L29.0688 97.0068C28.9356 97.0001 28.7956 96.9968 28.6489 96.9968C28.509 96.9901 28.3791 96.9868 28.2591 96.9868C28.1724 96.9868 28.0057 96.9868 27.7591 96.9868C27.5191 96.9868 27.2224 96.9868 26.8691 96.9868C26.5224 96.9868 26.1491 96.9868 25.7491 96.9868C25.3491 96.9868 24.9491 96.9868 24.5491 96.9868C24.1491 96.9868 23.7724 96.9868 23.4191 96.9868C23.0657 96.9868 22.7657 96.9868 22.5191 96.9868C22.2791 96.9868 22.1124 96.9868 22.0191 96.9868C21.8724 96.9868 21.7257 96.9901 21.5789 96.9968C21.4389 96.9968 21.3022 97.0034 21.1687 97.0168L21.1797 96.1768ZM23.4489 98.5266C23.3395 98.7399 23.2031 98.9733 23.0397 99.2266C22.8831 99.4799 22.7097 99.7365 22.5197 99.9965C22.3364 100.25 22.1533 100.486 21.9704 100.706C21.7942 100.926 21.6351 101.113 21.493 101.266L20.8091 100.806C20.9777 100.653 21.1535 100.47 21.3363 100.256C21.5191 100.037 21.6988 99.8065 21.8753 99.5665C22.0584 99.3266 22.2249 99.0899 22.3746 98.8566C22.5244 98.6166 22.6507 98.3933 22.7534 98.1867L23.4489 98.5266ZM27.6332 98.1967C27.7645 98.3566 27.9053 98.5466 28.0558 98.7666C28.2129 98.9866 28.3698 99.2232 28.5265 99.4766C28.6899 99.7232 28.8401 99.9632 28.9771 100.196C29.1141 100.423 29.2314 100.626 29.3291 100.806L28.5837 101.216C28.493 101.016 28.3792 100.796 28.2423 100.556C28.1121 100.316 27.972 100.073 27.8219 99.8265C27.6718 99.5799 27.5182 99.3466 27.3611 99.1266C27.2106 98.9066 27.0731 98.7166 26.9485 98.5566L27.6332 98.1967ZM35.0863 96.4368C35.1316 96.5368 35.1897 96.6868 35.2604 96.8868C35.3312 97.0801 35.4051 97.2867 35.4823 97.5067C35.566 97.7267 35.64 97.9367 35.704 98.1367C35.7682 98.33 35.8161 98.4833 35.848 98.5966L35.1046 98.8566C35.0794 98.7433 35.0347 98.59 34.9706 98.3966C34.9131 98.2033 34.8458 97.9967 34.7687 97.7767C34.6917 97.55 34.6144 97.3401 34.537 97.1468C34.4595 96.9534 34.3982 96.8001 34.353 96.6868L35.0863 96.4368ZM38.6989 96.9968C38.6643 97.0968 38.6331 97.1901 38.6053 97.2767C38.5842 97.3567 38.5633 97.4301 38.5424 97.4967C38.4019 98.0433 38.2149 98.58 37.9813 99.1066C37.7478 99.6265 37.4481 100.113 37.0822 100.566C36.6145 101.153 36.0881 101.643 35.503 102.036C34.9245 102.43 34.3538 102.733 33.7911 102.946L33.1398 102.276C33.5281 102.156 33.9202 101.996 34.3161 101.796C34.7187 101.596 35.0985 101.356 35.4555 101.076C35.8192 100.796 36.1399 100.486 36.4177 100.146C36.6615 99.8532 36.8792 99.5232 37.0707 99.1566C37.2688 98.7899 37.4339 98.4 37.566 97.9867C37.6981 97.5734 37.7902 97.1534 37.8425 96.7268L38.6989 96.9968ZM32.7597 96.9368C32.8116 97.0501 32.8762 97.2034 32.9537 97.3967C33.0312 97.59 33.1117 97.8034 33.1953 98.0367C33.2857 98.2633 33.3695 98.4833 33.4467 98.6966C33.5306 98.9033 33.5951 99.0699 33.6401 99.1966L32.8765 99.4766C32.8381 99.3499 32.7804 99.1799 32.7032 98.9666C32.6327 98.7466 32.5523 98.52 32.4621 98.2867C32.3718 98.0533 32.2846 97.84 32.2004 97.6467C32.123 97.4534 32.0615 97.3134 32.0159 97.2267L32.7597 96.9368ZM43.5624 101.316C43.5636 101.223 43.5661 101.036 43.5697 100.756C43.5735 100.47 43.5779 100.133 43.5829 99.7465C43.5881 99.3532 43.5935 98.9433 43.599 98.5166C43.6047 98.0833 43.6102 97.6634 43.6155 97.2567C43.6209 96.8501 43.6256 96.4901 43.6297 96.1768C43.6338 95.8635 43.6367 95.6369 43.6386 95.4969C43.6404 95.3569 43.636 95.1869 43.6252 94.9869C43.6145 94.787 43.5968 94.6103 43.5722 94.457H44.5522C44.5369 94.6036 44.518 94.777 44.4954 94.9769C44.4794 95.1769 44.4705 95.3502 44.4686 95.4969C44.4652 95.7569 44.4611 96.0702 44.4563 96.4368C44.4516 96.7968 44.4465 97.1834 44.4411 97.5967C44.4358 98.0033 44.4304 98.41 44.4251 98.8166C44.4265 99.2166 44.4249 99.5932 44.4203 99.9465C44.4158 100.293 44.4119 100.59 44.4087 100.836C44.4055 101.076 44.4034 101.236 44.4024 101.316C44.401 101.423 44.3994 101.546 44.3975 101.686C44.4024 101.826 44.4105 101.97 44.4219 102.116C44.4334 102.256 44.4418 102.383 44.4469 102.496H43.4769C43.5057 102.336 43.5249 102.146 43.5344 101.926C43.5506 101.706 43.5599 101.503 43.5624 101.316ZM44.2779 97.0768C44.6032 97.1767 44.9617 97.2967 45.3532 97.4367C45.7514 97.57 46.1562 97.7134 46.5675 97.8667C46.9789 98.02 47.3668 98.1767 47.7314 98.3366C48.1027 98.49 48.4241 98.6366 48.6956 98.7766L48.3445 99.6265C48.0599 99.4666 47.7387 99.3099 47.3807 99.1566C47.0228 98.9966 46.6548 98.8399 46.2768 98.6866C45.9055 98.5333 45.5439 98.3966 45.1922 98.2767C44.8472 98.15 44.5385 98.0467 44.2662 97.9667L44.2779 97.0768ZM53.15 94.627C53.4095 94.6603 53.7156 94.707 54.0681 94.767C54.4207 94.8269 54.7931 94.8969 55.1854 94.9769C55.5843 95.0569 55.9799 95.1436 56.372 95.2369C56.7708 95.3302 57.1429 95.4236 57.4883 95.5169C57.8338 95.6102 58.1326 95.7002 58.3848 95.7869L58.0547 96.5568C57.8092 96.4701 57.517 96.3801 57.1782 96.2868C56.8395 96.1868 56.4775 96.0902 56.092 95.9968C55.7132 95.9035 55.3244 95.8169 54.9254 95.7369C54.5332 95.6502 54.1575 95.5769 53.7983 95.5169C53.4458 95.4502 53.1298 95.4002 52.8503 95.3669L53.15 94.627ZM52.6654 97.2667C53.0046 97.3267 53.397 97.4001 53.8425 97.4867C54.2881 97.5734 54.7467 97.6734 55.2186 97.7867C55.6972 97.8934 56.1524 98.0067 56.5841 98.1267C57.016 98.24 57.3845 98.3533 57.6897 98.4666L57.3596 99.2366C57.0744 99.1232 56.7193 99.0066 56.2942 98.8866C55.8758 98.7666 55.4306 98.65 54.9588 98.5366C54.4869 98.4233 54.0216 98.3233 53.5627 98.2367C53.1106 98.1433 52.7082 98.07 52.3556 98.0167L52.6654 97.2667ZM52.0773 100.176C52.4166 100.23 52.7924 100.3 53.2046 100.386C53.6235 100.466 54.0556 100.56 54.5009 100.666C54.9463 100.766 55.3849 100.873 55.8167 100.986C56.2486 101.1 56.6537 101.216 57.0321 101.336C57.4106 101.45 57.7358 101.563 58.0077 101.676L57.6576 102.446C57.3924 102.333 57.0706 102.216 56.6922 102.096C56.3138 101.97 55.9054 101.85 55.4669 101.736C55.0351 101.616 54.5932 101.506 54.1412 101.406C53.6959 101.306 53.267 101.216 52.8547 101.136C52.4491 101.056 52.0833 100.99 51.7574 100.936L52.0773 100.176ZM65.4236 101.986C65.4447 101.906 65.4591 101.82 65.467 101.726C65.4817 101.626 65.4896 101.526 65.4909 101.426C65.4918 101.36 65.4937 101.213 65.4967 100.986C65.4997 100.76 65.5033 100.483 65.5076 100.156C65.5119 99.8232 65.5166 99.4632 65.5217 99.0766C65.5268 98.69 65.5318 98.3033 65.5369 97.9167C65.542 97.5234 65.5468 97.1567 65.5513 96.8168C65.5557 96.4768 65.5596 96.1835 65.5628 95.9369C65.566 95.6902 65.5682 95.5236 65.5694 95.4369C65.5719 95.2436 65.5673 95.0836 65.5556 94.9569C65.544 94.8236 65.5352 94.737 65.529 94.697H66.449C66.4485 94.737 66.4407 94.8236 66.4256 94.9569C66.4106 95.0903 66.4018 95.2502 66.3994 95.4369C66.3981 95.5302 66.396 95.6969 66.3928 95.9369C66.3898 96.1702 66.386 96.4568 66.3816 96.7968C66.3772 97.1301 66.3725 97.4901 66.3674 97.8767C66.3624 98.2567 66.3575 98.6333 66.3526 99.0066C66.3477 99.3799 66.3432 99.7265 66.339 100.047C66.3349 100.36 66.3315 100.62 66.3288 100.826C66.3261 101.033 66.3244 101.16 66.3238 101.206C66.6391 101.06 66.9749 100.866 67.3314 100.626C67.6879 100.386 68.0349 100.106 68.3724 99.7865C68.7166 99.4666 69.0178 99.1199 69.276 98.7466L69.7371 99.4266C69.4454 99.8132 69.1039 100.183 68.7126 100.536C68.328 100.89 67.9272 101.206 67.5102 101.486C67.0932 101.766 66.6867 102.003 66.2909 102.196C66.2103 102.243 66.1397 102.286 66.0792 102.326C66.0253 102.366 65.9815 102.4 65.9479 102.426L65.4236 101.986ZM60.8443 101.936C61.2682 101.636 61.6296 101.273 61.9285 100.846C62.2275 100.42 62.4568 99.9632 62.6165 99.4766C62.6928 99.2499 62.7531 98.9666 62.7976 98.6266C62.842 98.2867 62.8768 97.9267 62.9017 97.5467C62.9268 97.1601 62.9417 96.7868 62.9464 96.4268C62.9579 96.0602 62.9654 95.7369 62.9691 95.4569C62.971 95.3102 62.966 95.1803 62.9542 95.0669C62.9424 94.9469 62.9273 94.8336 62.9086 94.727H63.8286C63.8215 94.767 63.814 94.8269 63.8063 94.9069C63.7987 94.9803 63.7909 95.0636 63.783 95.1569C63.7751 95.2502 63.7705 95.3469 63.7692 95.4469C63.7656 95.7269 63.7579 96.0568 63.7463 96.4368C63.7347 96.8101 63.7129 97.2034 63.6808 97.6167C63.6555 98.0233 63.6204 98.41 63.5756 98.7766C63.5375 99.1432 63.4802 99.4499 63.4036 99.6965C63.2499 100.23 63.0134 100.733 62.6938 101.206C62.381 101.68 62.0122 102.093 61.5876 102.446L60.8443 101.936ZM74.8314 98.3366H75.5914L75.5759 99.5165H74.8159L74.8314 98.3366ZM74.7084 99.3266L75.2949 99.5965C75.0518 99.8299 74.7623 100.053 74.4261 100.266C74.0967 100.48 73.7408 100.676 73.3584 100.856C72.9761 101.03 72.5808 101.186 72.1723 101.326C71.7705 101.46 71.3757 101.57 70.9879 101.656C70.9357 101.57 70.8703 101.473 70.7917 101.366C70.7132 101.253 70.6377 101.163 70.5653 101.096C70.9529 101.023 71.3408 100.93 71.7289 100.816C72.1238 100.696 72.5056 100.56 72.8743 100.406C73.2496 100.253 73.5952 100.086 73.9108 99.9065C74.2265 99.7265 74.4924 99.5332 74.7084 99.3266ZM75.6883 99.3366C75.9081 99.8632 76.2153 100.333 76.6098 100.746C77.0045 101.153 77.4733 101.5 78.0162 101.786C78.5591 102.073 79.1597 102.283 79.818 102.416C79.737 102.49 79.6524 102.586 79.5642 102.706C79.4826 102.826 79.4178 102.936 79.3699 103.036C78.6788 102.863 78.0521 102.613 77.4897 102.286C76.9272 101.966 76.4424 101.573 76.0351 101.106C75.628 100.633 75.2984 100.096 75.0462 99.4965L75.6883 99.3366ZM78.601 99.8965L79.1456 100.306C78.9439 100.44 78.7187 100.576 78.4702 100.716C78.2284 100.856 77.9833 100.99 77.735 101.116C77.4934 101.236 77.2654 101.343 77.0508 101.436L76.6055 101.076C76.8202 100.976 77.0484 100.86 77.2901 100.726C77.5385 100.593 77.777 100.453 78.0056 100.306C78.2409 100.16 78.4393 100.023 78.601 99.8965ZM71.7198 102.276C72.0738 102.23 72.4778 102.18 72.9318 102.126C73.3859 102.066 73.8701 102.003 74.3843 101.936C74.9052 101.863 75.4262 101.79 75.9472 101.716L75.9689 102.346C75.4813 102.42 74.987 102.49 74.4862 102.556C73.9919 102.63 73.5177 102.696 73.0635 102.756C72.616 102.823 72.2085 102.883 71.8412 102.936L71.7198 102.276ZM70.7408 99.1466H79.7108L79.7031 99.7365H70.7331L70.7408 99.1466ZM74.1628 95.1769H79.7828L79.7741 95.8369H74.1541L74.1628 95.1769ZM74.4533 97.4267H79.4533L79.4447 98.0867H74.4447L74.4533 97.4267ZM72.9808 93.797H73.6808L73.6192 98.5066H72.9192L72.9808 93.797ZM76.5808 93.797H77.3208L77.2678 97.8467H76.5278L76.5808 93.797ZM70.958 94.777L71.4236 94.347C71.6418 94.487 71.8696 94.6536 72.1071 94.8469C72.3445 95.0403 72.5256 95.2169 72.6501 95.3769L72.1639 95.8569C72.0853 95.7502 71.9768 95.6335 71.8384 95.5069C71.7068 95.3802 71.5618 95.2536 71.4034 95.1269C71.2518 94.9936 71.1034 94.8769 70.958 94.777ZM70.6144 97.3467C70.8824 97.2401 71.1941 97.1101 71.5495 96.9568C71.9116 96.7968 72.2871 96.6268 72.6761 96.4468L72.8179 97.0768C72.4826 97.2234 72.1473 97.3767 71.8119 97.5367C71.4765 97.69 71.1613 97.8367 70.8661 97.9767L70.6144 97.3467ZM72.9293 100.786L73.3447 100.376L73.6633 100.486L73.6375 102.456H72.9075L72.9293 100.786ZM86.7683 94.757L86.7565 95.6569H88.4465L88.4583 94.757H86.7683ZM84.4283 94.757L84.4165 95.6569H86.0665L86.0783 94.757H84.4283ZM82.1483 94.757L82.1365 95.6569H83.7265L83.7383 94.757H82.1483ZM81.4353 94.217H89.2153L89.1893 96.2068H81.4093L81.4353 94.217ZM80.9321 96.7568H89.5821L89.5744 97.3467H80.9244L80.9321 96.7568ZM81.7337 101.976H89.7737L89.7659 102.576H81.7259L81.7337 101.976ZM81.4647 98.0867H82.2247L82.1603 103.006H81.4003L81.4647 98.0867ZM83.9276 99.3866L83.9203 99.9465H87.9903L87.9976 99.3866H83.9276ZM83.9144 100.396L83.9071 100.956H87.9771L87.9844 100.396H83.9144ZM83.9406 98.3966L83.9335 98.9366H88.0035L88.0106 98.3966H83.9406ZM83.2366 97.9367H88.7366L88.6911 101.416H83.1911L83.2366 97.9367ZM85.0412 96.0568L85.7905 96.1168C85.7393 96.4568 85.6779 96.8201 85.6062 97.2067C85.5412 97.5867 85.477 97.91 85.4135 98.1767H84.6835C84.7472 97.89 84.8117 97.55 84.8768 97.1567C84.942 96.7634 84.9968 96.3968 85.0412 96.0568Z" fill="black"/>
<path d="M244.494 96.727L244.399 103.999H243.518L243.601 97.6503H243.559L241.768 98.8291L241.779 97.9343L243.613 96.727H244.494ZM248.861 104.099C248.326 104.099 247.872 103.953 247.5 103.662C247.127 103.368 246.845 102.943 246.654 102.387C246.462 101.828 246.371 101.154 246.382 100.363C246.392 99.5772 246.5 98.9061 246.706 98.3498C246.915 97.7911 247.209 97.365 247.59 97.0715C247.972 96.7756 248.429 96.6276 248.959 96.6276C249.489 96.6276 249.941 96.7756 250.313 97.0715C250.688 97.365 250.971 97.7911 251.163 98.3498C251.357 98.9061 251.449 99.5772 251.439 100.363C251.428 101.154 251.32 101.828 251.114 102.387C250.908 102.943 250.614 103.368 250.234 103.662C249.854 103.953 249.396 104.099 248.861 104.099ZM248.871 103.317C249.402 103.317 249.817 103.062 250.117 102.55C250.418 102.039 250.574 101.31 250.586 100.363C250.594 99.7334 250.534 99.1972 250.405 98.7546C250.278 98.3119 250.091 97.9746 249.843 97.7426C249.597 97.5106 249.299 97.3946 248.949 97.3946C248.423 97.3946 248.009 97.6538 247.707 98.1722C247.404 98.6883 247.246 99.4186 247.234 100.363C247.226 100.993 247.285 101.528 247.412 101.968C247.539 102.408 247.725 102.743 247.97 102.973C248.218 103.203 248.519 103.317 248.871 103.317Z" fill="black"/>
<g filter="url(#filter6_d_21_3)">
<rect width="182.004" height="30.8008" rx="3" transform="matrix(1 0 -0.0130896 0.999914 6.91638 126)" fill="white"/>
</g>
<g filter="url(#filter7_d_21_3)">
<rect width="93.8023" height="30.8008" rx="3" transform="matrix(1 0 -0.0130896 0.999914 193.121 126)" fill="white"/>
</g>
<rect x="0.246728" y="0.249979" width="51.3013" height="21.9005" rx="2.75" transform="matrix(1 0 -0.0130896 0.999914 214.07 130.2)" fill="white" stroke="#5AC5FF" stroke-width="0.5"/>
<g filter="url(#filter8_d_21_3)">
<rect width="176.404" height="30.8008" rx="3" transform="matrix(1 0 -0.0130896 0.999914 293.923 126)" fill="white"/>
</g>
<path d="M24.299 138.419C24.6166 138.606 24.9505 138.812 25.3009 139.039C25.6513 139.266 25.9982 139.502 26.3416 139.749C26.6918 139.989 27.0254 140.226 27.3423 140.459C27.6593 140.692 27.9397 140.912 28.1837 141.119L27.5847 141.809C27.3607 141.602 27.0903 141.376 26.7736 141.129C26.4635 140.876 26.1335 140.622 25.7835 140.369C25.4336 140.109 25.0835 139.859 24.7333 139.619C24.3831 139.379 24.056 139.162 23.7518 138.969L24.299 138.419ZM28.903 136.589C28.8554 136.663 28.8108 136.753 28.7694 136.859C28.7281 136.959 28.6903 137.049 28.6559 137.129C28.5581 137.469 28.42 137.836 28.2415 138.229C28.063 138.622 27.8545 139.019 27.6159 139.419C27.3775 139.812 27.1058 140.192 26.801 140.559C26.3471 141.112 25.7801 141.645 25.1001 142.159C24.4268 142.665 23.6145 143.092 22.6633 143.439L21.9514 142.819C22.574 142.625 23.1404 142.389 23.6507 142.109C24.1678 141.822 24.6319 141.509 25.043 141.169C25.4541 140.829 25.8121 140.479 26.1168 140.119C26.3808 139.812 26.6219 139.476 26.84 139.109C27.0648 138.742 27.2595 138.379 27.4243 138.019C27.5891 137.653 27.7102 137.313 27.7876 136.999H24.0776L24.4069 136.289H27.5869C27.7202 136.289 27.8437 136.283 27.9572 136.269C28.0708 136.249 28.1678 136.223 28.2482 136.189L28.903 136.589ZM25.5518 135.149C25.4634 135.283 25.3783 135.423 25.2963 135.569C25.2144 135.716 25.1462 135.836 25.0916 135.929C24.8868 136.296 24.6215 136.699 24.2958 137.139C23.9768 137.573 23.6011 138.006 23.1688 138.439C22.7431 138.872 22.2611 139.276 21.7229 139.649L21.0597 139.129C21.6377 138.776 22.1395 138.386 22.565 137.959C22.9906 137.533 23.3494 137.116 23.6414 136.709C23.9334 136.303 24.158 135.949 24.3153 135.649C24.3698 135.563 24.4313 135.443 24.5 135.289C24.5688 135.129 24.6173 134.986 24.6456 134.859L25.5518 135.149ZM31.1658 138.669C31.2657 138.676 31.3889 138.686 31.5354 138.699C31.6819 138.706 31.8419 138.712 32.0151 138.719C32.1951 138.719 32.3751 138.719 32.5551 138.719C32.6618 138.719 32.8251 138.719 33.0451 138.719C33.2718 138.719 33.5351 138.719 33.8351 138.719C34.1351 138.719 34.4518 138.719 34.7851 138.719C35.1251 138.719 35.4618 138.719 35.7951 138.719C36.1351 138.719 36.4551 138.719 36.7551 138.719C37.0618 138.719 37.3251 138.719 37.5451 138.719C37.7651 138.719 37.9284 138.719 38.0351 138.719C38.2884 138.719 38.5052 138.712 38.6854 138.699C38.8655 138.686 39.009 138.676 39.1158 138.669L39.1029 139.649C39.003 139.642 38.8531 139.632 38.6533 139.619C38.4602 139.606 38.2536 139.599 38.0336 139.599C37.9269 139.599 37.7602 139.599 37.5336 139.599C37.3069 139.599 37.0436 139.599 36.7436 139.599C36.4502 139.599 36.1336 139.599 35.7936 139.599C35.4536 139.599 35.1136 139.599 34.7736 139.599C34.4402 139.599 34.1236 139.599 33.8236 139.599C33.5302 139.599 33.2702 139.599 33.0436 139.599C32.8169 139.599 32.6502 139.599 32.5436 139.599C32.2702 139.599 32.0102 139.606 31.7633 139.619C31.5166 139.626 31.3131 139.636 31.1529 139.649L31.1658 138.669ZM41.957 135.669C42.1354 135.789 42.3401 135.939 42.5711 136.119C42.8021 136.293 43.0364 136.479 43.2738 136.679C43.5179 136.873 43.7454 137.063 43.9563 137.249C44.1672 137.436 44.3417 137.599 44.4799 137.739L43.8416 138.369C43.7166 138.242 43.5553 138.086 43.3578 137.899C43.1602 137.713 42.9428 137.519 42.7054 137.319C42.4681 137.113 42.2339 136.919 42.003 136.739C41.7721 136.553 41.5641 136.399 41.379 136.279L41.957 135.669ZM41.0093 142.369C41.5971 142.282 42.132 142.162 42.614 142.009C43.1027 141.855 43.5483 141.682 43.9508 141.489C44.3533 141.296 44.7125 141.102 45.0284 140.909C45.5459 140.589 46.024 140.222 46.4628 139.809C46.9016 139.389 47.2873 138.956 47.6198 138.509C47.9523 138.062 48.2179 137.636 48.4166 137.229L48.8854 138.079C48.6534 138.492 48.3679 138.912 48.0289 139.339C47.69 139.766 47.308 140.176 46.8828 140.569C46.4577 140.962 45.9897 141.319 45.4788 141.639C45.1428 141.845 44.7735 142.049 44.3708 142.249C43.9749 142.449 43.5392 142.632 43.0636 142.799C42.5949 142.959 42.0832 143.089 41.5285 143.189L41.0093 142.369ZM51.8379 135.599C51.9777 135.613 52.1209 135.626 52.2674 135.639C52.4205 135.653 52.5771 135.659 52.7371 135.659C52.8571 135.659 53.0504 135.659 53.3171 135.659C53.5904 135.659 53.9004 135.659 54.2471 135.659C54.5938 135.659 54.9404 135.659 55.2871 135.659C55.6338 135.659 55.9404 135.659 56.2071 135.659C56.4804 135.659 56.6738 135.659 56.7871 135.659C56.9271 135.659 57.0805 135.656 57.2472 135.649C57.4207 135.636 57.5776 135.619 57.7179 135.599L57.707 136.429C57.5605 136.416 57.404 136.409 57.2373 136.409C57.0774 136.403 56.9241 136.399 56.7774 136.399C56.6641 136.399 56.4741 136.399 56.2074 136.399C55.9408 136.399 55.6341 136.399 55.2874 136.399C54.9408 136.399 54.5941 136.399 54.2474 136.399C53.9008 136.399 53.5908 136.399 53.3174 136.399C53.0441 136.399 52.8508 136.399 52.7374 136.399C52.5774 136.399 52.4174 136.403 52.2573 136.409C52.0973 136.409 51.9539 136.416 51.827 136.429L51.8379 135.599ZM50.605 138.109C50.7449 138.122 50.8847 138.136 51.0245 138.149C51.1711 138.156 51.321 138.159 51.4744 138.159C51.561 138.159 51.731 138.159 51.9844 138.159C52.2444 138.159 52.5577 138.159 52.9244 138.159C53.2977 138.159 53.6977 138.159 54.1244 138.159C54.551 138.159 54.9777 138.159 55.4044 138.159C55.831 138.159 56.2277 138.159 56.5944 138.159C56.961 138.159 57.271 138.159 57.5244 138.159C57.7844 138.159 57.951 138.159 58.0244 138.159C58.131 138.159 58.2578 138.156 58.4045 138.149C58.5513 138.142 58.6848 138.129 58.805 138.109L58.7942 138.939C58.6876 138.932 58.561 138.929 58.4143 138.929C58.2744 138.922 58.1411 138.919 58.0144 138.919C57.9411 138.919 57.7744 138.919 57.5144 138.919C57.2611 138.919 56.9511 138.919 56.5844 138.919C56.2178 138.919 55.8211 138.919 55.3944 138.919C54.9678 138.919 54.5411 138.919 54.1144 138.919C53.6878 138.919 53.2878 138.919 52.9144 138.919C52.5478 138.919 52.2344 138.919 51.9744 138.919C51.7211 138.919 51.5511 138.919 51.4644 138.919C51.3178 138.919 51.1711 138.919 51.0244 138.919C50.8778 138.919 50.7343 138.926 50.5942 138.939L50.605 138.109ZM55.3097 138.519C55.3015 139.146 55.2472 139.722 55.147 140.249C55.0535 140.769 54.8941 141.236 54.6687 141.649C54.5457 141.875 54.3794 142.102 54.1698 142.329C53.9669 142.549 53.7375 142.759 53.4815 142.959C53.2323 143.159 52.9633 143.332 52.6747 143.479L51.9419 142.929C52.3307 142.769 52.6969 142.552 53.0405 142.279C53.384 142.005 53.6545 141.712 53.852 141.399C54.1105 140.999 54.2763 140.559 54.3492 140.079C54.4223 139.592 54.4624 139.072 54.4697 138.519H55.3097ZM60.6677 138.669C60.7676 138.676 60.8908 138.686 61.0373 138.699C61.1839 138.706 61.3438 138.712 61.517 138.719C61.697 138.719 61.877 138.719 62.057 138.719C62.1637 138.719 62.327 138.719 62.547 138.719C62.7737 138.719 63.037 138.719 63.337 138.719C63.637 138.719 63.9537 138.719 64.287 138.719C64.627 138.719 64.9637 138.719 65.297 138.719C65.637 138.719 65.957 138.719 66.257 138.719C66.5637 138.719 66.827 138.719 67.047 138.719C67.267 138.719 67.4304 138.719 67.537 138.719C67.7904 138.719 68.0071 138.712 68.1873 138.699C68.3675 138.686 68.5109 138.676 68.6177 138.669L68.6049 139.649C68.505 139.642 68.3551 139.632 68.1553 139.619C67.9621 139.606 67.7555 139.599 67.5355 139.599C67.4289 139.599 67.2622 139.599 67.0355 139.599C66.8089 139.599 66.5455 139.599 66.2455 139.599C65.9522 139.599 65.6355 139.599 65.2955 139.599C64.9555 139.599 64.6155 139.599 64.2755 139.599C63.9422 139.599 63.6255 139.599 63.3255 139.599C63.0322 139.599 62.7722 139.599 62.5455 139.599C62.3189 139.599 62.1522 139.599 62.0455 139.599C61.7722 139.599 61.5121 139.606 61.2653 139.619C61.0185 139.626 60.8151 139.636 60.6549 139.649L60.6677 138.669ZM76.6641 134.689C76.7426 134.803 76.8308 134.939 76.9287 135.099C77.0266 135.259 77.1212 135.419 77.2124 135.579C77.3038 135.733 77.3786 135.876 77.4368 136.009L76.8837 136.249C76.8188 136.116 76.7407 135.969 76.6494 135.809C76.5649 135.649 76.4736 135.493 76.3756 135.339C76.2843 135.179 76.1962 135.039 76.1111 134.919L76.6641 134.689ZM77.9475 134.429C78.0327 134.543 78.1242 134.679 78.2221 134.839C78.3201 134.993 78.4147 135.153 78.5058 135.319C78.6038 135.479 78.6852 135.623 78.7502 135.749L78.1971 135.989C78.0865 135.783 77.9595 135.553 77.8161 135.299C77.6728 135.046 77.5322 134.833 77.3945 134.659L77.9475 134.429ZM77.5405 136.489C77.5063 136.556 77.4753 136.633 77.4475 136.719C77.4265 136.799 77.4053 136.889 77.384 136.989C77.3273 137.249 77.2535 137.539 77.1626 137.859C77.0717 138.179 76.9608 138.509 76.8296 138.849C76.7053 139.182 76.5577 139.506 76.3869 139.819C76.2228 140.132 76.0424 140.419 75.8457 140.679C75.534 141.066 75.1859 141.426 74.8016 141.759C74.4239 142.092 73.9933 142.392 73.5098 142.659C73.0329 142.925 72.4866 143.155 71.8707 143.349L71.2006 142.599C71.8493 142.439 72.4119 142.239 72.8884 141.999C73.3716 141.759 73.7951 141.489 74.159 141.189C74.523 140.882 74.8473 140.552 75.132 140.199C75.376 139.892 75.5871 139.549 75.7655 139.169C75.9505 138.782 76.1022 138.396 76.2206 138.009C76.3458 137.616 76.4338 137.259 76.4846 136.939C76.3846 136.939 76.2046 136.939 75.9446 136.939C75.6913 136.939 75.388 136.939 75.0346 136.939C74.6813 136.939 74.3113 136.939 73.9246 136.939C73.538 136.939 73.168 136.939 72.8146 136.939C72.468 136.939 72.1646 136.939 71.9046 136.939C71.6446 136.939 71.4646 136.939 71.3646 136.939C71.1713 136.939 70.9879 136.943 70.8145 136.949C70.6478 136.956 70.501 136.963 70.3743 136.969L70.3859 136.079C70.4791 136.093 70.5789 136.106 70.6854 136.119C70.7986 136.126 70.9152 136.133 71.0351 136.139C71.1617 136.146 71.2783 136.149 71.385 136.149C71.465 136.149 71.605 136.149 71.805 136.149C72.0117 136.149 72.2583 136.149 72.545 136.149C72.8317 136.149 73.135 136.149 73.455 136.149C73.775 136.149 74.095 136.149 74.415 136.149C74.735 136.149 75.0317 136.149 75.305 136.149C75.585 136.149 75.8217 136.149 76.015 136.149C76.2083 136.149 76.335 136.149 76.395 136.149C76.475 136.149 76.5617 136.146 76.6551 136.139C76.7485 136.133 76.842 136.119 76.9356 136.099L77.5405 136.489ZM84.2381 142.789C84.2591 142.709 84.2736 142.622 84.2815 142.529C84.2961 142.429 84.3041 142.329 84.3054 142.229C84.3063 142.162 84.3082 142.015 84.3112 141.789C84.3141 141.562 84.3177 141.286 84.322 140.959C84.3264 140.626 84.3311 140.266 84.3362 139.879C84.3412 139.492 84.3463 139.106 84.3513 138.719C84.3565 138.326 84.3613 137.959 84.3657 137.619C84.3702 137.279 84.374 136.986 84.3773 136.739C84.3805 136.493 84.3827 136.326 84.3838 136.239C84.3863 136.046 84.3818 135.886 84.3701 135.759C84.3585 135.626 84.3496 135.539 84.3435 135.499H85.2635C85.263 135.539 85.2552 135.626 85.2401 135.759C85.225 135.893 85.2163 136.053 85.2138 136.239C85.2126 136.333 85.2104 136.499 85.2073 136.739C85.2042 136.973 85.2005 137.259 85.196 137.599C85.1916 137.932 85.1869 138.292 85.1819 138.679C85.1769 139.059 85.172 139.436 85.1671 139.809C85.1622 140.182 85.1577 140.529 85.1535 140.849C85.1494 141.162 85.146 141.422 85.1433 141.629C85.1405 141.835 85.1389 141.962 85.1383 142.009C85.4535 141.862 85.7894 141.669 86.1459 141.429C86.5023 141.189 86.8493 140.909 87.1869 140.589C87.5311 140.269 87.8323 139.922 88.0905 139.549L88.5516 140.229C88.2599 140.616 87.9183 140.986 87.527 141.339C87.1424 141.692 86.7416 142.009 86.3246 142.289C85.9076 142.569 85.5012 142.805 85.1053 142.999C85.0247 143.045 84.9541 143.089 84.8936 143.129C84.8398 143.169 84.796 143.202 84.7623 143.229L84.2381 142.789ZM79.6587 142.739C80.0827 142.439 80.4441 142.075 80.743 141.649C81.0419 141.222 81.2712 140.766 81.4309 140.279C81.5072 140.052 81.5676 139.769 81.6121 139.429C81.6565 139.089 81.6912 138.729 81.7162 138.349C81.7412 137.962 81.7561 137.589 81.7608 137.229C81.7723 136.863 81.7799 136.539 81.7835 136.259C81.7855 136.113 81.7805 135.983 81.7686 135.869C81.7569 135.749 81.7417 135.636 81.7231 135.529H82.6431C82.6359 135.569 82.6285 135.629 82.6207 135.709C82.6131 135.783 82.6054 135.866 82.5975 135.959C82.5896 136.053 82.585 136.149 82.5837 136.249C82.58 136.529 82.5724 136.859 82.5607 137.239C82.5492 137.613 82.5273 138.006 82.4953 138.419C82.4699 138.826 82.4349 139.212 82.3901 139.579C82.352 139.946 82.2946 140.252 82.218 140.499C82.0644 141.032 81.8278 141.536 81.5083 142.009C81.1954 142.482 80.8267 142.895 80.402 143.249L79.6587 142.739ZM94.4607 138.769C94.6509 139.516 94.9222 140.182 95.2745 140.769C95.6336 141.349 96.0905 141.839 96.6453 142.239C97.2068 142.632 97.8729 142.925 98.6437 143.119C98.5897 143.172 98.5288 143.239 98.4611 143.319C98.3934 143.399 98.329 143.482 98.2679 143.569C98.2133 143.662 98.1655 143.745 98.1246 143.819C97.3143 143.585 96.622 143.249 96.0478 142.809C95.4802 142.369 95.0073 141.825 94.6291 141.179C94.2577 140.526 93.9608 139.776 93.7386 138.929L94.4607 138.769ZM89.9645 138.479H98.1945L98.1844 139.249H89.9544L89.9645 138.479ZM89.6952 135.369H98.4852L98.4751 136.139H89.6851L89.6952 135.369ZM93.6224 135.579H94.4224L94.3918 137.919C94.3863 138.339 94.3507 138.769 94.2849 139.209C94.2259 139.642 94.1103 140.076 93.9379 140.509C93.7657 140.936 93.5136 141.349 93.1817 141.749C92.8498 142.149 92.4115 142.525 91.8669 142.879C91.3289 143.232 90.6582 143.545 89.8546 143.819C89.8287 143.759 89.7897 143.685 89.7375 143.599C89.6852 143.519 89.6262 143.439 89.5606 143.359C89.5017 143.279 89.4492 143.215 89.4031 143.169C90.1532 142.909 90.7803 142.622 91.2844 142.309C91.7885 141.989 92.1929 141.652 92.4976 141.299C92.8023 140.939 93.0338 140.569 93.1921 140.189C93.3504 139.809 93.4554 139.426 93.5072 139.039C93.5589 138.652 93.5871 138.279 93.5918 137.919L93.6224 135.579ZM104.017 135.209H108.547L108.538 135.909H104.008L104.017 135.209ZM104.004 137.789H107.844L107.834 138.479H103.994L104.004 137.789ZM103.647 135.209H104.377L104.341 138.019C104.335 138.446 104.312 138.909 104.272 139.409C104.233 139.902 104.159 140.409 104.052 140.929C103.952 141.442 103.806 141.945 103.613 142.439C103.426 142.925 103.177 143.369 102.865 143.769C102.833 143.722 102.777 143.669 102.697 143.609C102.625 143.555 102.549 143.499 102.47 143.439C102.397 143.385 102.334 143.345 102.281 143.319C102.573 142.932 102.805 142.515 102.977 142.069C103.157 141.622 103.289 141.162 103.376 140.689C103.462 140.216 103.521 139.752 103.554 139.299C103.586 138.846 103.605 138.419 103.611 138.019L103.647 135.209ZM104.997 138.259C105.188 139.012 105.448 139.716 105.78 140.369C106.118 141.022 106.53 141.592 107.017 142.079C107.504 142.559 108.07 142.929 108.713 143.189C108.652 143.242 108.588 143.302 108.52 143.369C108.46 143.442 108.399 143.519 108.337 143.599C108.283 143.679 108.236 143.749 108.195 143.809C107.532 143.502 106.951 143.085 106.451 142.559C105.958 142.025 105.539 141.409 105.195 140.709C104.851 140.002 104.571 139.236 104.355 138.409L104.997 138.259ZM107.684 137.789H107.824L107.954 137.759L108.412 137.919C108.205 138.932 107.897 139.822 107.487 140.589C107.084 141.349 106.602 141.995 106.041 142.529C105.488 143.055 104.886 143.475 104.235 143.789C104.202 143.729 104.16 143.662 104.108 143.589C104.055 143.515 104 143.442 103.94 143.369C103.888 143.302 103.835 143.245 103.783 143.199C104.379 142.939 104.941 142.565 105.467 142.079C105.994 141.586 106.452 140.992 106.841 140.299C107.23 139.599 107.51 138.812 107.682 137.939L107.684 137.789ZM99.5973 136.739H103.107L103.098 137.449H99.588L99.5973 136.739ZM101.125 134.599H101.835L101.715 143.789H101.005L101.125 134.599ZM101.061 137.189L101.529 137.349C101.444 137.749 101.335 138.166 101.203 138.599C101.071 139.026 100.922 139.446 100.756 139.859C100.598 140.272 100.426 140.659 100.241 141.019C100.057 141.372 99.8694 141.672 99.6795 141.919C99.6408 141.819 99.5822 141.705 99.5039 141.579C99.4257 141.446 99.3538 141.336 99.2882 141.249C99.4712 141.022 99.6481 140.752 99.8188 140.439C99.9963 140.126 100.164 139.786 100.322 139.419C100.48 139.052 100.622 138.679 100.747 138.299C100.872 137.919 100.977 137.549 101.061 137.189ZM101.747 138.269C101.806 138.336 101.902 138.452 102.033 138.619C102.17 138.786 102.315 138.966 102.466 139.159C102.616 139.352 102.754 139.532 102.879 139.699C103.003 139.866 103.091 139.986 103.144 140.059L102.676 140.649C102.611 140.522 102.52 140.366 102.402 140.179C102.291 139.992 102.171 139.799 102.04 139.599C101.909 139.399 101.782 139.212 101.657 139.039C101.54 138.859 101.445 138.716 101.373 138.609L101.747 138.269ZM113.662 139.459H114.422L114.409 140.419H113.649L113.662 139.459ZM113.641 140.289L114.237 140.559C113.974 140.786 113.671 141.002 113.329 141.209C112.986 141.409 112.617 141.596 112.221 141.769C111.826 141.935 111.424 142.085 111.016 142.219C110.607 142.345 110.206 142.452 109.811 142.539C109.766 142.452 109.7 142.352 109.615 142.239C109.537 142.125 109.461 142.035 109.389 141.969C109.776 141.902 110.171 141.812 110.572 141.699C110.98 141.586 111.372 141.459 111.747 141.319C112.129 141.172 112.485 141.012 112.814 140.839C113.143 140.659 113.418 140.476 113.641 140.289ZM114.491 140.259C114.794 141.046 115.296 141.692 115.996 142.199C116.696 142.699 117.568 143.039 118.612 143.219C118.532 143.285 118.45 143.379 118.369 143.499C118.287 143.625 118.222 143.732 118.175 143.819C117.443 143.672 116.796 143.445 116.233 143.139C115.677 142.839 115.202 142.462 114.808 142.009C114.414 141.549 114.098 141.016 113.859 140.409L114.491 140.259ZM117.435 140.759L117.979 141.159C117.663 141.379 117.307 141.592 116.911 141.799C116.522 142.005 116.159 142.179 115.824 142.319L115.359 141.949C115.58 141.842 115.819 141.722 116.074 141.589C116.329 141.449 116.577 141.309 116.819 141.169C117.061 141.022 117.266 140.886 117.435 140.759ZM110.764 143.089C111.098 143.042 111.485 142.989 111.926 142.929C112.367 142.862 112.835 142.789 113.329 142.709C113.83 142.629 114.331 142.552 114.832 142.479L114.854 143.079C114.146 143.192 113.441 143.305 112.74 143.419C112.038 143.539 111.42 143.639 110.886 143.719L110.764 143.089ZM109.584 140.059H118.494L118.486 140.679H109.576L109.584 140.059ZM115.19 134.989H115.88L115.836 138.359H115.146L115.19 134.989ZM117.484 134.699H118.174L118.119 138.869C118.117 139.062 118.088 139.209 118.034 139.309C117.986 139.409 117.888 139.486 117.741 139.539C117.6 139.592 117.409 139.626 117.169 139.639C116.936 139.646 116.643 139.649 116.289 139.649C116.277 139.556 116.248 139.452 116.203 139.339C116.158 139.219 116.11 139.112 116.057 139.019C116.331 139.026 116.577 139.032 116.797 139.039C117.017 139.039 117.164 139.036 117.237 139.029C117.311 139.029 117.361 139.019 117.388 138.999C117.415 138.972 117.429 138.929 117.429 138.869L117.484 134.699ZM111.865 134.599H112.535L112.469 139.679H111.799L111.865 134.599ZM113.707 137.529H114.337L114.321 138.759C114.319 138.899 114.301 139.009 114.266 139.089C114.232 139.162 114.161 139.219 114.054 139.259C113.954 139.306 113.827 139.332 113.673 139.339C113.52 139.346 113.33 139.349 113.103 139.349C113.091 139.276 113.065 139.196 113.026 139.109C112.987 139.022 112.948 138.942 112.909 138.869C113.076 138.876 113.216 138.879 113.329 138.879C113.449 138.879 113.533 138.876 113.579 138.869C113.653 138.869 113.69 138.832 113.691 138.759L113.707 137.529ZM110.077 137.529H113.997L113.99 138.039H110.67L110.652 139.409H110.052L110.077 137.529ZM109.591 136.459H114.641L114.634 136.999H109.584L109.591 136.459ZM110.646 135.309H114.306L114.299 135.839H110.429L110.646 135.309ZM110.565 134.629L111.153 134.769C111.042 135.076 110.908 135.379 110.751 135.679C110.601 135.979 110.444 136.236 110.281 136.449C110.222 136.403 110.136 136.353 110.023 136.299C109.91 136.239 109.814 136.189 109.735 136.149C109.918 135.949 110.077 135.716 110.214 135.449C110.358 135.176 110.475 134.903 110.565 134.629ZM111.812 141.709L112.207 141.319L112.546 141.429L112.521 143.349H111.791L111.812 141.709ZM123.953 136.269H128.703L128.694 136.989H123.594L123.953 136.269ZM125.175 138.439H128.445L128.436 139.129H125.166L125.175 138.439ZM125.146 140.649H128.546L128.537 141.359H125.137L125.146 140.649ZM124.83 136.509H125.59L125.495 143.789H124.735L124.83 136.509ZM124.364 134.719L125.081 134.909C124.888 135.436 124.661 135.956 124.401 136.469C124.147 136.976 123.875 137.453 123.582 137.899C123.29 138.346 122.988 138.742 122.676 139.089C122.637 139.049 122.581 138.996 122.509 138.929C122.443 138.862 122.37 138.796 122.291 138.729C122.219 138.662 122.156 138.612 122.103 138.579C122.407 138.266 122.699 137.902 122.977 137.489C123.256 137.076 123.512 136.633 123.745 136.159C123.984 135.686 124.191 135.206 124.364 134.719ZM121.955 134.639L122.672 134.859C122.451 135.419 122.191 135.979 121.89 136.539C121.589 137.093 121.266 137.613 120.919 138.099C120.573 138.579 120.214 139.009 119.843 139.389C119.817 139.329 119.778 139.252 119.726 139.159C119.674 139.059 119.618 138.959 119.56 138.859C119.507 138.759 119.458 138.682 119.413 138.629C119.75 138.302 120.075 137.926 120.387 137.499C120.7 137.073 120.989 136.616 121.255 136.129C121.528 135.636 121.762 135.139 121.955 134.639ZM120.861 137.209L121.611 136.459L121.621 136.479L121.525 143.779H120.775L120.861 137.209Z" fill="black"/>
<path d="M244.494 137.727L244.399 144.999H243.518L243.601 138.65H243.559L241.768 139.829L241.779 138.934L243.613 137.727H244.494ZM246.49 144.999L246.499 144.36L248.934 141.732C249.219 141.425 249.455 141.157 249.64 140.93C249.826 140.7 249.963 140.485 250.054 140.284C250.146 140.08 250.194 139.867 250.197 139.644C250.2 139.389 250.142 139.167 250.021 138.98C249.903 138.793 249.739 138.649 249.529 138.547C249.32 138.445 249.084 138.395 248.821 138.395C248.542 138.395 248.297 138.453 248.087 138.569C247.88 138.682 247.718 138.842 247.602 139.048C247.488 139.254 247.429 139.495 247.425 139.772H246.587C246.593 139.346 246.696 138.972 246.897 138.65C247.097 138.328 247.368 138.077 247.709 137.897C248.052 137.718 248.436 137.628 248.86 137.628C249.286 137.628 249.662 137.718 249.989 137.897C250.316 138.077 250.57 138.32 250.753 138.625C250.937 138.931 251.026 139.27 251.021 139.644C251.017 139.912 250.965 140.174 250.865 140.429C250.767 140.683 250.597 140.965 250.357 141.278C250.118 141.588 249.788 141.967 249.365 142.414L247.709 144.161L247.708 144.218H251.089L251.078 144.999H246.49Z" fill="black"/>
<g filter="url(#filter9_d_21_3)">
<rect width="182.004" height="30.8008" rx="3" transform="matrix(1 0 -0.0130896 0.999914 6.40332 165.198)" fill="white"/>
</g>
<g filter="url(#filter10_d_21_3)">
<rect width="93.8023" height="30.8008" rx="3" transform="matrix(1 0 -0.0130896 0.999914 192.608 165.198)" fill="white"/>
</g>
<rect x="0.246728" y="0.249979" width="51.3013" height="21.9005" rx="2.75" transform="matrix(1 0 -0.0130896 0.999914 213.557 169.397)" fill="white" stroke="#5AC5FF" stroke-width="0.5"/>
<g filter="url(#filter11_d_21_3)">
<rect width="176.404" height="30.8008" rx="3" transform="matrix(1 0 -0.0130896 0.999914 293.41 165.198)" fill="white"/>
</g>
<path d="M27.8498 173.887C27.9283 174 28.0165 174.137 28.1144 174.297C28.2123 174.457 28.3069 174.617 28.3981 174.777C28.4894 174.93 28.5642 175.074 28.6225 175.207L28.0693 175.447C28.0044 175.314 27.9263 175.167 27.8351 175.007C27.7505 174.847 27.6593 174.69 27.5613 174.537C27.47 174.377 27.3819 174.237 27.2968 174.117L27.8498 173.887ZM29.1332 173.627C29.2184 173.74 29.3099 173.877 29.4078 174.037C29.5058 174.19 29.6004 174.35 29.6915 174.517C29.7894 174.677 29.8709 174.82 29.9359 174.947L29.3828 175.187C29.2721 174.98 29.1451 174.75 29.0018 174.497C28.8584 174.244 28.7179 174.03 28.5802 173.857L29.1332 173.627ZM28.7262 175.687C28.692 175.754 28.661 175.83 28.6332 175.917C28.6121 175.997 28.591 176.087 28.5697 176.187C28.5129 176.447 28.4391 176.737 28.3483 177.057C28.2574 177.377 28.1464 177.707 28.0153 178.047C27.891 178.38 27.7434 178.703 27.5726 179.017C27.4085 179.33 27.2281 179.617 27.0314 179.877C26.7196 180.263 26.3716 180.623 25.9872 180.956C25.6095 181.29 25.1789 181.59 24.6954 181.856C24.2186 182.123 23.6723 182.353 23.0564 182.546L22.3862 181.796C23.035 181.636 23.5976 181.436 24.0741 181.196C24.5572 180.956 24.9808 180.686 25.3447 180.386C25.7087 180.08 26.033 179.75 26.3176 179.397C26.5617 179.09 26.7728 178.747 26.9511 178.367C27.1362 177.98 27.2879 177.593 27.4063 177.207C27.5315 176.813 27.6195 176.457 27.6703 176.137C27.5703 176.137 27.3903 176.137 27.1303 176.137C26.877 176.137 26.5736 176.137 26.2203 176.137C25.867 176.137 25.497 176.137 25.1103 176.137C24.7236 176.137 24.3536 176.137 24.0003 176.137C23.6536 176.137 23.3503 176.137 23.0903 176.137C22.8303 176.137 22.6503 176.137 22.5503 176.137C22.357 176.137 22.1736 176.14 22.0002 176.147C21.8334 176.154 21.6867 176.16 21.5599 176.167L21.5716 175.277C21.6647 175.29 21.7646 175.304 21.8711 175.317C21.9843 175.324 22.1009 175.33 22.2208 175.337C22.3474 175.344 22.464 175.347 22.5707 175.347C22.6507 175.347 22.7907 175.347 22.9907 175.347C23.1973 175.347 23.444 175.347 23.7307 175.347C24.0173 175.347 24.3207 175.347 24.6407 175.347C24.9607 175.347 25.2807 175.347 25.6007 175.347C25.9207 175.347 26.2173 175.347 26.4907 175.347C26.7707 175.347 27.0073 175.347 27.2007 175.347C27.394 175.347 27.5207 175.347 27.5807 175.347C27.6607 175.347 27.7474 175.344 27.8408 175.337C27.9342 175.33 28.0277 175.317 28.1213 175.297L28.7262 175.687ZM31.2577 177.867C31.3576 177.873 31.4808 177.883 31.6273 177.897C31.7739 177.903 31.9338 177.91 32.107 177.917C32.287 177.917 32.467 177.917 32.647 177.917C32.7537 177.917 32.917 177.917 33.137 177.917C33.3637 177.917 33.627 177.917 33.927 177.917C34.227 177.917 34.5437 177.917 34.877 177.917C35.217 177.917 35.5537 177.917 35.887 177.917C36.227 177.917 36.547 177.917 36.847 177.917C37.1537 177.917 37.417 177.917 37.637 177.917C37.857 177.917 38.0203 177.917 38.127 177.917C38.3803 177.917 38.5971 177.91 38.7773 177.897C38.9575 177.883 39.1009 177.873 39.2077 177.867L39.1948 178.847C39.0949 178.84 38.9451 178.83 38.7452 178.817C38.5521 178.803 38.3455 178.797 38.1255 178.797C38.0188 178.797 37.8522 178.797 37.6255 178.797C37.3988 178.797 37.1355 178.797 36.8355 178.797C36.5422 178.797 36.2255 178.797 35.8855 178.797C35.5455 178.797 35.2055 178.797 34.8655 178.797C34.5322 178.797 34.2155 178.797 33.9155 178.797C33.6222 178.797 33.3622 178.797 33.1355 178.797C32.9088 178.797 32.7422 178.797 32.6355 178.797C32.3622 178.797 32.1021 178.803 31.8552 178.817C31.6085 178.823 31.405 178.833 31.2448 178.847L31.2577 177.867ZM47.7705 175.507C47.7367 175.547 47.6925 175.614 47.6379 175.707C47.5901 175.794 47.549 175.874 47.5148 175.947C47.3838 176.273 47.2124 176.637 47.0005 177.037C46.7887 177.43 46.5536 177.82 46.2952 178.207C46.0368 178.593 45.7655 178.943 45.4814 179.257C45.1094 179.67 44.7007 180.073 44.2556 180.466C43.8105 180.853 43.3424 181.216 42.8513 181.556C42.3603 181.89 41.8499 182.176 41.3201 182.416L40.6888 181.746C41.2316 181.533 41.7517 181.27 42.2492 180.956C42.7534 180.636 43.2246 180.29 43.6628 179.917C44.1078 179.537 44.5027 179.157 44.8477 178.777C45.0778 178.517 45.3049 178.227 45.5291 177.907C45.76 177.58 45.9644 177.25 46.1421 176.917C46.3265 176.577 46.4605 176.27 46.5441 175.997C46.4908 175.997 46.3641 175.997 46.1641 175.997C45.9641 175.997 45.7274 175.997 45.4541 175.997C45.1808 175.997 44.8941 175.997 44.5941 175.997C44.2941 175.997 44.0074 175.997 43.7341 175.997C43.4608 175.997 43.2241 175.997 43.0241 175.997C42.8308 175.997 42.7041 175.997 42.6441 175.997C42.5308 175.997 42.4007 176 42.254 176.007C42.1139 176.014 41.9838 176.02 41.8637 176.027C41.7503 176.034 41.6735 176.04 41.6334 176.047L41.6454 175.137C41.6919 175.144 41.7751 175.154 41.895 175.167C42.0215 175.174 42.1548 175.18 42.2947 175.187C42.4346 175.194 42.5546 175.197 42.6546 175.197C42.7279 175.197 42.8612 175.197 43.0546 175.197C43.2479 175.197 43.4779 175.197 43.7446 175.197C44.0179 175.197 44.3012 175.197 44.5946 175.197C44.8879 175.197 45.1679 175.197 45.4346 175.197C45.7079 175.197 45.9412 175.197 46.1346 175.197C46.3279 175.197 46.4546 175.197 46.5146 175.197C46.6812 175.197 46.828 175.19 46.9548 175.177C47.0883 175.164 47.1919 175.144 47.2656 175.117L47.7705 175.507ZM45.6184 178.727C45.8887 178.953 46.1655 179.203 46.4485 179.477C46.7383 179.75 47.0213 180.033 47.2974 180.326C47.5737 180.613 47.83 180.89 48.0666 181.156C48.3032 181.416 48.5067 181.653 48.6773 181.866L47.9694 182.466C47.7403 182.146 47.4648 181.803 47.1429 181.436C46.8211 181.063 46.4793 180.693 46.1174 180.326C45.7623 179.953 45.4035 179.61 45.0409 179.297L45.6184 178.727ZM55.0125 176.887H58.2525L58.2434 177.577H55.0034L55.0125 176.887ZM54.9793 179.417H58.2193L58.2103 180.106H54.9703L54.9793 179.417ZM54.6556 174.357H58.6856L58.5797 182.446H57.8297L57.9265 175.047H55.3665L55.2697 182.446H54.5497L54.6556 174.357ZM53.4952 182.026H59.3552L59.3463 182.706H53.4863L53.4952 182.026ZM51.7429 173.797L52.4095 174.057C52.2864 174.297 52.1497 174.55 51.9995 174.817C51.8494 175.084 51.7027 175.34 51.5595 175.587C51.4163 175.827 51.2769 176.04 51.1411 176.227L50.6241 175.997C50.7533 175.804 50.8862 175.58 51.0229 175.327C51.1596 175.067 51.2931 174.804 51.4232 174.537C51.5535 174.264 51.66 174.017 51.7429 173.797ZM52.938 174.937L53.5943 175.217C53.356 175.597 53.0908 175.997 52.7986 176.417C52.5132 176.83 52.2246 177.233 51.9328 177.627C51.6409 178.02 51.3665 178.36 51.1094 178.647L50.6327 178.397C50.829 178.17 51.0323 177.913 51.2428 177.627C51.4532 177.34 51.6604 177.04 51.8645 176.727C52.0753 176.413 52.2727 176.104 52.4567 175.797C52.6407 175.49 52.8012 175.204 52.938 174.937ZM50.1453 175.907L50.5218 175.407C50.7065 175.56 50.8943 175.73 51.0851 175.917C51.276 176.104 51.4503 176.29 51.6078 176.477C51.7655 176.657 51.8867 176.82 51.9714 176.967L51.5638 177.547C51.4726 177.387 51.3482 177.21 51.1907 177.017C51.0399 176.823 50.8725 176.63 50.6883 176.437C50.5042 176.243 50.3232 176.067 50.1453 175.907ZM52.5876 177.257L53.1507 177.017C53.2945 177.237 53.4315 177.47 53.5616 177.717C53.6917 177.963 53.8052 178.203 53.9022 178.437C54.0058 178.67 54.0797 178.88 54.1239 179.067L53.5303 179.347C53.4794 179.16 53.4055 178.947 53.3086 178.707C53.2118 178.467 53.1017 178.22 52.9783 177.967C52.855 177.713 52.7247 177.477 52.5876 177.257ZM50.0944 178.267C50.5412 178.253 51.0781 178.237 51.705 178.217C52.3321 178.19 52.9758 178.16 53.6362 178.127L53.6281 178.747C52.9942 178.787 52.3738 178.823 51.7667 178.857C51.1596 178.89 50.6192 178.92 50.1455 178.947L50.0944 178.267ZM52.8162 179.657L53.3787 179.467C53.5213 179.773 53.6536 180.106 53.7756 180.466C53.9042 180.826 53.9935 181.136 54.0434 181.396L53.4207 181.606C53.3775 181.34 53.2983 181.026 53.183 180.666C53.0678 180.3 52.9455 179.963 52.8162 179.657ZM50.628 179.517L51.2666 179.627C51.1937 180.1 51.0943 180.566 50.9683 181.026C50.8423 181.48 50.6973 181.866 50.5331 182.186C50.4868 182.153 50.4273 182.12 50.3544 182.086C50.2882 182.053 50.2153 182.02 50.1357 181.986C50.0629 181.946 49.9966 181.916 49.9369 181.896C50.1142 181.59 50.2556 181.226 50.3611 180.806C50.4734 180.38 50.5624 179.95 50.628 179.517ZM51.7906 178.557H52.4706L52.4122 183.016H51.7322L51.7906 178.557ZM63.2138 176.017H69.3038L69.2939 176.777H63.2039L63.2138 176.017ZM67.3013 173.917H68.0713L67.966 181.966C67.9622 182.253 67.9161 182.463 67.8277 182.596C67.7393 182.73 67.6014 182.826 67.4139 182.886C67.2198 182.946 66.946 182.983 66.5925 182.996C66.239 183.01 65.7923 183.013 65.2523 183.006C65.2399 182.94 65.2176 182.86 65.1855 182.766C65.1533 182.68 65.1178 182.59 65.079 182.496C65.0402 182.41 65.0012 182.33 64.9622 182.256C65.242 182.27 65.5119 182.276 65.7719 182.276C66.0385 182.283 66.2685 182.283 66.4619 182.276C66.6552 182.276 66.7886 182.276 66.8619 182.276C66.982 182.27 67.0657 182.243 67.1129 182.196C67.1668 182.156 67.1945 182.08 67.196 181.966L67.3013 173.917ZM63.8161 178.137L64.4701 177.827C64.6401 178.087 64.8164 178.367 64.9992 178.667C65.1886 178.967 65.3681 179.257 65.5378 179.537C65.7074 179.817 65.8442 180.06 65.9482 180.266L65.2432 180.646C65.146 180.433 65.016 180.183 64.8531 179.897C64.6968 179.61 64.5274 179.313 64.3447 179.007C64.1621 178.693 63.9859 178.403 63.8161 178.137ZM61.6173 176.517L62.3771 175.767L62.377 175.777L62.2827 182.976H61.5327L61.6173 176.517ZM62.7421 173.857L63.4691 174.087C63.2348 174.667 62.964 175.237 62.6567 175.797C62.3494 176.357 62.0192 176.883 61.666 177.377C61.313 177.863 60.9473 178.297 60.569 178.677C60.5431 178.617 60.5008 178.54 60.442 178.447C60.39 178.347 60.3346 178.25 60.2758 178.157C60.217 178.063 60.1614 177.987 60.1088 177.927C60.4598 177.6 60.7981 177.22 61.1238 176.787C61.4494 176.353 61.7489 175.887 62.0221 175.387C62.302 174.887 62.542 174.377 62.7421 173.857ZM70.8181 174.927H78.7781L78.768 175.697H70.808L70.8181 174.927ZM70.2124 181.476H79.2024L79.1926 182.226H70.2026L70.2124 181.476ZM74.333 175.317H75.163L75.0783 181.786H74.2483L74.333 175.317ZM84.3829 173.797H85.1429L85.0335 182.156C85.0305 182.383 84.9917 182.55 84.9169 182.656C84.8488 182.77 84.7343 182.853 84.5736 182.906C84.4196 182.96 84.2058 182.993 83.9323 183.006C83.6655 183.02 83.3221 183.026 82.9021 183.026C82.8833 182.933 82.8481 182.823 82.7964 182.696C82.7446 182.576 82.6926 182.476 82.6403 182.396C82.8402 182.403 83.0335 182.406 83.2202 182.406C83.4135 182.406 83.5802 182.403 83.7203 182.396C83.867 182.396 83.967 182.396 84.0203 182.396C84.1137 182.39 84.1773 182.37 84.2111 182.336C84.2515 182.303 84.2723 182.243 84.2735 182.156L84.3829 173.797ZM80.4524 174.597H89.1324L89.1243 175.217H80.4443L80.4524 174.597ZM82.1996 176.337L82.1904 177.047H87.3404L87.3496 176.337H82.1996ZM81.4866 175.807H88.1166L88.0934 177.577H81.4634L81.4866 175.807ZM81.1641 178.287H88.2441L88.1966 181.916H87.4366L87.4769 178.837H81.1569L81.1641 178.287ZM80.1978 179.537H89.2678L89.2599 180.136H80.1899L80.1978 179.537ZM81.0401 180.886H87.8401L87.8324 181.476H81.0324L81.0401 180.886Z" fill="black"/>
<path d="M244.494 176.727L244.399 183.999H243.518L243.601 177.65H243.559L241.768 178.829L241.779 177.934L243.613 176.727H244.494ZM248.861 184.099C248.326 184.099 247.872 183.953 247.5 183.662C247.127 183.368 246.845 182.943 246.654 182.387C246.462 181.828 246.371 181.154 246.382 180.363C246.392 179.577 246.5 178.906 246.706 178.35C246.915 177.791 247.209 177.365 247.59 177.071C247.972 176.776 248.429 176.628 248.959 176.628C249.489 176.628 249.941 176.776 250.313 177.071C250.688 177.365 250.972 177.791 251.163 178.35C251.357 178.906 251.449 179.577 251.439 180.363C251.428 181.154 251.32 181.828 251.114 182.387C250.908 182.943 250.615 183.368 250.234 183.662C249.854 183.953 249.396 184.099 248.861 184.099ZM248.872 183.317C249.402 183.317 249.817 183.062 250.117 182.55C250.418 182.039 250.574 181.31 250.586 180.363C250.595 179.733 250.534 179.197 250.405 178.755C250.278 178.312 250.091 177.975 249.843 177.743C249.597 177.511 249.299 177.395 248.949 177.395C248.424 177.395 248.009 177.654 247.707 178.172C247.404 178.688 247.246 179.419 247.234 180.363C247.226 180.993 247.285 181.528 247.412 181.968C247.539 182.408 247.725 182.743 247.971 182.973C248.218 183.203 248.519 183.317 248.872 183.317Z" fill="black"/>
</g>
<defs>
<filter id="filter0_d_21_3" x="4.55212" y="44" width="186.33" height="34.7981" filterUnits="userSpaceOnUse" color-interpolation-filters="sRGB">
<feFlood flood-opacity="0" result="BackgroundImageFix"/>
<feColorMatrix in="SourceAlpha" type="matrix" values="0 0 0 0 0 0 0 0 0 0 0 0 0 0 0 0 0 0 127 0" result="hardAlpha"/>
<feOffset/>
<feGaussianBlur stdDeviation="1"/>
<feComposite in2="hardAlpha" operator="out"/>
<feColorMatrix type="matrix" values="0 0 0 0 0 0 0 0 0 0 0 0 0 0 0 0 0 0 0.25 0"/>
<feBlend mode="normal" in2="BackgroundImageFix" result="effect1_dropShadow_21_3"/>
<feBlend mode="normal" in="SourceGraphic" in2="effect1_dropShadow_21_3" result="shape"/>
</filter>
<filter id="filter1_d_21_3" x="190.757" y="44" width="98.1274" height="34.7981" filterUnits="userSpaceOnUse" color-interpolation-filters="sRGB">
<feFlood flood-opacity="0" result="BackgroundImageFix"/>
<feColorMatrix in="SourceAlpha" type="matrix" values="0 0 0 0 0 0 0 0 0 0 0 0 0 0 0 0 0 0 127 0" result="hardAlpha"/>
<feOffset/>
<feGaussianBlur stdDeviation="1"/>
<feComposite in2="hardAlpha" operator="out"/>
<feColorMatrix type="matrix" values="0 0 0 0 0 0 0 0 0 0 0 0 0 0 0 0 0 0 0.25 0"/>
<feBlend mode="normal" in2="BackgroundImageFix" result="effect1_dropShadow_21_3"/>
<feBlend mode="normal" in="SourceGraphic" in2="effect1_dropShadow_21_3" result="shape"/>
</filter>
<filter id="filter2_d_21_3" x="291.559" y="44" width="180.729" height="34.7981" filterUnits="userSpaceOnUse" color-interpolation-filters="sRGB">
<feFlood flood-opacity="0" result="BackgroundImageFix"/>
<feColorMatrix in="SourceAlpha" type="matrix" values="0 0 0 0 0 0 0 0 0 0 0 0 0 0 0 0 0 0 127 0" result="hardAlpha"/>
<feOffset/>
<feGaussianBlur stdDeviation="1"/>
<feComposite in2="hardAlpha" operator="out"/>
<feColorMatrix type="matrix" values="0 0 0 0 0 0 0 0 0 0 0 0 0 0 0 0 0 0 0.25 0"/>
<feBlend mode="normal" in2="BackgroundImageFix" result="effect1_dropShadow_21_3"/>
<feBlend mode="normal" in="SourceGraphic" in2="effect1_dropShadow_21_3" result="shape"/>
</filter>
<filter id="filter3_d_21_3" x="4.03906" y="83.1976" width="186.33" height="34.7981" filterUnits="userSpaceOnUse" color-interpolation-filters="sRGB">
<feFlood flood-opacity="0" result="BackgroundImageFix"/>
<feColorMatrix in="SourceAlpha" type="matrix" values="0 0 0 0 0 0 0 0 0 0 0 0 0 0 0 0 0 0 127 0" result="hardAlpha"/>
<feOffset/>
<feGaussianBlur stdDeviation="1"/>
<feComposite in2="hardAlpha" operator="out"/>
<feColorMatrix type="matrix" values="0 0 0 0 0 0 0 0 0 0 0 0 0 0 0 0 0 0 0.25 0"/>
<feBlend mode="normal" in2="BackgroundImageFix" result="effect1_dropShadow_21_3"/>
<feBlend mode="normal" in="SourceGraphic" in2="effect1_dropShadow_21_3" result="shape"/>
</filter>
<filter id="filter4_d_21_3" x="190.243" y="83.1976" width="98.1274" height="34.7981" filterUnits="userSpaceOnUse" color-interpolation-filters="sRGB">
<feFlood flood-opacity="0" result="BackgroundImageFix"/>
<feColorMatrix in="SourceAlpha" type="matrix" values="0 0 0 0 0 0 0 0 0 0 0 0 0 0 0 0 0 0 127 0" result="hardAlpha"/>
<feOffset/>
<feGaussianBlur stdDeviation="1"/>
<feComposite in2="hardAlpha" operator="out"/>
<feColorMatrix type="matrix" values="0 0 0 0 0 0 0 0 0 0 0 0 0 0 0 0 0 0 0.25 0"/>
<feBlend mode="normal" in2="BackgroundImageFix" result="effect1_dropShadow_21_3"/>
<feBlend mode="normal" in="SourceGraphic" in2="effect1_dropShadow_21_3" result="shape"/>
</filter>
<filter id="filter5_d_21_3" x="291.046" y="83.1976" width="180.729" height="34.7981" filterUnits="userSpaceOnUse" color-interpolation-filters="sRGB">
<feFlood flood-opacity="0" result="BackgroundImageFix"/>
<feColorMatrix in="SourceAlpha" type="matrix" values="0 0 0 0 0 0 0 0 0 0 0 0 0 0 0 0 0 0 127 0" result="hardAlpha"/>
<feOffset/>
<feGaussianBlur stdDeviation="1"/>
<feComposite in2="hardAlpha" operator="out"/>
<feColorMatrix type="matrix" values="0 0 0 0 0 0 0 0 0 0 0 0 0 0 0 0 0 0 0.25 0"/>
<feBlend mode="normal" in2="BackgroundImageFix" result="effect1_dropShadow_21_3"/>
<feBlend mode="normal" in="SourceGraphic" in2="effect1_dropShadow_21_3" result="shape"/>
</filter>
<filter id="filter6_d_21_3" x="4.55225" y="124" width="186.33" height="34.7981" filterUnits="userSpaceOnUse" color-interpolation-filters="sRGB">
<feFlood flood-opacity="0" result="BackgroundImageFix"/>
<feColorMatrix in="SourceAlpha" type="matrix" values="0 0 0 0 0 0 0 0 0 0 0 0 0 0 0 0 0 0 127 0" result="hardAlpha"/>
<feOffset/>
<feGaussianBlur stdDeviation="1"/>
<feComposite in2="hardAlpha" operator="out"/>
<feColorMatrix type="matrix" values="0 0 0 0 0 0 0 0 0 0 0 0 0 0 0 0 0 0 0.25 0"/>
<feBlend mode="normal" in2="BackgroundImageFix" result="effect1_dropShadow_21_3"/>
<feBlend mode="normal" in="SourceGraphic" in2="effect1_dropShadow_21_3" result="shape"/>
</filter>
<filter id="filter7_d_21_3" x="190.757" y="124" width="98.1274" height="34.7981" filterUnits="userSpaceOnUse" color-interpolation-filters="sRGB">
<feFlood flood-opacity="0" result="BackgroundImageFix"/>
<feColorMatrix in="SourceAlpha" type="matrix" values="0 0 0 0 0 0 0 0 0 0 0 0 0 0 0 0 0 0 127 0" result="hardAlpha"/>
<feOffset/>
<feGaussianBlur stdDeviation="1"/>
<feComposite in2="hardAlpha" operator="out"/>
<feColorMatrix type="matrix" values="0 0 0 0 0 0 0 0 0 0 0 0 0 0 0 0 0 0 0.25 0"/>
<feBlend mode="normal" in2="BackgroundImageFix" result="effect1_dropShadow_21_3"/>
<feBlend mode="normal" in="SourceGraphic" in2="effect1_dropShadow_21_3" result="shape"/>
</filter>
<filter id="filter8_d_21_3" x="291.559" y="124" width="180.729" height="34.7981" filterUnits="userSpaceOnUse" color-interpolation-filters="sRGB">
<feFlood flood-opacity="0" result="BackgroundImageFix"/>
<feColorMatrix in="SourceAlpha" type="matrix" values="0 0 0 0 0 0 0 0 0 0 0 0 0 0 0 0 0 0 127 0" result="hardAlpha"/>
<feOffset/>
<feGaussianBlur stdDeviation="1"/>
<feComposite in2="hardAlpha" operator="out"/>
<feColorMatrix type="matrix" values="0 0 0 0 0 0 0 0 0 0 0 0 0 0 0 0 0 0 0.25 0"/>
<feBlend mode="normal" in2="BackgroundImageFix" result="effect1_dropShadow_21_3"/>
<feBlend mode="normal" in="SourceGraphic" in2="effect1_dropShadow_21_3" result="shape"/>
</filter>
<filter id="filter9_d_21_3" x="4.03918" y="163.198" width="186.33" height="34.7981" filterUnits="userSpaceOnUse" color-interpolation-filters="sRGB">
<feFlood flood-opacity="0" result="BackgroundImageFix"/>
<feColorMatrix in="SourceAlpha" type="matrix" values="0 0 0 0 0 0 0 0 0 0 0 0 0 0 0 0 0 0 127 0" result="hardAlpha"/>
<feOffset/>
<feGaussianBlur stdDeviation="1"/>
<feComposite in2="hardAlpha" operator="out"/>
<feColorMatrix type="matrix" values="0 0 0 0 0 0 0 0 0 0 0 0 0 0 0 0 0 0 0.25 0"/>
<feBlend mode="normal" in2="BackgroundImageFix" result="effect1_dropShadow_21_3"/>
<feBlend mode="normal" in="SourceGraphic" in2="effect1_dropShadow_21_3" result="shape"/>
</filter>
<filter id="filter10_d_21_3" x="190.244" y="163.198" width="98.1274" height="34.7981" filterUnits="userSpaceOnUse" color-interpolation-filters="sRGB">
<feFlood flood-opacity="0" result="BackgroundImageFix"/>
<feColorMatrix in="SourceAlpha" type="matrix" values="0 0 0 0 0 0 0 0 0 0 0 0 0 0 0 0 0 0 127 0" result="hardAlpha"/>
<feOffset/>
<feGaussianBlur stdDeviation="1"/>
<feComposite in2="hardAlpha" operator="out"/>
<feColorMatrix type="matrix" values="0 0 0 0 0 0 0 0 0 0 0 0 0 0 0 0 0 0 0.25 0"/>
<feBlend mode="normal" in2="BackgroundImageFix" result="effect1_dropShadow_21_3"/>
<feBlend mode="normal" in="SourceGraphic" in2="effect1_dropShadow_21_3" result="shape"/>
</filter>
<filter id="filter11_d_21_3" x="291.046" y="163.198" width="180.729" height="34.7981" filterUnits="userSpaceOnUse" color-interpolation-filters="sRGB">
<feFlood flood-opacity="0" result="BackgroundImageFix"/>
<feColorMatrix in="SourceAlpha" type="matrix" values="0 0 0 0 0 0 0 0 0 0 0 0 0 0 0 0 0 0 127 0" result="hardAlpha"/>
<feOffset/>
<feGaussianBlur stdDeviation="1"/>
<feComposite in2="hardAlpha" operator="out"/>
<feColorMatrix type="matrix" values="0 0 0 0 0 0 0 0 0 0 0 0 0 0 0 0 0 0 0.25 0"/>
<feBlend mode="normal" in2="BackgroundImageFix" result="effect1_dropShadow_21_3"/>
<feBlend mode="normal" in="SourceGraphic" in2="effect1_dropShadow_21_3" result="shape"/>
</filter>
<clipPath id="clip0_21_3">
<rect width="296" height="253" fill="white"/>
</clipPath>
</defs>
</svg>
