<?xml version="1.0" encoding="UTF-8"?><svg id="b" xmlns="http://www.w3.org/2000/svg" width="276.263" height="398.034" viewBox="0 0 276.263 398.034"><defs><style>.h{fill:#bdbdbd;}.i{fill:#211715;}.j{fill:#fff;}.k{fill:#79c6e0;}.l{fill:#645d5c;}</style></defs><g id="c"><g id="d"><path class="l" d="M157.145,151.461c18.37.852,36.199-5.478,46.507-17.609,7.748-9.118,2.877-9.779-1.697-18.69-2.805-5.466-3.733-13.822-4.071-20.062-.758-14.008-.777-27.733-3.399-41.655-2.516-13.359-9.227-24.572-18.464-33.05l-8.255-6.425c-11.611-7.633-25.737-11.73-40.133-11.494-31.053-.507-60.854,19.144-66.85,50.97-2.622,13.922-2.641,27.647-3.399,41.655-.338,6.24-1.266,14.596-4.071,20.062-4.574,8.911-9.445,9.572-1.697,18.69,8.611,10.134,19.306,19.498,37.75,18.609l15.481-2.815,52.296,1.815Z"/><path class="j" d="M113.582,48.979c-5.517,7.846-29.287,32.708-37.511,35.998,0,0-.358,1.635-.719,3.275l-.343-.309c-1.639-1.48-4.07-2.195-6.343-1.856s-4.342,1.71-5.382,3.578c-.735,1.31-.972,2.802-1.108,4.257-.497,5.737.633,11.583,3.234,16.811,1.266,2.547,2.917,4.985,5.212,6.841,1.763,1.406,3.921,2.449,6.215,2.801l2.029.312c1.794,6.356,4.854,13.574,10.275,20.063,4.775,5.715,10.125,10.057,15.952,12.715-.053,3.917-.457,5.984-1.123,9.787-.638,3.64-.438,6.894-5.499,8.722-.335.121-2.691.895-3.665,1.228,0,0,2.34,29.778,32.858,29.778s36.361-28.453,36.361-28.453c-.51-.21-6.21-2.43-6.54-2.55-5.06-1.83-4.86-5.08-5.5-8.72-.65-3.719-1.05-5.779-1.12-9.527,13.487-5.486,24.39-23.706,26.275-28.821.281-.854.854-2.461,1.365-4.372l1.063-.163c2.294-.352,4.452-1.395,6.215-2.801,2.295-1.856,3.946-4.294,5.212-6.841,2.6-5.228,3.731-11.074,3.234-16.811-.136-1.455-.373-2.947-1.108-4.257-1.04-1.868-3.109-3.238-5.382-3.578-1.702-.254-3.493.083-4.973.89-.003-1.276-.005-2.363-.005-2.363-7.556-.889-25.765-8.816-36.059-13.708-11.222-5.333-27.111-17.889-32.297-22.133"/><path class="i" d="M183.093,89.64c2.143-1.83,5.788-1.622,7.572.633,1.162,1.469,1.215,3.631,1.266,5.417.055,1.923-.054,3.86-.391,5.754-1.233,6.919-4.904,15.293-12.609,16.616-1.278.22-1.995,1.791-1.676,2.952.372,1.352,1.67,1.896,2.952,1.676,8.004-1.375,12.773-8.877,15.015-16.086,1.177-3.783,1.699-7.841,1.471-11.798-.23-3.993-1.383-7.785-5.068-9.866-3.87-2.185-8.595-1.538-11.925,1.306-.986.842-.866,2.528,0,3.394.977.977,2.405.844,3.394,0h0Z"/><path class="i" d="M177.086,114.473c-.079,2.362-.64,4.661-1.321,6.915-.232.768-.485,1.53-.741,2.29-.085.254-.173.506-.261.758-.147.418-.171.398-.064.167-1.026,2.217-2.211,4.343-3.509,6.412-3.796,6.049-8.435,11.805-14.074,16.234-3.111,2.443-6.591,4.402-10.447,5.289-3.009.692-1.736,5.321,1.276,4.629,7.889-1.814,14.501-7.478,19.718-13.42,4.292-4.889,8.32-10.427,11.027-16.375,1.811-3.979,3.051-8.531,3.197-12.898.103-3.09-4.697-3.086-4.8,0h0Z"/><path class="i" d="M76.706,86.246c-2.826-2.414-6.783-3.366-10.33-2.031-4.05,1.524-6.033,4.887-6.529,9.051-.902,7.574,1.151,16.195,5.712,22.358,2.619,3.539,6.217,6.306,10.64,7.066,1.276.219,2.585-.34,2.952-1.676.317-1.154-.392-2.732-1.676-2.952-7.705-1.324-11.376-9.697-12.609-16.616-.338-1.895-.446-3.831-.391-5.754.05-1.739.1-3.805,1.165-5.269,1.734-2.381,5.475-2.658,7.672-.782.985.841,2.427.967,3.394,0,.862-.862.99-2.549,0-3.394h0Z"/><path class="i" d="M74.841,113.716c2.888,16.659,11.925,32.983,27.372,41.007,4.198,2.181,8.675,3.509,13.376,3.996,1.291.134,2.4-1.199,2.4-2.4,0-1.409-1.105-2.266-2.4-2.4-15.9-1.649-28.284-15.917-33.271-30.243-1.273-3.657-2.188-7.424-2.849-11.237-.222-1.278-1.79-1.996-2.952-1.676-1.351.371-1.898,1.671-1.676,2.952h0Z"/><path class="i" d="M174.324,22.092c8.075,7.457,14.005,16.931,16.843,27.575,1.672,6.271,2.401,12.809,2.936,19.262.561,6.762.798,13.545,1.098,20.323.264,5.96.524,11.938,1.664,17.81.547,2.816,1.325,5.565,2.486,8.192,1.001,2.263,2.359,4.345,3.733,6.395.519.775,1.051,1.547,1.509,2.361.188.333.376.672.521,1.026-.156-.381.171.643.209.842-.101-.528.002.433-.007.618-.004.095-.071.45.004.024-.041.235-.102.467-.171.695-.255.847-.827,1.785-1.437,2.676-2.874,4.194-6.899,7.707-11.157,10.437-10.455,6.702-23.112,9.267-35.41,8.733-3.089-.134-3.082,4.666,0,4.8,11.778.512,23.827-1.746,34.281-7.31,4.81-2.56,9.293-5.895,12.973-9.923,3.06-3.35,6.944-7.949,5.339-12.836-.626-1.907-1.83-3.543-2.931-5.194-1.415-2.123-2.807-4.321-3.685-6.728-1.948-5.34-2.527-11.13-2.839-16.768-.789-14.257-.807-28.635-3.563-42.701-2.537-12.949-9.327-24.766-19.003-33.701-2.267-2.093-5.669,1.293-3.394,3.394h0Z"/><path class="i" d="M89.368,150.061c-8.196.36-16.099-1.414-23.035-5.871-2.954-1.898-5.62-4.183-8.101-6.662-2.627-2.624-5.447-5.465-7.34-8.677-.439-.745-.628-1.145-.84-1.872-.091-.312-.142-.913-.094-1.215-.038.243.14-.485.169-.596.128-.495-.071.036.168-.438.313-.62.663-1.214,1.038-1.799,2.183-3.394,4.39-6.638,5.691-10.501,3.05-9.057,2.865-19.084,3.274-28.518.457-10.547.89-21.26,3.162-31.605,1.661-7.564,4.808-14.683,9.289-21,8.643-12.184,21.993-20.553,36.357-24.25,7.766-1.999,15.806-2.532,23.8-2.075,9.567.547,19.068,3.1,27.582,7.509,2.083,1.079,4.104,2.268,6.068,3.551,2.594,1.694,5.002-2.461,2.423-4.145C152.743,1.298,132.535-2.076,113.539,1.205c-15.701,2.712-30.716,10.666-41.138,22.816-5.331,6.214-9.423,13.388-11.976,21.172-3.246,9.894-3.973,20.649-4.552,30.98-.317,5.656-.504,11.317-.786,16.975-.231,4.64-.565,9.28-1.556,13.83-.444,2.039-.989,4.103-1.83,6.019-.866,1.972-2.048,3.814-3.239,5.601-1.676,2.514-3.611,5.145-3.264,8.337.451,4.145,3.733,7.548,6.376,10.518,2.476,2.782,5.117,5.43,8.03,7.757,6.63,5.296,14.292,8.613,22.76,9.48,2.328.238,4.667.274,7.004.171,3.077-.135,3.094-4.936,0-4.8h0Z"/><path class="i" d="M112.707,50.47c7.909,6.467,16.123,12.689,24.812,18.074,4.394,2.723,8.988,4.956,13.691,7.086,5.36,2.428,10.774,4.753,16.266,6.869,4.925,1.897,10.015,3.861,15.284,4.514,1.288.16,2.4-1.217,2.4-2.4,0-1.43-1.108-2.24-2.4-2.4.608.075-.598-.103-.789-.14-.462-.088-.922-.19-1.38-.298-1.054-.25-2.098-.544-3.134-.857-2.379-.719-4.724-1.548-7.05-2.419-5.137-1.923-10.191-4.065-15.197-6.304-4.68-2.094-9.329-4.222-13.733-6.86-4.836-2.897-9.475-6.124-14.017-9.461-3.862-2.837-7.647-5.764-11.358-8.798-1.003-.82-2.413-.981-3.394,0-.846.846-1.008,2.57,0,3.394h0Z"/><path class="i" d="M111.51,47.768c-.299.424-.609.839-.924,1.252.384-.504-.141.178-.234.295-.223.282-.448.562-.675.84-.963,1.183-1.953,2.343-2.956,3.492-2.487,2.847-5.056,5.622-7.672,8.35-5.414,5.646-11.009,11.196-17.064,16.158-1.332,1.091-2.157,1.75-3.69,2.796-.558.381-1.125.749-1.71,1.089-.276.16-.554.315-.839.459-.195.099-1.074.476-.313.164-1.199.49-2.049,1.596-1.676,2.952.312,1.135,1.745,2.17,2.952,1.676,2.636-1.078,4.905-2.774,7.137-4.516,2.949-2.301,5.741-4.802,8.472-7.354,5.979-5.589,11.704-11.478,17.122-17.612,2.166-2.452,4.324-4.945,6.214-7.619.749-1.059.189-2.669-.861-3.284-1.202-.703-2.533-.2-3.284.861h0Z"/><path class="i" d="M102.69,153.638c-.048,2.426-.279,4.609-.672,6.903-.331,1.934-.524,3.951-1.022,5.85-.044.167-.09.333-.143.497s-.216.582-.047.193c-.165.379-.371.743-.612,1.078.245-.34-.094.088-.183.18-.161.165-.331.327-.513.469.251-.195-.143.083-.229.136-.236.145-.474.281-.721.406-1.363.69-2.937,1.047-4.38,1.537-1.227.417-2.034,1.65-1.676,2.952.329,1.196,1.72,2.095,2.952,1.676,1.887-.641,3.886-1.152,5.656-2.086,2.11-1.113,3.599-2.918,4.35-5.168.648-1.943.793-4.11,1.141-6.12.489-2.822.843-5.638.9-8.503.061-3.09-4.739-3.09-4.8,0h0Z"/><path class="i" d="M148.465,153.727c.08,3.609.714,7.099,1.287,10.651.416,2.578.765,5.087,2.581,7.119,1.608,1.8,3.885,2.546,6.064,3.392,1.665.646,3.337,1.278,4.991,1.952,1.201.489,2.638-.531,2.952-1.676.378-1.374-.471-2.461-1.676-2.952-1.47-.599-2.957-1.161-4.436-1.736-.656-.255-1.311-.512-1.969-.763-.991-.378-1.78-.864-2.373-1.437-.082-.084-.16-.172-.235-.262.14.185.13.165-.03-.061-.139-.218-.261-.441-.377-.672-.073-.155-.065-.131.024.073-.053-.136-.102-.273-.147-.412-.08-.245-.147-.494-.208-.744-.258-1.058-.375-2.145-.551-3.218-.513-3.135-1.025-6.075-1.095-9.254-.068-3.084-4.869-3.095-4.8,0h0Z"/><path class="j" d="M96.913,176.954c5.326,17.568,19.012,62.818,22.126,72.816,2.377,7.634,4.594,15.28,7.288,22.837,7.837-18.815,14.934-37.461,24.7-64.852,4.908-13.767,8.753-27.171,10.56-34.408-1.949-3.596-4.487-7.204-7.654-10.116-6.629,6.719-15.086,12.483-23.174,16.151-.48.218-1.015.483-1.169.987h-4.39c-.155-.503-.69-.769-1.169-.987-8.089-3.668-16.546-9.432-23.174-16.151-2.31,2.123-4.286,4.618-5.935,7.207l.093.262c.329,1.076.993,3.264,1.899,6.253Z"/><path class="h" d="M242.606,235.741s-40.919-46.289-42.881-47.263c-8.695-4.317-27.202-12.66-35.974-17.321,0,0-.617-.328-1.469-.788-1.299,5.937-5.562,21.418-11.256,37.387-4.99,13.996-9.283,25.709-13.335,36.328-3.877,10.162-7.533,19.323-11.365,28.523-2.693-7.557-4.91-15.202-7.287-22.836-3.643-11.7-21.763-71.667-24.025-79.069,0,0-.287-.94-.575-1.88-2.491,1.18-4.983,2.36-4.983,2.36-10.418,4.935-27.564,13.505-36.259,17.822-1.596.792-3.661,2.046-5.136,2.799-1.444.444-7.034,3.706-7.714,4.445-4.467,4.227-6.583,5.848-10.318,15.369-5.721,14.587-15.927,44.388-20.921,58.677-4.744,13.572-9.668,22.538-4.508,32.997,5.159,10.459,16.116,17.258,24.202,22.881,18.642,12.966,47.428,28.786,56.488,32.98,0,0,1.76.815,4.354,2.016,35.19,0,82.425,0,106.555,0-3.183-23.68-7.194-53.365-6.442-58.451.526-3.557,1.063-7.152,1.605-10.762,6.406,10.679,20.312,26.939,34.111,24.915,14.925-2.189,17.583-21.321,18.378-33.269,1.09-16.379,1.922-30.971-1.245-47.859Z"/><path class="i" d="M240.292,236.379c2.003,10.802,2.387,21.759,1.975,32.717-.315,8.354-.553,17.071-2.071,25.098-1.208,6.386-3.248,13.13-8.265,17.352-2.273,1.913-5.477,3.072-8.718,3.096-3.797.027-7.407-1.417-10.619-3.349-7.922-4.765-14.214-12.439-18.981-20.25-1.607-2.633-5.76-.224-4.145,2.423,4.719,7.734,10.76,15.003,18.161,20.298,7.029,5.029,16.044,7.707,24.158,3.58,6.752-3.434,10.284-10.834,12.13-17.832,2.158-8.182,2.456-16.786,2.908-25.19.707-13.144.503-26.24-1.904-39.217-.237-1.275-1.779-1.999-2.952-1.676-1.339.368-1.913,1.673-1.676,2.952h0Z"/><path class="i" d="M145.893,201.142c5.683-5.693,10.089-12.445,14.248-19.288,1.004-1.653,1.999-3.312,3.004-4.965.625-1.028,1.535-2.091,1.179-3.383-.259-.94-.951-1.912-1.438-2.744-1.979-3.381-4.387-6.551-7.255-9.227-.945-.882-2.453-.947-3.394,0-5.695,5.736-12.317,10.531-19.501,14.231-1.564.806-3.827,1.4-4.895,2.874-1.086,1.499-.697,3.352.288,4.793,2.038,2.982,4.486,5.728,6.781,8.512,2.528,3.067,5.083,6.113,7.591,9.197.818,1.006,2.544.85,3.394,0,.995-.995.82-2.385,0-3.394-2.552-3.138-5.153-6.237-7.725-9.359-1.462-1.774-2.922-3.55-4.352-5.351-.459-.579-1.913-2-1.827-2.668l-.328,1.211c-.111.227-.414.194.017.012.288-.121.568-.264.852-.395.503-.233,1.002-.473,1.499-.718,1.079-.532,2.144-1.091,3.196-1.675,2.234-1.238,4.406-2.586,6.513-4.029,4.25-2.911,8.26-6.19,11.891-9.846h-3.394c3.206,2.991,5.673,6.554,7.701,10.426v-2.423c-5.294,8.63-10.226,17.591-17.438,24.815-2.185,2.189,1.208,5.584,3.394,3.394Z"/><path class="i" d="M112.289,197.748c-7.212-7.224-12.144-16.185-17.438-24.815v2.423c2.028-3.872,4.495-7.435,7.701-10.426h-3.394c3.631,3.657,7.641,6.935,11.891,9.846,2.048,1.403,4.158,2.715,6.325,3.925,1.052.587,2.117,1.151,3.196,1.687.497.247.997.489,1.5.724.297.139.595.278.893.413.099.043.195.092.287.148.232.133.19.103-.124-.091l-.328-1.211c.086.668-1.367,2.09-1.827,2.668-1.43,1.8-2.89,3.576-4.352,5.351-2.572,3.122-5.173,6.221-7.725,9.359-.817,1.005-.983,2.411,0,3.394.844.844,2.572,1.011,3.394,0,4.592-5.646,9.429-11.119,13.807-16.936.821-1.091,1.562-2.243,1.524-3.671-.063-2.375-2.27-3.144-4.064-4.017-3.636-1.768-7.127-3.837-10.45-6.14-3.782-2.62-7.312-5.579-10.554-8.844-.936-.943-2.447-.883-3.394,0-2.869,2.676-5.275,5.847-7.255,9.227-.488.832-1.181,1.809-1.438,2.744-.336,1.219.466,2.212,1.062,3.191,1.044,1.716,2.077,3.439,3.12,5.156,4.159,6.843,8.564,13.596,14.248,19.288,2.185,2.189,5.58-1.204,3.394-3.394Z"/><path class="i" d="M162.54,173.229c6.772,3.589,13.756,6.788,20.69,10.047,6.761,3.178,13.666,6.193,20.212,9.802,4.113,2.268,7.632,5.083,10.118,9.124,1.616,2.626,5.769.218,4.145-2.423-2.378-3.866-5.565-6.979-9.391-9.405-3.242-2.055-6.755-3.687-10.208-5.353-7.328-3.535-14.724-6.925-22.063-10.437-3.719-1.779-7.436-3.57-11.079-5.5-2.728-1.445-5.156,2.696-2.423,4.145h0Z"/><path class="h" d="M127.575,269.6c7.352-17.82,14.206-35.914,23.452-61.845,5.794-16.251,10.107-31.997,11.322-37.693,7.721,4.005,18.024,12.953,22.184,18.666-4.379,5.075-10.412,12.239-11.487,13.756.27.183,5.536,3.509,5.763,4.898.154.943-.428,2.209-1.909,4.503-3.134,4.853-25.375,43.017-33.378,54.823l-15.946,2.892Z"/><path class="i" d="M120.53,294.673c-.028-3.427-1.936-6.425-5.257-7.504-3.531-1.148-7.849.016-9.771,3.32-1.502,2.583-1.598,6.11-.04,8.689,1.932,3.196,6.095,4.471,9.614,3.435s5.429-4.424,5.454-7.94c.009-1.256-1.11-2.458-2.4-2.4-1.308.059-2.391,1.054-2.4,2.4-.001.201-.009.401-.026.602-.009.103-.032.211-.033.314.004-.732.07-.441.019-.211-.049.218-.091.435-.153.65-.031.109-.065.218-.102.325-.074.217-.34.617.032-.038-.115.203-.202.42-.323.62-.061.101-.129.197-.192.297-.245.383.395-.445.085-.109-.166.18-.334.349-.511.517-.336.32.49-.318.092-.07-.146.091-.287.187-.439.269-.239.129-.45.08.088-.015-.129.023-.27.101-.396.14-.14.043-.281.081-.424.113l-.148.031c-.259.045-.201.04.175-.013,0,.003-.939.048-1.021.046-.176-.004-.351-.021-.527-.028-.273-.029-.226-.02.14.027-.106-.016-.211-.035-.316-.056-.299-.06-.582-.154-.873-.241-.491-.147.495.259.052.026-.12-.063-.242-.121-.36-.188-.114-.066-.221-.141-.334-.209-.408-.247.429.383.08.068-.214-.193-.411-.391-.605-.603-.309-.337.331.492.087.111-.063-.098-.13-.193-.19-.292-.098-.163-.182-.48-.315-.605.287.271.185.508.078.16-.032-.104-.069-.207-.099-.311-.067-.234-.081-.494-.158-.722.195.578.057.537.044.286-.004-.082-.012-.164-.015-.246-.01-.247-.002-.495.014-.742.009-.132.04-.274.036-.406.016.657-.049.34-.006.108.057-.301.133-.599.23-.889.041-.121.099-.241.135-.363-.191.647-.124.295-.027.109.114-.22.299-.425.398-.648-.216.487-.245.3-.058.091.085-.095.174-.187.266-.275.09-.085.211-.162.291-.255-.316.239-.373.286-.17.141.074-.05.149-.098.225-.144.117-.071.24-.129.359-.196.435-.247-.542.176-.055.018.288-.093.57-.186.867-.248l.155-.031c.262-.043.21-.039-.154.013.073-.06.418-.038.512-.042.183-.008.364-.007.546,0,.119.005.237.012.355.021.274.028.23.019-.131-.028.233-.084.834.171,1.066.246.271.088.38.283-.036-.037.134.103.338.161.487.247.114.066.221.141.333.211.349.218-.453-.404.01.021.091.084.179.171.263.262.424.458-.211-.348.008-.013.155.237.292.474.425.724.215.407-.201-.57-.055-.133.05.152.105.301.148.455.032.115.061.232.087.349.047.216.054.758.014-.047.014.28.047.555.05.836.01,1.255,1.096,2.458,2.4,2.4,1.291-.058,2.411-1.055,2.4-2.4Z"/><path class="i" d="M160.056,169.321c-1.081,5.075-2.529,10.084-3.986,15.061-2.262,7.725-4.739,15.388-7.441,22.97-5.01,14.058-10.123,28.081-15.521,41.995-2.547,6.566-5.162,13.105-7.847,19.616-.494,1.199.535,2.639,1.676,2.952,1.378.379,2.456-.473,2.952-1.676,4.946-11.993,9.637-24.089,14.156-36.249,5.624-15.136,11.258-30.3,15.895-45.772,1.743-5.816,3.479-11.677,4.744-17.62.642-3.013-3.985-4.3-4.629-1.276h0Z"/><path class="i" d="M88.245,169.108c-10.995,5.212-21.874,10.669-32.768,16.087-2.914,1.449-5.74,3.037-8.627,4.533-2.744,1.422-.319,5.566,2.423,4.145,2.578-1.336,5.092-2.776,7.694-4.07,2.508-1.247,5.017-2.495,7.526-3.741,5.771-2.866,11.546-5.725,17.338-8.55,2.939-1.434,5.883-2.859,8.838-4.259,1.171-.555,1.475-2.234.861-3.284-.701-1.199-2.108-1.418-3.284-.861h0Z"/><path class="h" d="M111.262,266.708c-8.003-11.806-30.244-49.969-33.378-54.823-1.48-2.293-2.063-3.56-1.909-4.503.227-1.389,5.493-4.715,5.763-4.898-1.075-1.517-7.108-8.681-11.487-13.756,4.309-5.918,15.21-15.308,23.019-19.077l1.239-.598c.252.823.503,1.647.503,1.647,2.262,7.402,20.381,67.37,24.025,79.069,2.742,8.806,5.271,17.628,8.564,26.31l-16.34-9.371Z"/><path class="i" d="M92.699,171.339c2.831,9.267,5.623,18.546,8.433,27.82,3.979,13.133,7.956,26.267,11.957,39.394,1.252,4.108,2.505,8.217,3.779,12.319,1.797,5.788,3.516,11.6,5.422,17.354,1.838,5.551,4.135,10.96,5.631,16.619,3.778,14.293,1.667,28.931-.123,43.34-.876,7.054-1.79,13.825-2.868,20.904-.764,5.019-1.448,10.127-2.717,15.051-.079.306-.16.611-.254.912-.082.263-.44,1.15-.027.181-.508,1.191-.356,2.572.861,3.284,1.009.59,2.772.338,3.284-.861,1.622-3.799,2.029-8.247,2.692-12.286,1.153-7.032,2.132-14.093,3.059-21.159.873-6.659,1.694-13.327,2.367-20.009.715-7.098,1.039-14.21.138-21.317-.7-5.519-2.031-10.892-3.926-16.122-2.094-5.778-4.099-11.563-5.917-17.436-1.849-5.971-3.685-11.946-5.512-17.923-3.894-12.743-7.754-25.495-11.618-38.247-3.19-10.527-6.371-21.058-9.57-31.582-.153-.504-.307-1.008-.46-1.512-.9-2.946-5.535-1.69-4.629,1.276h0Z"/><path class="i" d="M92.06,167.579c-4.826,2.359-9.208,5.668-13.308,9.108-3.86,3.239-7.577,6.76-10.572,10.83-.658.894-.272,2.158.375,2.908,2.307,2.676,4.597,5.366,6.867,8.074.96,1.146,1.917,2.294,2.862,3.452.346.424.688.852,1.031,1.279.103.128.505.506.055.065.114.111.204.271.297.4l.861-3.284c-1.952,1.294-4.098,2.587-5.673,4.341-2.501,2.786-.624,5.846,1.071,8.521,1.829,2.886,3.549,5.843,5.299,8.777,6.306,10.574,12.578,21.168,18.999,31.672,2.918,4.773,5.831,9.562,8.967,14.197,1.722,2.544,5.882.145,4.145-2.423-6.011-8.882-11.427-18.19-16.938-27.385-5.151-8.594-10.199-17.253-15.423-25.803-.298-.488-.597-.975-.903-1.457-.438-.692-.885-1.379-1.271-2.102-.217-.407-.303-.624-.389-.854-.038-.101-.059-.214-.082-.319-.065-.296-.035.403.029-.023-.043.286-.087.42-.165.679.11-.364-.191.194-.008-.01.224-.25.462-.486.71-.712.573-.522.948-.804,1.485-1.196.839-.613,1.706-1.183,2.572-1.757,1.003-.665,1.653-2.182.861-3.284-3.589-4.994-7.851-9.591-11.862-14.242l.375,2.908c2.554-3.471,6.337-6.934,9.822-9.858,3.794-3.184,7.873-6.176,12.337-8.358,1.164-.569,1.481-2.224.861-3.284-.695-1.188-2.115-1.432-3.284-.861h0Z"/><path class="i" d="M160.301,171.724c4.463,2.181,8.542,5.173,12.337,8.358,3.485,2.924,7.267,6.387,9.822,9.858l.375-2.908c-4.011,4.652-8.273,9.248-11.862,14.242-.787,1.095-.137,2.622.861,3.284.719.477,1.44.948,2.143,1.449.976.694,1.652,1.527,2.689,2.292-.071-.053-.151-.316-.116-.133.059.304-.092-.372-.104-.434-.054-.29-.127.004.008-.128.11-.107.026-.119-.02.077-.142.603-.492,1.177-.907,1.873-.407.683-.848,1.345-1.266,2.021-1.965,3.174-3.858,6.394-5.769,9.601-6.141,10.306-12.259,20.626-18.524,30.856-2.773,4.528-5.544,9.068-8.52,13.466-1.736,2.565,2.421,4.97,4.145,2.423,6.269-9.263,11.906-18.98,17.65-28.572,5.083-8.489,10.023-17.076,15.244-25.481,1.428-2.298,3.87-5.433,2.166-8.191-1.413-2.286-4.208-3.812-6.396-5.262l.861,3.284c.091-.127.182-.296.297-.4-.439.399-.055.072.055-.065.343-.427.685-.855,1.031-1.279.945-1.158,1.902-2.306,2.862-3.452,2.269-2.708,4.559-5.399,6.867-8.074.639-.741,1.028-2.022.375-2.908-2.995-4.07-6.712-7.59-10.572-10.83-4.1-3.441-8.482-6.75-13.308-9.108-1.164-.569-2.595-.316-3.284.861-.617,1.056-.308,2.712.861,3.284h0Z"/><path class="i" d="M202.805,193.112c-.734,9.024-1.944,18.013-3.176,26.98-1.696,12.342-3.542,24.663-5.401,36.981-2.019,13.38-4.068,26.755-6.063,40.138-.33,2.211-.836,4.465-.894,6.705-.036,1.369.045,2.743.132,4.108.277,4.349.754,8.686,1.244,13.016,1.54,13.613,3.413,27.188,5.238,40.765l2.314-3.038c-16.097,0-32.195,0-48.292,0-20.417,0-40.833,0-61.25,0-9.472,0-18.944,0-28.416,0-3.089,0-3.094,4.8,0,4.8,18.211,0,36.422,0,54.633,0,19.829,0,39.658,0,59.487,0,7.946,0,15.892,0,23.838,0,1.726,0,2.517-1.526,2.314-3.038-1.625-12.089-3.272-24.177-4.697-36.292-.551-4.686-1.084-9.378-1.459-14.083-.125-1.565-.236-3.133-.278-4.703-.015-.555-.023-1.111-.005-1.666.008-.231.037-.464.039-.695,0-.065.015-.132.02-.197-.09,1.22.101-.643.134-.864,3.823-25.781,7.922-51.522,11.529-77.334,1.467-10.496,2.95-21.018,3.809-31.584.105-1.294-1.178-2.4-2.4-2.4-1.386,0-2.295,1.103-2.4,2.4h0Z"/><path class="i" d="M43.224,194.209c.744,9.148,1.976,18.258,3.219,27.349,1.663,12.165,3.481,24.309,5.312,36.45,2.018,13.378,4.067,26.752,6.063,40.134.237,1.587.463,3.175.707,4.76.196,1.272.012-.557.033.296.007.286.031.573.037.859.025,1.33-.051,2.664-.136,3.991-.272,4.253-.735,8.496-1.212,12.73-1.49,13.215-3.301,26.394-5.073,39.574-.172,1.283.308,2.576,1.676,2.952,1.117.307,2.778-.383,2.952-1.676,1.629-12.117,3.281-24.232,4.725-36.373.566-4.757,1.111-9.52,1.513-14.294.225-2.672.578-5.477.278-8.158-.742-6.638-1.967-13.258-2.965-19.862-1.029-6.808-2.065-13.616-3.096-20.424-1.885-12.45-3.764-24.901-5.512-37.371-1.441-10.28-2.88-20.587-3.722-30.937-.105-1.292-1.028-2.4-2.4-2.4-1.217,0-2.506,1.101-2.4,2.4h0Z"/><path class="j" d="M152.013,249.451c-37.085,15.51-84.769,35.28-122.788,51.181,11.024,26.361,32.43,77.467,39.785,95.055.002.004.005.005.009.004,48.099-20.017,82.331-34.689,122.672-51.56-7.947-19.003-31.811-75.874-39.675-94.678,0-.002-.002-.002-.004-.002Z"/><path class="i" d="M151.375,247.137c-15.681,6.558-31.373,13.093-47.065,19.626-16.508,6.872-33.018,13.74-49.523,20.619-8.735,3.641-17.469,7.285-26.2,10.936-1.075.449-2.226,1.637-1.676,2.952,5.283,12.632,10.57,25.262,15.857,37.892,5.587,13.345,11.174,26.69,16.76,40.035,2.043,4.881,4.086,9.762,6.128,14.644.437,1.044.796,2.399,1.468,3.3.913,1.221,2.226.991,3.452.481,1.291-.538,2.583-1.075,3.874-1.614,4.695-1.957,9.389-3.917,14.081-5.88,16.889-7.067,33.759-14.18,50.625-21.301,15.671-6.617,31.341-13.236,47.03-19.81,2.047-.858,4.094-1.715,6.141-2.571,1.075-.449,2.226-1.637,1.676-2.952-4.978-11.903-9.969-23.801-14.958-35.7-5.995-14.301-11.992-28.601-17.985-42.902-1.326-3.164-2.651-6.328-3.977-9.492-.551-1.315-1.101-2.629-1.651-3.944-.65-1.553-1.122-3.648-2.784-4.317-1.203-.484-2.637.528-2.952,1.676-.376,1.37.469,2.466,1.676,2.952l.004.002-1.676-1.676c4.875,11.656,9.762,23.307,14.647,34.959,5.942,14.173,11.885,28.345,17.824,42.518,2.402,5.733,4.805,11.466,7.203,17.201l1.676-2.952c-15.272,6.387-30.524,12.819-45.774,19.258-15.628,6.598-31.254,13.198-46.896,19.762-9.995,4.194-19.995,8.375-30.002,12.54h1.276l-.009-.004,1.676,1.676c-4.525-10.82-9.055-21.638-13.585-32.457-5.904-14.102-11.808-28.205-17.711-42.308-2.831-6.763-5.661-13.526-8.489-20.29l-1.676,2.952c15.904-6.651,31.817-13.279,47.731-19.904,16.446-6.846,32.893-13.688,49.336-20.541,8.575-3.574,17.149-7.151,25.72-10.736,1.195-.5,2.051-1.589,1.676-2.952-.31-1.127-1.749-2.18-2.952-1.676Z"/><path class="j" d="M160.591,342.108c-1.299-2.213-3.943-2.746-6.133-3.831-5.058-2.505-10.305-4.552-15.36-7.181-2.504-1.302-4.699-3.863-7.455-4.552-2.603-.651-6.353.016-8.999.28-4.755.475-12.109,1.924-16.724,1.309l-2.113-.433c-5.169,9.445-10.498,18.818-16.275,27.945,4.441,3.145,9.94,8.441,12.356,11.691,2.821,3.794,5.199,8.221,8.774,11.247,3.06,2.591,9.878,2.593,10.382,2.461,3.786-.997,10.842-2.37,12.365-5.742,2.938,1.17,4.907,1.836,6.963.396,2.263-1.584,3.06-3.021,2.419-5.105,1.269,1.305,2.915,2.296,5.702,2.329,3.315.039,7.502-2.544,7.505-6.271.002-3.188-3.737-7.16-5.579-9.671-2.075-2.827-5.408-6.615-7.863-9.996,2.928,2.073,6.961,2.102,10.324,3.348,3.132,1.161,6.088,2.277,8.912-.414,2.074-1.976,2.215-5.4.8-7.81Z"/><path class="i" d="M105.919,330.533c5.045.615,10.23-.529,15.224-1.14,2.597-.317,5.248-.738,7.867-.726s4.316,1.304,6.338,2.817c2.343,1.752,4.993,2.942,7.642,4.157,2.849,1.307,5.73,2.545,8.563,3.888,1.29.611,2.568,1.218,3.883,1.773.88.371,1.876.74,2.581,1.405,1.25,1.18,1.505,3.52.55,4.949-1.632,2.441-4.454,1.309-6.675.5-2.959-1.078-6.298-1.212-9.122-2.631-2.753-1.383-5.186,2.756-2.423,4.145,3.021,1.518,6.338,1.769,9.501,2.836,2.909.982,5.829,2.135,8.871.913,6.261-2.514,6.914-11.443,1.403-15.12-1.153-.769-2.476-1.21-3.737-1.762-1.531-.67-3.018-1.448-4.538-2.143-3.284-1.5-6.607-2.917-9.845-4.516-1.378-.68-2.679-1.393-3.917-2.306-1.14-.841-2.244-1.756-3.503-2.419-2.91-1.532-6.102-1.388-9.278-1.034-3.23.36-6.447.793-9.671,1.199-3.199.402-6.493.807-9.713.415-1.289-.157-2.4,1.215-2.4,2.4,0,1.428,1.107,2.243,2.4,2.4h0Z"/><path class="i" d="M138.938,348.809c2.449,3.267,5.124,6.354,7.581,9.614,1.059,1.405,2.201,2.747,3.203,4.195.749,1.083,1.735,2.528,1.867,3.741.28,2.568-3.044,4.17-5.095,4.163-3.131-.01-4.537-2.168-6.219-4.335-.795-1.025-2.558-.836-3.394,0-1.012,1.012-.798,2.367,0,3.394,1.671,2.153,3.495,4.395,6.385,5.281,3.168.971,6.765.37,9.434-1.591,2.733-2.009,4.326-5.204,3.418-8.601-.864-3.231-3.272-5.841-5.264-8.422-2.557-3.311-5.261-6.515-7.77-9.862-.776-1.036-2.074-1.568-3.284-.861-1.021.597-1.643,2.24-.861,3.284h0Z"/><path class="i" d="M138.432,371.093c.205.681.271.899-.024,1.367-.359.57-1.101,1.157-1.71,1.451-1.392.672-3.334-.402-4.652-.923-.917-.363-2.28.23-2.71,1.103-.301.612-.415.767-1.046,1.243-.379.286-1.314.776-1.927,1.047-1.556.69-3.232,1.137-4.875,1.566-.772.202-1.547.391-2.32.587-.17.043-.35.078-.517.132-.56.182.158-.182.285-.005-.018-.025-.463.024-.499.025-1.222.032-2.546-.082-3.582-.258-1.544-.262-3.145-.615-4.426-1.501-1.403-.971-2.891-2.86-4.005-4.389-2.455-3.37-4.596-6.911-7.457-9.969-3.24-3.461-6.846-6.676-10.753-9.368-1.068-.736-2.664-.199-3.284.861-.696,1.191-.209,2.546.861,3.284,3.616,2.492,6.915,5.535,9.902,8.746,2.954,3.175,5.053,6.962,7.825,10.502,1.365,1.744,2.919,3.57,4.852,4.705,1.666.979,3.611,1.509,5.508,1.805,1.5.234,3.038.419,4.56.381,1.365-.034,2.707-.492,4.02-.831,3.803-.981,9.119-2.273,11.023-6.142l-2.71,1.103c2.976,1.177,6.147,2.054,8.988.027,2.666-1.902,4.306-4.496,3.302-7.826-.89-2.95-5.524-1.693-4.629,1.276h0Z"/><path class="h" d="M41.705,284.102c6.013,3.139,57.827,36.311,64.105,39.924-6.458,11.901-13.102,23.726-20.521,35.124-9.06-4.195-37.845-20.015-56.488-32.98-8.086-5.624-19.043-12.423-24.202-22.881l37.105-19.187Z"/><path class="i" d="M40.493,286.174c2.759,1.448,5.391,3.171,8.04,4.805,4.857,2.996,9.69,6.029,14.521,9.065,10.618,6.674,21.208,13.392,31.832,20.057,3.22,2.02,6.418,4.098,9.712,5.998l-.861-3.284c-6.471,11.919-13.128,23.747-20.521,35.124l3.284-.861c-4.798-2.228-9.46-4.766-14.101-7.3-6.897-3.765-13.72-7.668-20.465-11.698-6.992-4.178-13.916-8.487-20.634-13.094-6.354-4.357-12.939-8.584-18.321-14.155-5.338-5.526-9.204-12.393-7.905-20.285.691-4.203,2.187-8.24,3.654-12.222,1.354-3.675,2.684-7.355,3.971-11.053,4.898-14.078,9.747-28.175,14.839-42.184,1.138-3.132,2.289-6.259,3.472-9.374,1.248-3.284,2.473-6.599,4.167-9.686,1.367-2.491,2.673-4.075,4.752-6.082.464-.448.934-.889,1.403-1.33.246-.232.512-.456.743-.702.267-.284-.473.3.113-.095,1.163-.784,2.362-1.509,3.583-2.199.643-.363,1.292-.719,1.951-1.053.237-.12.478-.232.716-.35.581-.287-.305.088.261-.1,2.917-.971,1.667-5.608-1.276-4.629-2.63.875-5.229,2.511-7.499,4.076-2.121,1.462-4.086,3.497-5.745,5.462-4.465,5.291-6.604,12.179-8.987,18.573-5.391,14.47-10.412,29.077-15.478,43.663-1.025,2.952-2.043,5.907-3.082,8.854-1.616,4.583-3.47,9.092-4.882,13.745-1.164,3.837-2.013,7.914-1.675,11.941.359,4.285,1.927,8.26,4.248,11.857,4.643,7.195,11.547,12.47,18.491,17.293,6.575,4.566,13.216,9.014,20.027,13.222,12.54,7.748,25.37,15.206,38.577,21.767.881.438,1.766.868,2.659,1.283,1.22.567,2.522.312,3.284-.861,7.393-11.377,14.05-23.205,20.521-35.124.616-1.134.292-2.618-.861-3.284-7.735-4.463-15.201-9.445-22.751-14.209-10.579-6.675-21.144-13.375-31.779-19.961-3.155-1.954-6.287-4.029-9.576-5.754-2.733-1.434-5.162,2.707-2.423,4.145h0Z"/><g id="e"><path class="j" d="M179.97,176.193c1.77.291,3.255,1.145,3.9,2.457l74.982,19.585c2.023-2.774,4.467-5.747,7.876-6.159,1.948-.235,3.988.486,5.356,1.893,1.367,1.407,2.03,3.468,1.739,5.408-.284,1.896-1.395,3.554-2.534,5.096-1.067,1.444-2.185,2.851-3.351,4.216,1.697.015,3.452.941,4.448,2.374,1.016,1.462,1.349,3.275,1.2,5.066-.067.81-.234,1.615-.48,2.38-.791,2.46-2.308,4.611-3.804,6.718-1.215,1.713-2.431,3.426-3.646,5.138-1.002,1.412-2.06,2.874-3.581,3.695.926.404,1.93,1.18,2.321,2.062.491,1.108.792,2.477.628,3.678-.202,1.479-1.018,2.996-2.138,3.983-.901.793-5.432,4.668-7.08,5.538s-3.436,1.326-5.178.664c-.531-.202-1.346-.778-1.705-1.217l-69.008-42.397c-1.795-4.387-5.072-11.097-7.956-16.78-1.936-3.815-1.895-9.597,1.589-11.981,1.951-1.335,4.377-1.752,6.422-1.416Z"/><path class="j" d="M174.794,249.649c1.904-13.791,10.643-78.063,12.576-92.057.151-1.092,1.157-1.848,2.249-1.695,11.213,1.575,58.717,8.244,70.622,9.916,1.09.153,1.849,1.155,1.698,2.245-3.688,26.583-9.399,67.73-12.766,91.808-.153,1.092-1.155,1.853-2.247,1.701-12.223-1.696-58.763-8.059-70.43-9.675-1.092-.151-1.853-1.151-1.702-2.243Z"/><path class="i" d="M203.237,204.646c-1.077-.153-2.154-.307-3.231-.46-.518-.074-1.036-.148-1.553-.221-.247-.035-.494-.07-.741-.105-.106-.015-.213-.026-.318-.045-.264-.047-.411-.197.069.086-.326-.192.151.134.165.165-.02-.043-.376-.381-.069-.035.302.34-.038-.231.119.203.16.445.032-.04.005-.078.024.034.057.635.063.245-.011.617-.059.413-.032.231.039-.269.077-.538.115-.807.159-1.131.313-2.263.465-3.395.026-.195.052-.391.078-.586.015-.111-.011-.506.014-.091l-.023.185c.055-.185.042-.174-.04.035-.233.385.052.005.057-.058-.003.036-.389.464-.122.2-.395.389-.344.243-.175.157-.383.145-.456.178-.218.1l.126-.028-.377.059c.191.009.179.002-.038-.022-.299-.146-.086-.013.069.01.249.035.497.071.746.106.55.078,1.1.157,1.649.236,1.063.152,2.129.34,3.196.461.362.041-.159-.035-.203-.111-.002-.003.194.125.22.131l-.291-.213c.126.138.117.121-.025-.051l-.112-.142c.121.218.096.14-.076-.233-.003.027.064.245.066.247-.161-.267-.049-.533-.062-.246.038-.816.003-.01-.026.198-.155,1.1-.309,2.199-.464,3.299-.034.239-.066.478-.101.717-.012.084-.037.181-.043.267-.032.441.249-.444.049-.089-.224.397.307-.363.097-.141-.188.199.479-.298.129-.116.548-.284.364-.139.156-.089-.188.04-.083.025.315-.046-.09.002-.179-.004-.268-.016-1.253-.127-2.454,1.194-2.4,2.4.063,1.409,1.058,2.264,2.4,2.4,1.824.185,3.633-1.158,4.115-2.898.14-.505.17-1.053.243-1.572.09-.639.18-1.279.27-1.918.076-.541.153-1.082.228-1.624.147-1.061.078-2.024-.484-2.964-.494-.826-1.302-1.435-2.205-1.742-.611-.207-1.306-.234-1.942-.324-1.327-.189-2.655-.38-3.982-.569-.856-.122-1.656-.23-2.493.079-.949.35-1.762.979-2.244,1.885-.408.768-.459,1.575-.572,2.418-.013.099-.027.199-.04.298.097-.729.022-.167.002-.02-.043.319-.087.638-.131.957-.078.568-.158,1.136-.239,1.704-.127.891-.279,1.724-.007,2.609.306.994,1.005,1.867,1.921,2.365.756.411,1.558.466,2.39.584,1.511.215,3.021.431,4.532.645.667.095,1.243.113,1.849-.242.498-.291.973-.862,1.103-1.434.258-1.133-.347-2.763-1.676-2.952Z"/><path class="i" d="M260.928,199.448c1.614-2.21,3.977-5.418,7.112-4.987,1.561.215,2.83,1.342,3.278,2.838.504,1.681-.247,3.212-1.153,4.605-4.298,6.605-10.437,12.393-16.78,17.001-1.047.761-1.561,2.086-.861,3.284.605,1.034,2.229,1.627,3.284.861,6.543-4.754,12.302-10.377,17.16-16.846,2.398-3.193,4.298-6.899,2.716-10.919-1.521-3.868-5.486-6.146-9.596-5.521-4.166.633-6.966,4.063-9.304,7.263-.765,1.047-.177,2.676.861,3.284,1.216.711,2.517.189,3.284-.861h0Z"/><path class="i" d="M260.864,236.139c.298.137.587.285.859.469-.256-.174.285.253.294.261.193.218.222.242.086.071.085.126.159.259.221.398-.143-.324.132.449.125.425.209.708.219.799.218,1.51,0,.64.103-.218-.045.379-.024.098-.258.885-.165.644-.356.919-.7,1.291-1.44,1.942-.47.413-.95.816-1.43,1.218-.649.545-1.303,1.084-1.964,1.615-.33.265-.661.527-.995.787.477-.37-.164.121-.251.187-.139.103-.278.206-.418.308-.596.431-1.21.861-1.89,1.152.057-.024-.457.163-.5.177-.18.057-.362.106-.545.149-.304.054-.367.07-.187.047-.269.034-.562.039-.83.01.313.034-.983-.322-.239-.004-1.19-.51-2.573-.355-3.284.861-.591,1.011-.337,2.77.861,3.284,2.619,1.122,5.427.654,7.857-.742,1.391-.799,2.648-1.881,3.893-2.882,1.099-.884,2.182-1.787,3.248-2.711,1.821-1.578,2.988-3.876,3.118-6.288.164-3.053-1.347-6.114-4.173-7.411-1.177-.54-2.584-.335-3.284.861-.605,1.034-.323,2.74.861,3.284h0Z"/><path class="i" d="M268.275,211.097c2.709.322,3.254,3.646,2.775,5.799-.695,3.129-2.854,5.745-4.667,8.305-1.012,1.429-2.013,2.866-3.037,4.285-.688.954-1.504,2.112-2.627,2.582-2.516,1.053-4.488-1.163-4.97-3.429-.643-3.02-5.271-1.742-4.629,1.276.911,4.276,4.718,7.624,9.196,7.126,4.88-.543,7.376-5.413,9.932-9.022,2.643-3.731,5.569-7.539,5.763-12.305.196-4.826-2.895-8.842-7.736-9.417-1.289-.153-2.4,1.213-2.4,2.4,0,1.424,1.107,2.247,2.4,2.4h0Z"/><path class="i" d="M256.11,227.335c.042-.108.086-.215.128-.323.116-.293.04-.015-.044.1.122-.166.186-.422.274-.61.194-.416.4-.827.616-1.232.405-.76.847-1.5,1.305-2.229.935-1.489,1.912-2.952,2.859-4.433.678-1.06.254-2.695-.861-3.284-1.189-.628-2.56-.27-3.284.861-2.054,3.211-4.219,6.304-5.622,9.873-.214.544-.041,1.366.242,1.849.291.498.862.973,1.434,1.103,1.38.314,2.459-.422,2.952-1.676h0Z"/><path class="i" d="M185.942,177.438c-3.195-5.906-12.956-4.34-16.124.703-1.637,2.606-1.796,5.91-1.247,8.859.627,3.37,2.67,6.462,4.162,9.502,1.698,3.461,3.398,6.939,4.866,10.505.493,1.198,1.594,2.05,2.952,1.676,1.133-.311,2.173-1.746,1.676-2.952-1.43-3.474-3.027-6.876-4.668-10.255-.903-1.86-1.822-3.713-2.752-5.56-.695-1.38-1.344-2.65-1.608-4.192-.403-2.352-.04-5.18,2.18-6.429,1.229-.691,2.772-.988,4.172-.76.499.081,1.033.267,1.419.481.428.238.571.372.827.845,1.47,2.718,5.616.297,4.145-2.423h0Z"/><path class="i" d="M177.108,250.287c1.11-8.043,2.204-16.088,3.301-24.133,1.594-11.684,3.187-23.368,4.78-35.052,1.305-9.572,2.61-19.144,3.923-28.715.186-1.355.477-2.739.564-4.104.036-.564.184-.11-.066-.099-.184.008-.683-.03-.329.068.336.093.722.101,1.067.15.775.109,1.55.218,2.325.327,4.623.649,9.247,1.298,13.87,1.947,11.872,1.667,23.744,3.334,35.616,5,4.648.653,9.297,1.305,13.945,1.958.808.113,1.616.227,2.424.34.315.044.631.097.948.133.531.06.292.23.174-.057-.238-.579-.104-.084-.161.331-.466,3.358-.932,6.715-1.398,10.073-2.16,15.563-4.321,31.126-6.485,46.688-1.029,7.401-2.059,14.802-3.091,22.203-.442,3.173-.885,6.345-1.328,9.518-.103.736-.247,1.478-.31,2.218-.004.047-.108.448-.091.462,5.049,4.002.042-.264.145-.269.281-.012.671.013.229-.079-.765-.159-1.566-.217-2.34-.324-10.582-1.461-21.165-2.909-31.748-4.36-10.749-1.474-21.498-2.945-32.246-4.426-.775-.107-1.55-.214-2.324-.321-.35-.048-.702-.09-1.051-.145-.105-.017-.602-.147-.636-.114.325-.324.318,1.187.377.141.176-3.086-4.625-3.076-4.8,0-.124,2.179,1.39,4.135,3.527,4.566.736.148,1.503.208,2.247.31,2.036.281,4.073.561,6.109.841,5.631.774,11.263,1.546,16.895,2.319,12.039,1.651,24.078,3.3,36.116,4.955,2.144.295,4.287.59,6.43.886.768.106,1.536.213,2.304.319,2.24.308,4.439-.433,5.277-2.73.504-1.381.528-3.046.731-4.501.239-1.71.477-3.419.716-5.129.504-3.61,1.007-7.22,1.509-10.83,2.249-16.147,4.492-32.295,6.734-48.443,1.029-7.41,2.057-14.82,3.085-22.23.311-2.243.438-4.515-1.746-5.896-.932-.589-1.983-.663-3.041-.812-1.924-.27-3.849-.54-5.773-.811-11.695-1.642-23.391-3.284-35.086-4.926-5.776-.811-11.552-1.622-17.328-2.433-2.203-.309-4.406-.619-6.609-.928-1.741-.245-3.759-.802-5.51-.668-2.035.156-3.647,1.728-3.963,3.72-.104.655-.181,1.316-.272,1.974-.239,1.736-.476,3.471-.714,5.207-.657,4.796-1.312,9.592-1.966,14.388-1.652,12.107-3.302,24.213-4.953,36.32-1.354,9.927-2.706,19.853-4.067,29.779-.188,1.371-.376,2.743-.566,4.114-.177,1.282.311,2.577,1.676,2.952,1.121.308,2.774-.384,2.952-1.676Z"/><path class="i" d="M241.072,210.037c-1.077-.153-2.154-.307-3.231-.46-.518-.074-1.036-.148-1.553-.221-.247-.035-.494-.07-.741-.105-.106-.015-.213-.026-.318-.045-.264-.047-.411-.197.069.086-.326-.192.151.134.165.165-.02-.043-.376-.381-.069-.035.302.34-.038-.231.119.203.16.445.032-.04.005-.078.024.034.057.635.063.245-.011.617-.059.413-.032.231.039-.269.077-.538.115-.807.159-1.131.313-2.263.465-3.395.026-.195.052-.391.078-.586.015-.111-.011-.506.014-.091l-.023.185c.055-.185.042-.174-.04.035-.233.385.052.005.057-.058-.003.036-.389.464-.122.2-.395.389-.344.243-.175.157-.383.145-.456.178-.218.1l.126-.028-.377.059c.191.009.179.002-.038-.022-.299-.146-.086-.013.069.01.249.035.497.071.746.106.55.078,1.1.157,1.649.236,1.063.152,2.129.34,3.196.461.362.041-.159-.035-.203-.111-.002-.003.194.125.22.131l-.291-.213c.126.138.117.121-.025-.051l-.112-.142c.121.218.096.14-.076-.233-.003.027.064.245.066.247-.161-.267-.049-.533-.062-.246.038-.816.003-.01-.026.198-.155,1.1-.309,2.199-.464,3.299-.034.239-.066.478-.101.717-.012.084-.037.181-.043.267-.032.441.249-.444.049-.089-.224.397.307-.363.097-.141-.188.199.479-.298.129-.116.548-.284.364-.139.156-.089-.188.04-.083.025.315-.046-.09.002-.179-.004-.268-.016-1.253-.127-2.454,1.194-2.4,2.4.063,1.409,1.058,2.264,2.4,2.4,1.824.185,3.633-1.158,4.115-2.898.14-.505.17-1.053.243-1.572.09-.639.18-1.279.27-1.918.076-.541.153-1.082.228-1.624.147-1.061.078-2.024-.484-2.964-.494-.826-1.302-1.435-2.205-1.742-.611-.207-1.306-.234-1.942-.324-1.327-.189-2.655-.38-3.982-.569-.856-.122-1.656-.23-2.493.079-.949.35-1.762.979-2.244,1.885-.408.768-.459,1.575-.572,2.418-.013.099-.027.199-.04.298.097-.729.022-.167.002-.02-.043.319-.087.638-.131.957-.078.568-.158,1.136-.239,1.704-.127.891-.279,1.724-.007,2.609.306.994,1.005,1.867,1.921,2.365.756.411,1.558.466,2.39.584,1.511.215,3.021.431,4.532.645.667.095,1.243.113,1.849-.242.498-.291.973-.862,1.103-1.434.258-1.133-.347-2.763-1.676-2.952Z"/><path class="i" d="M222.327,207.403c-1.077-.153-2.154-.307-3.231-.46-.518-.074-1.036-.148-1.553-.221-.247-.035-.494-.07-.741-.105-.106-.015-.213-.026-.318-.045-.264-.047-.411-.197.069.086-.326-.192.151.134.165.165-.02-.043-.376-.381-.069-.035.302.34-.038-.231.119.203.16.445.032-.04.005-.078.024.034.057.635.063.245-.011.617-.059.413-.032.231.039-.269.077-.538.115-.807.159-1.131.313-2.263.465-3.395.026-.195.052-.391.078-.586.015-.111-.011-.506.014-.091l-.023.185c.055-.185.042-.174-.04.035-.233.385.052.005.057-.058-.003.036-.389.464-.122.2-.395.389-.344.243-.175.157-.383.145-.456.178-.218.1l.126-.028-.377.059c.191.009.179.002-.038-.022-.299-.146-.086-.013.069.01.249.035.497.071.746.106.55.078,1.1.157,1.649.236,1.063.152,2.129.34,3.196.461.362.041-.159-.035-.203-.111-.002-.003.194.125.22.131l-.291-.213c.126.138.117.121-.025-.051l-.112-.142c.121.218.096.14-.076-.233-.003.027.064.245.066.247-.161-.267-.049-.533-.062-.246.038-.816.003-.01-.026.198-.155,1.1-.309,2.199-.464,3.299-.034.239-.066.478-.101.717-.012.084-.037.181-.043.267-.032.441.249-.444.049-.089-.224.397.307-.363.097-.141-.188.199.479-.298.129-.116.548-.284.364-.139.156-.089-.188.04-.083.025.315-.046-.09.002-.179-.004-.268-.016-1.253-.127-2.454,1.194-2.4,2.4.063,1.409,1.058,2.264,2.4,2.4,1.824.185,3.633-1.158,4.115-2.898.14-.505.17-1.053.243-1.572.09-.639.18-1.279.27-1.918.076-.541.153-1.082.228-1.624.147-1.061.078-2.024-.484-2.964-.494-.826-1.302-1.435-2.205-1.742-.611-.207-1.306-.234-1.942-.324-1.327-.189-2.655-.38-3.982-.569-.856-.122-1.656-.23-2.493.079-.949.35-1.762.979-2.244,1.885-.408.768-.459,1.575-.572,2.418-.013.099-.027.199-.04.298.097-.729.022-.167.002-.02-.043.319-.087.638-.131.957-.078.568-.158,1.136-.239,1.704-.127.891-.279,1.724-.007,2.609.306.994,1.005,1.867,1.921,2.365.756.411,1.558.466,2.39.584,1.511.215,3.021.431,4.532.645.667.095,1.243.113,1.849-.242.498-.291.973-.862,1.103-1.434.258-1.133-.347-2.763-1.676-2.952Z"/><path class="i" d="M200.933,221.728c-1.077-.153-2.154-.307-3.231-.46-.518-.074-1.036-.148-1.553-.221-.247-.035-.494-.07-.741-.105-.106-.015-.213-.026-.318-.045-.264-.047-.411-.197.069.086-.326-.192.151.134.165.165-.02-.043-.376-.381-.069-.035.302.34-.038-.231.119.203.16.445.032-.04.005-.078.024.034.057.635.063.245-.011.617-.059.413-.032.231.039-.269.077-.538.115-.807.159-1.131.313-2.263.465-3.395.026-.195.052-.391.078-.586.015-.111-.011-.506.014-.091l-.023.185c.055-.185.042-.174-.04.035-.233.385.052.005.057-.058-.003.036-.389.464-.122.2-.395.389-.344.243-.175.157-.383.145-.456.178-.218.1l.126-.028-.377.059c.191.009.179.002-.038-.022-.299-.146-.086-.013.069.01.249.035.497.071.746.106.55.078,1.1.157,1.649.236,1.063.152,2.129.34,3.196.461.362.041-.159-.035-.203-.111-.002-.003.194.125.22.131l-.291-.213c.126.138.117.121-.025-.051l-.112-.142c.121.218.096.14-.076-.233-.003.027.064.245.066.247-.161-.267-.049-.533-.062-.246.038-.816.003-.01-.026.198-.155,1.1-.309,2.199-.464,3.299-.034.239-.066.478-.101.717-.012.084-.037.181-.043.267-.032.441.249-.444.049-.089-.224.397.307-.363.097-.141-.188.199.479-.298.129-.116.548-.284.364-.139.156-.089-.188.04-.083.025.315-.046-.09.002-.179-.004-.268-.016-1.253-.127-2.454,1.194-2.4,2.4.063,1.409,1.058,2.264,2.4,2.4,1.824.185,3.633-1.158,4.115-2.898.14-.505.17-1.053.243-1.572.09-.639.18-1.279.27-1.918.076-.541.153-1.082.228-1.624.147-1.061.078-2.024-.484-2.964-.494-.826-1.302-1.435-2.205-1.742-.611-.207-1.306-.234-1.942-.324-1.327-.189-2.655-.38-3.982-.569-.856-.122-1.656-.23-2.493.079-.949.35-1.762.979-2.244,1.885-.408.768-.459,1.575-.572,2.418-.013.099-.027.199-.04.298.097-.729.022-.167.002-.02-.043.319-.087.638-.131.957-.078.568-.158,1.136-.239,1.704-.127.891-.279,1.724-.007,2.609.306.994,1.005,1.867,1.921,2.365.756.411,1.558.466,2.39.584,1.511.215,3.021.431,4.532.645.667.095,1.243.113,1.849-.242.498-.291.973-.862,1.103-1.434.258-1.133-.347-2.763-1.676-2.952Z"/><path class="i" d="M238.683,227.034c-1.077-.153-2.154-.307-3.231-.46-.518-.074-1.036-.148-1.553-.221-.247-.035-.494-.07-.741-.105-.106-.015-.213-.026-.318-.045-.264-.047-.411-.197.069.086-.326-.192.151.134.165.165-.02-.043-.376-.381-.069-.035.302.34-.038-.231.119.203.16.445.032-.04.005-.078.024.034.057.635.063.245-.011.617-.059.413-.032.231.039-.269.077-.538.115-.807.159-1.131.313-2.263.465-3.395.026-.195.052-.391.078-.586.015-.111-.011-.506.014-.091l-.023.185c.055-.185.042-.174-.04.035-.233.385.052.005.057-.058-.003.036-.389.464-.122.2-.395.389-.344.243-.175.157-.383.145-.456.178-.218.1l.126-.028-.377.059c.191.009.179.002-.038-.022-.299-.146-.086-.013.069.01.249.035.497.071.746.106.55.078,1.1.157,1.649.236,1.063.152,2.129.34,3.196.461.362.041-.159-.035-.203-.111-.002-.003.194.125.22.131l-.291-.213c.126.138.117.121-.025-.051l-.112-.142c.121.218.096.14-.076-.233-.003.027.064.245.066.247-.161-.267-.049-.533-.062-.246.038-.816.003-.01-.026.198-.155,1.1-.309,2.199-.464,3.299-.034.239-.066.478-.101.717-.012.084-.037.181-.043.267-.032.441.249-.444.049-.089-.224.397.307-.363.097-.141-.188.199.479-.298.129-.116.548-.284.364-.139.156-.089-.188.04-.083.025.315-.046-.09.002-.179-.004-.268-.016-1.253-.127-2.454,1.194-2.4,2.4.063,1.409,1.058,2.264,2.4,2.4,1.824.185,3.633-1.158,4.115-2.898.14-.505.17-1.053.243-1.572.09-.639.18-1.279.27-1.918.076-.541.153-1.082.228-1.624.147-1.061.078-2.024-.484-2.964-.494-.826-1.302-1.435-2.205-1.742-.611-.207-1.306-.234-1.942-.324-1.327-.189-2.655-.38-3.982-.569-.856-.122-1.656-.23-2.493.079-.949.35-1.762.979-2.244,1.885-.408.768-.459,1.575-.572,2.418-.013.099-.027.199-.04.298.097-.729.022-.167.002-.02-.043.319-.087.638-.131.957-.078.568-.158,1.136-.239,1.704-.127.891-.279,1.724-.007,2.609.306.994,1.005,1.867,1.921,2.365.756.411,1.558.466,2.39.584,1.511.215,3.021.431,4.532.645.667.095,1.243.113,1.849-.242.498-.291.973-.862,1.103-1.434.258-1.133-.347-2.763-1.676-2.952Z"/><path class="i" d="M219.939,224.399c-1.077-.153-2.154-.307-3.231-.46-.518-.074-1.036-.148-1.553-.221-.247-.035-.494-.07-.741-.105-.106-.015-.213-.026-.318-.045-.264-.047-.411-.197.069.086-.326-.192.151.134.165.165-.02-.043-.376-.381-.069-.035.302.34-.038-.231.119.203.16.445.032-.04.005-.078.024.034.057.635.063.245-.011.617-.059.413-.032.231.039-.269.077-.538.115-.807.159-1.131.313-2.263.465-3.395.026-.195.052-.391.078-.586.015-.111-.011-.506.014-.091l-.023.185c.055-.185.042-.174-.04.035-.233.385.052.005.057-.058-.003.036-.389.464-.122.2-.395.389-.344.243-.175.157-.383.145-.456.178-.218.1l.126-.028-.377.059c.191.009.179.002-.038-.022-.299-.146-.086-.013.069.01.249.035.497.071.746.106.55.078,1.1.157,1.649.236,1.063.152,2.129.34,3.196.461.362.041-.159-.035-.203-.111-.002-.003.194.125.22.131l-.291-.213c.126.138.117.121-.025-.051l-.112-.142c.121.218.096.14-.076-.233-.003.027.064.245.066.247-.161-.267-.049-.533-.062-.246.038-.816.003-.01-.026.198-.155,1.1-.309,2.199-.464,3.299-.034.239-.066.478-.101.717-.012.084-.037.181-.043.267-.032.441.249-.444.049-.089-.224.397.307-.363.097-.141-.188.199.479-.298.129-.116.548-.284.364-.139.156-.089-.188.04-.083.025.315-.046-.09.002-.179-.004-.268-.016-1.253-.127-2.454,1.194-2.4,2.4.063,1.409,1.058,2.264,2.4,2.4,1.824.185,3.633-1.158,4.115-2.898.14-.505.17-1.053.243-1.572.09-.639.18-1.279.27-1.918.076-.541.153-1.082.228-1.624.147-1.061.078-2.024-.484-2.964-.494-.826-1.302-1.435-2.205-1.742-.611-.207-1.306-.234-1.942-.324-1.327-.189-2.655-.38-3.982-.569-.856-.122-1.656-.23-2.493.079-.949.35-1.762.979-2.244,1.885-.408.768-.459,1.575-.572,2.418-.013.099-.027.199-.04.298.097-.729.022-.167.002-.02-.043.319-.087.638-.131.957-.078.568-.158,1.136-.239,1.704-.127.891-.279,1.724-.007,2.609.306.994,1.005,1.867,1.921,2.365.756.411,1.558.466,2.39.584,1.511.215,3.021.431,4.532.645.667.095,1.243.113,1.849-.242.498-.291.973-.862,1.103-1.434.258-1.133-.347-2.763-1.676-2.952Z"/><path class="i" d="M198.545,238.725c-1.077-.153-2.154-.307-3.231-.46-.518-.074-1.036-.148-1.553-.221-.247-.035-.494-.07-.741-.105-.106-.015-.213-.026-.318-.045-.264-.047-.411-.197.069.086-.326-.192.151.134.165.165-.02-.043-.376-.381-.069-.035.302.34-.038-.231.119.203.16.445.032-.04.005-.078.024.034.057.635.063.245-.011.617-.059.413-.032.231.039-.269.077-.538.115-.807.159-1.131.313-2.263.465-3.395.026-.195.052-.391.078-.586.015-.111-.011-.506.014-.091l-.023.185c.055-.185.042-.174-.04.035-.233.385.052.005.057-.058-.003.036-.389.464-.122.2-.395.389-.344.243-.175.157-.383.145-.456.178-.218.1l.126-.028-.377.059c.191.009.179.002-.038-.022-.299-.146-.086-.013.069.01.249.035.497.071.746.106.55.078,1.1.157,1.649.236,1.063.152,2.129.34,3.196.461.362.041-.159-.035-.203-.111-.002-.003.194.125.22.131l-.291-.213c.126.138.117.121-.025-.051l-.112-.142c.121.218.096.14-.076-.233-.003.027.064.245.066.247-.161-.267-.049-.533-.062-.246.038-.816.003-.01-.026.198-.155,1.1-.309,2.199-.464,3.299-.034.239-.066.478-.101.717-.012.084-.037.181-.043.267-.032.441.249-.444.049-.089-.224.397.307-.363.097-.141-.188.199.479-.298.129-.116.548-.284.364-.139.156-.089-.188.04-.083.025.315-.046-.09.002-.179-.004-.268-.016-1.253-.127-2.454,1.194-2.4,2.4.063,1.409,1.058,2.264,2.4,2.4,1.824.185,3.633-1.158,4.115-2.898.14-.505.17-1.053.243-1.572.09-.639.18-1.279.27-1.918.076-.541.153-1.082.228-1.624.147-1.061.078-2.024-.484-2.964-.494-.826-1.302-1.435-2.205-1.742-.611-.207-1.306-.234-1.942-.324-1.327-.189-2.655-.38-3.982-.569-.856-.122-1.656-.23-2.493.079-.949.35-1.762.979-2.244,1.885-.408.768-.459,1.575-.572,2.418-.013.099-.027.199-.04.298.097-.729.022-.167.002-.02-.043.319-.087.638-.131.957-.078.568-.158,1.136-.239,1.704-.127.891-.279,1.724-.007,2.609.306.994,1.005,1.867,1.921,2.365.756.411,1.558.466,2.39.584,1.511.215,3.021.431,4.532.645.667.095,1.243.113,1.849-.242.498-.291.973-.862,1.103-1.434.258-1.133-.347-2.763-1.676-2.952Z"/><path class="i" d="M236.294,244.03c-1.077-.153-2.154-.307-3.231-.46-.518-.074-1.036-.148-1.553-.221-.247-.035-.494-.07-.741-.105-.106-.015-.213-.026-.318-.045-.264-.047-.411-.197.069.086-.326-.192.151.134.165.165-.02-.043-.376-.381-.069-.035.302.34-.038-.231.119.203.16.445.032-.04.005-.078.024.034.057.635.063.245-.011.617-.059.413-.032.231.039-.269.077-.538.115-.807.159-1.131.313-2.263.465-3.395.026-.195.052-.391.078-.586.015-.111-.011-.506.014-.091l-.023.185c.055-.185.042-.174-.04.035-.233.385.052.005.057-.058-.003.036-.389.464-.122.2-.395.389-.344.243-.175.157-.383.145-.456.178-.218.1l.126-.028-.377.059c.191.009.179.002-.038-.022-.299-.146-.086-.013.069.01.249.035.497.071.746.106.55.078,1.1.157,1.649.236,1.063.152,2.129.34,3.196.461.362.041-.159-.035-.203-.111-.002-.003.194.125.22.131l-.291-.213c.126.138.117.121-.025-.051l-.112-.142c.121.218.096.14-.076-.233-.003.027.064.245.066.247-.161-.267-.049-.533-.062-.246.038-.816.003-.01-.026.198-.155,1.1-.309,2.199-.464,3.299-.034.239-.066.478-.101.717-.012.084-.037.181-.043.267-.032.441.249-.444.049-.089-.224.397.307-.363.097-.141-.188.199.479-.298.129-.116.548-.284.364-.139.156-.089-.188.04-.083.025.315-.046-.09.002-.179-.004-.268-.016-1.253-.127-2.454,1.194-2.4,2.4.063,1.409,1.058,2.264,2.4,2.4,1.824.185,3.633-1.158,4.115-2.898.14-.505.17-1.053.243-1.572.09-.639.18-1.279.27-1.918.076-.541.153-1.082.228-1.624.147-1.061.078-2.024-.484-2.964-.494-.826-1.302-1.435-2.205-1.742-.611-.207-1.306-.234-1.942-.324-1.327-.189-2.655-.38-3.982-.569-.856-.122-1.656-.23-2.493.079-.949.35-1.762.979-2.244,1.885-.408.768-.459,1.575-.572,2.418-.013.099-.027.199-.04.298.097-.729.022-.167.002-.02-.043.319-.087.638-.131.957-.078.568-.158,1.136-.239,1.704-.127.891-.279,1.724-.007,2.609.306.994,1.005,1.867,1.921,2.365.756.411,1.558.466,2.39.584,1.511.215,3.021.431,4.532.645.667.095,1.243.113,1.849-.242.498-.291.973-.862,1.103-1.434.258-1.133-.347-2.763-1.676-2.952Z"/><path class="i" d="M217.55,241.396c-1.077-.153-2.154-.307-3.231-.46-.518-.074-1.036-.148-1.553-.221-.247-.035-.494-.07-.741-.105-.106-.015-.213-.026-.318-.045-.264-.047-.411-.197.069.086-.326-.192.151.134.165.165-.02-.043-.376-.381-.069-.035.302.34-.038-.231.119.203.16.445.032-.04.005-.078.024.034.057.635.063.245-.011.617-.059.413-.032.231.039-.269.077-.538.115-.807.159-1.131.313-2.263.465-3.395.026-.195.052-.391.078-.586.015-.111-.011-.506.014-.091l-.023.185c.055-.185.042-.174-.04.035-.233.385.052.005.057-.058-.003.036-.389.464-.122.2-.395.389-.344.243-.175.157-.383.145-.456.178-.218.1l.126-.028-.377.059c.191.009.179.002-.038-.022-.299-.146-.086-.013.069.01.249.035.497.071.746.106.55.078,1.1.157,1.649.236,1.063.152,2.129.34,3.196.461.362.041-.159-.035-.203-.111-.002-.003.194.125.22.131l-.291-.213c.126.138.117.121-.025-.051l-.112-.142c.121.218.096.14-.076-.233-.003.027.064.245.066.247-.161-.267-.049-.533-.062-.246.038-.816.003-.01-.026.198-.155,1.1-.309,2.199-.464,3.299-.034.239-.066.478-.101.717-.012.084-.037.181-.043.267-.032.441.249-.444.049-.089-.224.397.307-.363.097-.141-.188.199.479-.298.129-.116.548-.284.364-.139.156-.089-.188.04-.083.025.315-.046-.09.002-.179-.004-.268-.016-1.253-.127-2.454,1.194-2.4,2.4.063,1.409,1.058,2.264,2.4,2.4,1.824.185,3.633-1.158,4.115-2.898.14-.505.17-1.053.243-1.572.09-.639.18-1.279.27-1.918.076-.541.153-1.082.228-1.624.147-1.061.078-2.024-.484-2.964-.494-.826-1.302-1.435-2.205-1.742-.611-.207-1.306-.234-1.942-.324-1.327-.189-2.655-.38-3.982-.569-.856-.122-1.656-.23-2.493.079-.949.35-1.762.979-2.244,1.885-.408.768-.459,1.575-.572,2.418-.013.099-.027.199-.04.298.097-.729.022-.167.002-.02-.043.319-.087.638-.131.957-.078.568-.158,1.136-.239,1.704-.127.891-.279,1.724-.007,2.609.306.994,1.005,1.867,1.921,2.365.756.411,1.558.466,2.39.584,1.511.215,3.021.431,4.532.645.667.095,1.243.113,1.849-.242.498-.291.973-.862,1.103-1.434.258-1.133-.347-2.763-1.676-2.952Z"/><path class="k" d="M246.013,189.755c-.099.754-.186,1.42-.254,1.944-.12.915-.95,1.549-1.864,1.423-9.274-1.281-36.997-5.005-45.146-6.123-.911-.125-1.547-.953-1.421-1.864.551-4.009,1.634-12.167,1.906-13.766,5.331.703,12.046,1.588,12.046,1.588,12.033,1.689,28.381,3.945,34.638,4.823.904.127,1.534.948,1.416,1.853-.28,2.148-.902,6.924-1.32,10.122Z"/><path class="i" d="M244.933,179.633c-.384,3.667-.882,7.315-1.41,10.963-.101.697-.238.417.388.17.419-.165.611.073.282-.006-.112-.027-.239-.033-.354-.049-.627-.086-1.254-.172-1.88-.258-1.402-.192-2.804-.383-4.206-.573-7.334-.997-14.67-1.987-22.005-2.978-3.405-.46-6.81-.92-10.215-1.382-1.307-.177-2.614-.354-3.921-.532-.537-.073-1.074-.146-1.611-.22-.102-.014-.554-.143-.615-.084-.101.098.234.356.296.47-.032.498-.029.576.011.232l.086-.638c.497-3.737.932-7.483,1.422-11.221.026-.198.136-.52.094-.71.141.638-3.201-.048-1.417.865.292.15.793.111,1.122.157.911.127,1.823.254,2.734.38,2.053.284,4.106.566,6.159.847,9.539,1.306,19.081,2.586,28.614,3.931,1.282.181,2.578-.313,2.952-1.676.309-1.124-.385-2.77-1.676-2.952-9.412-1.328-18.833-2.593-28.251-3.882-2.174-.298-4.348-.596-6.521-.896-2.005-.277-5.013-1.269-6.818-.117-2.043,1.304-1.85,4.48-2.122,6.632-.278,2.202-.549,4.406-.828,6.608-.057.452-.115.904-.174,1.355-.02.155-.041.31-.061.465.087-.659-.04.299-.038.28-.179,1.559.465,3.088,1.814,3.945,1.179.749,2.797.753,4.155.938,3.378.459,6.756.916,10.135,1.373,8.2,1.108,16.401,2.214,24.601,3.328,1.776.241,3.551.483,5.327.726,2.299.315,4.856.943,6.412-1.332.654-.957.762-2.026.929-3.14.195-1.303.37-2.61.542-3.916.311-2.364.601-4.732.85-7.104.135-1.291-1.2-2.4-2.4-2.4-1.41,0-2.264,1.105-2.4,2.4h0Z"/></g><g id="f"><path class="i" d="M149.044,109.933c7.795.227,16.629.01,21.491-7.106,3.638-5.326,4.392-14.669-.77-19.335-.819-.74-2.116-.989-3.156-1.303-.989-.298-1.988-.563-2.994-.796-2.156-.499-4.352-.84-6.554-1.058-4.293-.425-8.624-.22-12.868.546-3.647.659-8.01,1.39-10.11,4.77-1.506,2.423-2.11,5.615-1.899,8.426.313,4.177,2.053,8.662,5.177,11.552s7.491,4.14,11.683,4.303c3.089.12,3.084-4.68,0-4.8-3.196-.124-6.698-1.074-8.908-3.522-2.292-2.539-3.542-6.451-3.133-9.845.111-.924.461-2.157.752-2.81.684-1.534,1.158-1.729,2.699-2.213,4.158-1.306,8.471-1.896,12.826-1.826,4.839.077,9.583.998,14.149,2.587l-1.059-.617c3.449,3.546,2.646,10.061-.17,13.787-3.884,5.139-11.443,4.626-17.157,4.46-3.09-.09-3.087,4.71,0,4.8Z"/><path class="i" d="M89.347,87.503c6.598-2.295,13.691-3.2,20.635-2.211,1.775.253,3.536.638,5.261,1.128.811.23,1.842.409,2.577.826-.031-.018.439.402.493.469,1.138,1.429,1.556,3.673,1.517,5.602-.059,2.849-1.156,5.817-2.96,8.029-1.76,2.158-4.56,3.203-7.24,3.624-3.096.487-6.565.379-9.676.091-2.894-.268-6.037-1.092-8.214-3.124-3.799-3.545-5.185-11.091-1.334-15.05,2.155-2.216-1.235-5.613-3.394-3.394-4.857,4.993-4.587,13.588-.861,19.198,4.708,7.088,13.441,7.492,21.154,7.256,3.651-.112,7.475-.914,10.514-3.047,3.125-2.193,5.203-5.662,6.191-9.317.832-3.079.862-6.429-.194-9.459-.503-1.444-1.191-2.87-2.277-3.972-1.341-1.361-3.236-1.853-5.021-2.36-9.287-2.636-19.365-2.076-28.448,1.084-1.224.426-2.036,1.643-1.676,2.952.327,1.188,1.722,2.104,2.952,1.676h0Z"/><path class="i" d="M124.73,94.54c.48-.24-.569.205-.038.01.167-.062.338-.115.51-.163.362-.101.729-.172,1.099-.236.177-.031.527-.032-.199.022.086-.006.172-.021.257-.03.22-.024.44-.043.66-.058.454-.031.91-.044,1.365-.041.435.003.87.02,1.304.052.224.017.447.037.67.062.175.02.535.106-.182-.028.084.016.17.025.255.038.4.063.799.142,1.191.244.161.042.321.088.479.139.205.066.874.35.041-.01.615.266,1.174.428,1.849.242.557-.153,1.16-.584,1.434-1.103.547-1.035.369-2.751-.861-3.284-1.95-.844-4.061-1.137-6.18-1.152-2.059-.014-4.215.22-6.077,1.152-1.125.563-1.532,2.243-.861,3.284.742,1.151,2.08,1.463,3.284.861h0Z"/><path class="i" d="M174.788,91.966c.082-.037.165-.073.247-.108l-.573.242c1.446-.61,2.983-1.136,4.527-1.43.564-.108,1.153-.623,1.434-1.103.301-.514.429-1.273.242-1.849-.188-.581-.548-1.141-1.103-1.434-.597-.315-1.186-.369-1.849-.242-1.834.35-3.648,1.02-5.347,1.78-.515.23-.96.915-1.103,1.434-.158.574-.087,1.339.242,1.849.33.512.822.964,1.434,1.103l.638.086c.433-.001.837-.111,1.211-.328h0Z"/><path class="i" d="M83.853,87.821c-1.7-.76-3.514-1.43-5.347-1.78-.643-.123-1.269-.098-1.849.242-.498.291-.973.862-1.103,1.434-.14.614-.11,1.304.242,1.849.323.501.826.987,1.434,1.103,1.543.294,3.081.82,4.527,1.43l-.573-.242c.083.035.165.071.247.108.275.175.573.27.892.285.319.071.638.057.957-.043.557-.153,1.16-.584,1.434-1.103.294-.557.442-1.232.242-1.849-.18-.557-.545-1.185-1.103-1.434h0Z"/></g><g id="g"><path class="i" d="M118.647,130.518c3.151,1.664,6.545,2.358,10.107,2.335,3.6-.023,7.262-.722,10.148-2.971,1.023-.797.837-2.557,0-3.394-1.01-1.01-2.368-.799-3.394,0,.712-.555.103-.091-.08.026-.205.132-.417.253-.633.367-.153.08-.901.39-.294.16-.29.11-.578.222-.873.317-1.863.599-3.217.707-5.203.695-1.945-.012-3.149-.126-4.964-.668-.32-.096-.632-.21-.947-.318-.103-.035-.201-.089-.305-.119.593.173.18.081.021.006-.392-.184-.777-.377-1.16-.579-1.146-.605-2.61-.291-3.284.861-.634,1.084-.289,2.676.861,3.284h0Z"/><path class="i" d="M127.653,106.553c.446,1.702.875,3.431,1.131,5.173l-.086-.638c.03.239.044.474.019.714l.086-.638c-.017.111-.041.215-.079.321l.242-.573c-.033.075-.068.139-.113.207l.375-.486c-.053.065-.104.114-.169.167l.486-.375c-.131.084-.269.152-.41.217l.573-.242c-.226.094-.449.163-.691.201l.638-.086c-.218.026-.43.024-.648-.001l.638.086c-.244-.034-.484-.093-.729-.126-.67-.09-1.239-.115-1.849.242-.498.291-.973.862-1.103,1.434-.14.614-.11,1.304.242,1.849.312.484.835,1.022,1.434,1.103.534.072,1.052.209,1.595.232.821.036,1.587-.213,2.322-.548.902-.411,1.604-1.208,1.844-2.18.203-.821.114-1.554-.025-2.376-.282-1.667-.667-3.318-1.095-4.953-.318-1.214-1.729-2.072-2.952-1.676-1.25.404-2.018,1.651-1.676,2.952h0Z"/><path class="i" d="M100.055,91.97c-.864,2.807-.301,9.266,5.018,9.815,7.03-.042,7.404-7.85,5.037-11.521-1.937-3.006-7.635-4.256-10.055,1.706Z"/><path class="i" d="M156.349,91.97c.864,2.808.301,9.266-5.017,9.815-7.03-.042-7.404-7.85-5.038-11.522,1.937-3.006,7.634-4.256,10.055,1.707Z"/></g></g></g></svg>