<?xml version="1.0" encoding="UTF-8"?><svg id="b" xmlns="http://www.w3.org/2000/svg" width="208.83" height="314.55" viewBox="0 0 208.83 314.55"><defs><style>.d{fill:#211715;}.d,.e,.f,.g{stroke-width:0px;}.e{fill:#fff;}.f{fill:#3d8dcc;}.g{fill:#c6c6c6;}</style></defs><g id="c"><path class="e" d="M151.285,77.82c1.473-1.415,3.457-1.947,5.154-1.887,3.695.13,5.267,2.129,5.943,3.302,2.019,3.502,1.934,9.956.579,13.949-.96,2.828-2.533,7.154-6.324,10.256-1.562,1.278-3.861,2.12-6.06,1.749,0,0-.211-.036-.581-.098-.698,2.305-1.559,4.563-2.085,5.659-1.446,3.926-9.038,17.09-18.876,23.419v3.633c-.937.759-20.043,14.344-21.491,15.371h-3.735c-1.449-1.027-20.554-14.612-21.491-15.371v-3.685c-3.827-2.328-7.361-5.558-10.757-9.623-5.461-6.537-8.571-13.577-10.288-19.412-2.343.604-4.876-.267-6.556-1.642-3.791-3.102-5.364-7.428-6.324-10.256-1.356-3.993-1.441-10.447.579-13.949.677-1.173,2.249-3.172,5.943-3.302,1.698-.06,3.682.472,5.154,1.887,0,0-6.87-40.517,45.608-40.517,53.911,0,45.608,40.517,45.608,40.517Z"/><path class="e" d="M85.289,186.514c-5.199-13.71-9.875-26.813-12.078-34.011h.544c-.723-1.948.212-4.649,1.482-6.12,2.158-2.499,4.877-6.114,7.082-8.581.937.759,20.043,14.344,21.491,15.371h3.735c1.449-1.027,20.554-14.612,21.491-15.371,2.205,2.467,4.924,6.082,7.082,8.581,1.27,1.471,2.205,4.172,1.485,6.12-5.779,18.657-24.402,68.074-31.025,80.273l-1.928-.009c-4.05-7.341-12.202-27.373-19.362-46.253Z"/><path class="f" d="M98.334,179.79c.208-1.585.323-2.568.319-2.771-.032-1.823-1.76-8.356-2.537-9.957,0,0-.417-1.135-1.032-2.807,3.304-4.379,6.818-8.937,8.726-11.083h3.735c1.848,2.079,5.204,6.423,8.417,10.674-.551,1.693-.928,2.851-.928,2.851-.571,2.378-1.934,9.133-1.934,10.147,0,.539,2.108,16.865,3.9,32.053-4.24,10.608-8.08,19.567-10.42,23.879l-1.928-.009c-2.398-4.347-6.235-13.145-10.452-23.519,1.728-12.187,3.443-24.174,4.135-29.459Z"/><path class="g" d="M85.737,187.694c7.049,18.529,14.947,37.885,18.913,45.073l1.928.009c6.582-12.125,25.02-61.018,30.919-79.932l.103-.34c.723-1.948-.212-4.649-1.482-6.12-1.837-2.127-4.08-5.063-6.064-7.405,2.033-.923,3.662-1.662,3.662-1.662,5.169,2.413,12.057,6.072,15.713,8.718,5.382,3.897,8.906,7.591,12.181,11.509,4.795,1.773,9.448,3.863,13.817,6.411,4.281,2.489,7.832,4.899,11.178,8.625,3.171,3.504,5.851,7.468,8.07,11.638,6.738,12.748,8.562,27.049,10.179,41.223,1.586,13.937,1.903,28.016,1.221,42.032-.523,10.94-1.855,17.869-6.564,26.288-3.853,6.881-15.142,13.366-25.019,14.444-15.506,1.697-28,.999-42.587.222-10.718-.571-21.975-1.379-32.154-2.775l-9.462-1.148c-16.525,3.771-33.427,6.525-47.268,7.601-6.39.507-21.722-.872-28.698-8.054-6.199-6.405-9.355-14.333-10.338-20.865-2.029-13.604-1.681-25.019-1.205-34.089,1.157-22.609,2.362-36.832,8.72-59.695,3.694-9.148,7.959-15.538,14.999-20.39,6.402-4.437,13.201-7.671,23.039-11.22,3.335-4.01,6.893-7.779,12.389-11.757,3.656-2.647,10.543-6.305,15.713-8.718l3.405,1.967c-1.917,2.286-4.049,5.063-5.807,7.1-1.27,1.471-2.205,4.172-1.482,6.12h-.544c2.266,7.404,7.15,21.057,12.527,35.191Z"/><path class="e" d="M125.063,277.206c-2.395-9.323-5.267-19.99-7.169-26.259,7.231-3.318,10.844-4.296,17.853-6.319,5.78-1.669,11.954-3.414,19.92-3.415,5.297,0,10.965,2.293,14.896,3.676,0,0,.438.154,1.187.418-1.005,10.746-2.134,21.217-3.154,28.691l-1.165,1.047s-4.416,3.972-7.686,4.607c-4.829.938-28.595,2.609-32.985.38,0,0-.413-.21-1.118-.565-.189-.743-.382-1.498-.579-2.263Z"/><path class="d" d="M80.621,136.105c-1.37,1.545-2.659,3.159-3.952,4.768-1.285,1.599-2.769,3.131-3.914,4.832-1.173,1.741-1.828,3.995-1.587,6.09.121,1.051.528,1.933.957,2.877,2.251,4.951,4.604,9.894,7.597,14.448,1.798,2.736,3.836,5.495,6.605,7.318,1.171.771,2.54.13,3.284-.861,5.222-6.965,10.146-14.205,15.896-20.707,1.089-1.232.823-2.842-.486-3.769-6.167-4.372-12.325-8.758-18.465-13.169-.654-.47-1.307-.94-1.958-1.412-.226-.164-.451-.33-.676-.494-.423-.308-.22-.17.094.08-1.013-.807-2.405-.989-3.394,0-.837.837-1.019,2.582,0,3.394,2.457,1.958,5.093,3.713,7.647,5.538,3.702,2.645,7.407,5.285,11.115,7.922,1.072.762,2.143,1.525,3.216,2.286l-.486-3.769c-6.022,6.81-11.199,14.412-16.647,21.679l3.284-.861c-.122-.081-.572-.403-.458-.314.123.096-.38-.331-.461-.404-.433-.393-.842-.813-1.233-1.247-.86-.954-1.481-1.79-2.225-2.876-1.65-2.412-3.089-4.968-4.435-7.56-1.088-2.095-2.107-4.224-3.089-6.37-.289-.632-.596-1.26-.865-1.9-.031-.074-.077-.144-.103-.22-.069-.204.085.143.083.133-.018-.13-.067-.252-.068-.381-.007-.715.161-1.438.461-2.09.759-1.654,2.314-3.062,3.445-4.47,1.38-1.718,2.751-3.445,4.214-5.094,2.043-2.304-1.34-5.711-3.394-3.394Z"/><path class="d" d="M127.339,139.499c2.436,2.748,4.894,5.632,7.082,8.581.405.546.692,1.169.871,1.822.094.344.158.675.157,1.029,0,.208-.093.843.04.441-.168.509-.465,1.011-.686,1.499-2.114,4.651-4.362,9.278-7.147,13.57-.79,1.217-1.591,2.365-2.458,3.384-.445.523-.91,1.029-1.408,1.503-.637.606-.63.601-1.184.965l3.284.861c-5.448-7.267-10.625-14.869-16.647-21.679l-.486,3.769c6.244-4.427,12.48-8.866,18.695-13.335,1.101-.792,2.221-1.566,3.282-2.411,1.014-.808.844-2.55,0-3.394-1.002-1.002-2.377-.811-3.394,0,.789-.629-.004-.008-.341.238-.556.405-1.114.807-1.673,1.209-1.62,1.166-3.243,2.327-4.867,3.487-3.66,2.615-7.324,5.225-10.989,7.832-1.045.743-2.089,1.487-3.135,2.229-1.308.928-1.575,2.538-.486,3.769,5.751,6.503,10.674,13.742,15.896,20.707.745.993,2.101,1.64,3.284.861,2.441-1.608,4.28-3.94,5.929-6.317,1.808-2.605,3.36-5.385,4.809-8.202,1.133-2.204,2.191-4.445,3.216-6.701.27-.595.563-1.186.812-1.79.857-2.079.404-4.465-.494-6.449s-2.604-3.609-3.962-5.295c-1.513-1.878-3.004-3.775-4.604-5.58-2.054-2.316-5.438,1.089-3.394,3.394Z"/><path class="e" d="M50.649,226.227c-1.339-1.233-2.584-2.361-3.697-3.347-1.585-1.404-3.592-2.335-5.395-2.529-1.702-.184-3.734.291-4.782,1.452-1.22,1.351-1.691,3.438-.744,5.448.915,1.942,2.804,3.474,4.867,5.475-3.528-5.393-7.946-3.861-9.442-2.162-.85.965-1.342,2.619-.624,4.254,1.265,2.881,4.236,5.119,7.042,8.103-2.896-.514-5.028-.863-6.651.944-.858.955-1.073,2.863-.674,4.084.399,1.22,1.232,2.24,2.021,3.253,2.506,3.219,4.459,5.876,6.786,8.779l.749.934c7.476-1.383,23.439-4.168,39.124-6.894-1.587-1.621-2.718-2.777-2.718-2.777-6.256-6.308-17.767-17.563-25.861-25.016Z"/><path class="d" d="M112.535,172.539c-4.484-.002-8.967-.094-13.451-.095-1.255,0-2.458,1.104-2.4,2.4s1.055,2.399,2.4,2.4c4.484.002,8.967.094,13.451.095,1.255,0,2.458-1.104,2.4-2.4s-1.055-2.4-2.4-2.4h0Z"/><path class="d" d="M112.719,166.059c-.586,2.468-1.083,4.963-1.535,7.459-.258,1.424-.555,2.81-.389,4.252.647,5.616,1.385,11.222,2.076,16.833.586,4.765,1.165,9.532,1.728,14.3.152,1.287.994,2.4,2.4,2.4,1.179,0,2.553-1.104,2.4-2.4-.917-7.769-1.878-15.534-2.842-23.297-.297-2.391-.598-4.781-.884-7.173-.058-.485-.151-.983-.166-1.472-.004-.14.016-.28.012-.418-.01-.389-.085.488-.002,0,.048-.286.09-.572.138-.858.474-2.797,1.037-5.591,1.692-8.351.713-3.003-3.914-4.285-4.629-1.276h0Z"/><path class="d" d="M94.044,168.273c.166.357-.153-.441.01.027.07.202.147.401.216.603.201.587.382,1.182.555,1.778.37,1.271.703,2.553.993,3.844.119.53.232,1.062.328,1.598.04.224.081.448.11.674-.064-.491.004.027-.003.222-.014.376-.066.752-.111,1.125-.601,5.04-1.428,10.515-2.189,15.893-.662,4.674-1.327,9.348-1.99,14.023-.182,1.282.314,2.578,1.676,2.952,1.125.309,2.769-.385,2.952-1.676,1.119-7.891,2.252-15.781,3.346-23.676.333-2.403.672-4.806.968-7.213.186-1.511.03-2.855-.279-4.364-.567-2.766-1.242-5.661-2.438-8.232-.546-1.175-2.24-1.472-3.284-.861-1.205.705-1.41,2.104-.861,3.284h0Z"/><path class="d" d="M165.733,273.349c-1.749,1.564-4.068,3.452-6.627,3.99-.346.073-.697.119-1.046.173-.099.015-.199.028-.298.042-.323.046.494-.063.156-.021-.266.032-.531.067-.797.098-1.232.144-2.467.263-3.703.37-6.372.553-12.812.902-19.208.691-1.442-.048-2.883-.131-4.315-.305-.362-.044.42.065.074.009-.147-.024-.295-.045-.442-.071-.268-.047-.535-.098-.8-.16-.23-.054-.454-.125-.681-.186-.079-.021-.157-.066-.237-.082-.399-.081.528.242.163.065-1.165-.567-2.595-.317-3.284.861-.617,1.054-.309,2.714.861,3.284,2.157,1.05,4.7,1.181,7.057,1.315,3.292.187,6.598.139,9.891.03,5.821-.192,11.813-.398,17.56-1.425,3.394-.606,6.555-3.033,9.072-5.284,2.307-2.064-1.097-5.449-3.394-3.394h0Z"/><path class="d" d="M120.734,252.285c3.754-1.655,7.608-2.992,11.541-4.152s7.865-2.357,11.868-3.235c4.29-.941,8.854-1.582,13.252-1.208,4.328.367,8.472,2.079,12.529,3.514,1.222.432,2.626-.49,2.952-1.676.365-1.327-.45-2.518-1.676-2.952-3.266-1.156-6.512-2.396-9.912-3.108-3.918-.82-7.865-.755-11.826-.295-6.867.798-13.523,2.815-20.116,4.826-3.769,1.15-7.429,2.551-11.034,4.14-1.186.523-1.462,2.256-.861,3.284.715,1.223,2.093,1.386,3.284.861h0Z"/><path class="d" d="M78.208,249.546c-7.763-7.824-15.67-15.519-23.728-23.038-3.939-3.676-8.395-9.044-14.329-8.562-3.405.276-6.323,2.369-6.9,5.886s1.507,6.323,3.904,8.645c5.294,5.13,10.533,10.316,15.828,15.446,2.22,2.151,5.618-1.24,3.394-3.394-4.187-4.057-8.337-8.152-12.495-12.239-1.05-1.032-2.118-2.042-3.18-3.061-.927-.889-1.982-1.836-2.518-3.032-1.01-2.25.953-3.656,3.03-3.473,2.325.205,4.036,1.834,5.68,3.32,1.75,1.582,3.479,3.186,5.199,4.8,3.836,3.598,7.628,7.243,11.398,10.91,3.803,3.7,7.586,7.42,11.323,11.187,2.179,2.196,5.573-1.198,3.394-3.394h0Z"/><path class="d" d="M36.042,226.651c-2.874-.372-6.067,1.074-7.316,3.766-1.518,3.27.09,6.347,2.221,8.871,2.05,2.427,4.448,4.616,6.668,6.889,2.26,2.315,4.548,4.602,6.956,6.763,2.293,2.058,5.699-1.325,3.394-3.394-3.876-3.479-7.426-7.29-11.085-10.992-.861-.872-1.748-1.723-2.539-2.66-.563-.667-1.308-1.578-1.443-2.468-.27-1.774,1.815-2.146,3.144-1.974,1.288.167,2.4-1.222,2.4-2.4,0-1.435-1.108-2.233-2.4-2.4h0Z"/><path class="d" d="M36.132,240.236c-2.406-.315-4.892.046-6.606,1.93-1.606,1.766-1.999,4.637-1.135,6.833.955,2.428,2.895,4.421,4.463,6.474,1.587,2.079,3.171,4.161,4.805,6.203.81,1.013,2.549.845,3.394,0,1.001-1.001.812-2.378,0-3.394-1.212-1.516-2.325-2.965-3.499-4.504-1.294-1.696-2.708-3.393-3.9-5.094-.246-.351-.536-.775-.692-1.115-.032-.071-.112-.335-.157-.458-.147-.408-.019.146-.035-.126-.012-.196-.008-.389-.011-.585-.007-.425-.038.049.011-.191.04-.194.091-.379.145-.569-.088.305-.012.01.075-.141.186-.319-.415.429.105-.124l.18-.17c-.145.102-.151.108-.016.019.126-.094.449-.252.127-.115.172-.073.357-.106.535-.159.238-.071-.285-.014.158-.028.202-.007.404-.015.606-.011.485.009.965.063,1.445.126,1.287.169,2.4-1.224,2.4-2.4,0-1.437-1.109-2.231-2.4-2.4h0Z"/><path class="d" d="M172.089,209.624c-1.008,20.069-2.86,40.178-5.34,60.117-.452,3.633-.889,7.16-1.633,11.027-.245,1.272.357,2.59,1.676,2.952,1.175.323,2.706-.397,2.952-1.676,1.568-8.152,2.35-16.49,3.218-24.738,1.132-10.759,2.104-21.537,2.924-32.324.389-5.116.745-10.235,1.002-15.359.155-3.087-4.645-3.079-4.8,0h0Z"/><path class="d" d="M38.06,263.73c6.4-1.275,12.865-2.284,19.291-3.419,7.376-1.303,14.752-2.604,22.126-3.914,7.492-1.331,14.998-2.587,22.494-3.892,3.958-.689,7.916-1.382,11.873-2.078.265-.047,1.395-.09,1.515-.257-.144.2-.452-.785-.205.057.08.271.169.54.252.81.336,1.09.661,2.184.98,3.279,3.411,11.696,6.49,23.514,9.312,35.366.124.519.246,1.039.367,1.559.055.237.1.478.165.713.151.55-.045-.367.148-.231-.215-.153-2.362.823-2.639.918-1.062.366-2.127.724-3.193,1.075-4.25,1.4-8.535,2.691-12.843,3.899-8.569,2.401-17.226,4.489-25.939,6.294-8.315,1.722-16.688,3.206-25.105,4.335-6.343.851-12.853,1.846-19.268,1.465-5.821-.346-12.008-1.47-17.201-4.294-6.008-3.267-10.068-9.94-12.253-16.269-1.236-3.578-1.792-7.267-2.212-11.016-.479-4.272-.761-8.564-.864-12.861-.181-7.536.233-15.065.665-22.586.447-7.776,1.004-15.559,2.057-23.28,1.083-7.938,2.694-15.793,4.679-23.552.559-2.185,1.001-4.503,1.871-6.586.686-1.644,1.441-3.263,2.264-4.844,1.564-3.005,3.398-5.875,5.681-8.386,4.633-5.095,10.911-8.592,17.09-11.475,3.595-1.677,7.294-3.108,11.023-4.457,1.218-.441,2.039-1.632,1.676-2.952-.323-1.176-1.728-2.12-2.952-1.676-7.574,2.741-15.067,5.861-21.841,10.268-6.257,4.071-11.146,9.309-14.645,15.92-.926,1.749-1.75,3.548-2.522,5.37-.939,2.216-1.496,4.538-2.098,6.865-1.097,4.241-2.089,8.508-2.94,12.805-1.558,7.867-2.603,15.825-3.292,23.813-1.422,16.485-2.498,33.289-.395,49.757.499,3.904,1.162,7.691,2.575,11.382,1.521,3.972,3.574,7.651,6.192,11.004,2.224,2.849,4.759,5.262,7.96,6.978,2.984,1.6,6.245,2.699,9.536,3.462,5.805,1.346,11.739,1.757,17.665,1.237,8.449-.742,16.863-1.933,25.219-3.378,18.137-3.136,36.194-7.41,53.634-13.326,1.974-.67,4.647-1.139,6.036-2.794,1.285-1.531,1.07-3.28.649-5.083-.61-2.611-1.252-5.214-1.903-7.815-1.643-6.561-3.352-13.105-5.129-19.631-.807-2.965-1.628-5.926-2.485-8.878-.748-2.578-1.224-6.409-3.904-7.643-1.798-.828-3.883-.122-5.738.204-2.123.373-4.245.746-6.368,1.117-4.267.746-8.535,1.487-12.803,2.226-9.254,1.602-18.505,3.217-27.754,4.851-8.64,1.527-17.28,3.047-25.918,4.585-.62.11-1.242.211-1.859.334-1.272.253-2.002,1.767-1.676,2.952.364,1.326,1.677,1.93,2.952,1.676h0Z"/><path class="d" d="M160.946,159.847c4.078,1.517,8.058,3.273,11.866,5.383,3.329,1.844,6.626,3.855,9.464,6.41,6.095,5.488,10.522,13.007,13.417,20.618,3.012,7.92,4.599,16.305,5.728,24.677,1.209,8.975,2.082,17.995,2.415,27.047.336,9.119.297,18.315-.4,27.417-.53,6.921-1.998,13.582-5.243,19.761-3.156,6.01-9.083,10.012-15.307,12.437-7.639,2.975-16.181,3.066-24.279,3.22-8.444.161-16.882-.266-25.311-.715-8.937-.475-17.872-1.045-26.77-2.018-2.048-.224-4.095-.467-6.137-.745-1.283-.174-2.577.309-2.952,1.676-.307,1.119.383,2.776,1.676,2.952,9.249,1.258,18.552,2.023,27.867,2.582,8.905.535,17.83,1.059,26.753,1.101,4.44.021,8.88-.097,13.311-.39,4.334-.287,8.763-.546,12.975-1.672,7.202-1.926,14.721-5.866,19.516-11.703,2.323-2.827,3.887-6.224,5.229-9.606,1.3-3.276,2.169-6.696,2.709-10.176,1.39-8.966,1.423-18.217,1.326-27.27-.103-9.622-.802-19.197-1.934-28.75-1.046-8.831-2.274-17.702-4.879-26.228-2.629-8.603-6.701-16.74-12.518-23.636-5.474-6.49-12.964-10.899-20.645-14.315-2.171-.965-4.373-1.856-6.6-2.684-1.215-.452-2.63.504-2.952,1.676-.369,1.343.457,2.499,1.676,2.952h0Z"/><path class="d" d="M135.829,150.082c-3.169,10.683-7.083,21.168-10.947,31.614-4.595,12.42-9.329,24.802-14.472,37.006-.096.228-.502,1.183-.738,1.734-.281.655-.563,1.309-.848,1.962-.533,1.222-1.073,2.441-1.627,3.654-.849,1.86-1.719,3.714-2.691,5.512l2.072-1.189-1.928-.009,2.072,1.189c-1.972-3.588-3.618-7.363-5.252-11.113-2.342-5.374-4.557-10.791-6.794-16.388-4.888-12.225-9.567-24.54-13.991-36.941-1.802-5.053-3.586-10.12-5.16-15.249-.903-2.945-5.538-1.689-4.629,1.276,3.222,10.503,7.112,20.82,10.978,31.098,4.628,12.304,9.409,24.562,14.594,36.643,1.896,4.417,3.792,8.879,6.11,13.096.406.738,1.243,1.185,2.072,1.189l1.928.009c.823.004,1.675-.455,2.072-1.189,2.002-3.702,3.659-7.599,5.311-11.466,2.461-5.761,4.809-11.571,7.104-17.4,4.971-12.628,9.733-25.345,14.222-38.152,1.813-5.171,3.612-10.357,5.171-15.611.88-2.968-3.751-4.235-4.629-1.276h0Z"/><path class="d" d="M165.845,212.518c-7.887,0-15.774.002-23.66.074-1.883.017-4.037-.23-5.884.18-1.227.273-2.373,1.122-2.966,2.236-.653,1.227-.562,2.574-.564,3.917-.003,2.454-.006,4.908-.009,7.361-.003,2.806,1.573,5.037,4.521,5.214,5.113.307,10.319.086,15.441.088,3.089,0,3.094-4.799,0-4.8-4.038,0-8.076-.024-12.113-.056-.947-.008-1.895-.006-2.842-.026-.528-.011-.443-.167-.316.085.235.462.108-.346.109-.504.002-2.202.005-4.404.008-6.606,0-.261.169-2.434.024-2.518.343.199-.841.183-.059.286.378.05.814-.013,1.196-.018,1.699-.024,3.398-.039,5.097-.052,3.867-.029,7.734-.043,11.601-.051,3.472-.007,6.944-.009,10.416-.009,3.089,0,3.094-4.8,0-4.8h0Z"/><path class="d" d="M44.659,217.318c6.539,0,13.078.005,19.617.044,1.767.01,3.534.023,5.301.042.778.008,1.556.017,2.334.028.339.005.722.061,1.058.016.866-.115-.467-.058-.059-.286-.142.08.024,2.255.024,2.518.001,1.062.003,2.125.004,3.187.001,1.023.002,2.046.004,3.069,0,.306.029.757-.002.996.023-.179.164-.222.281-.232-1.292.108-2.4,1.026-2.4,2.4,0,1.215,1.101,2.508,2.4,2.4,2.119-.177,3.946-1.424,4.413-3.594.382-1.773.105-3.838.103-5.643-.002-1.872.198-3.876-.076-5.73-.335-2.267-2.212-3.744-4.44-3.879-3.08-.187-6.209-.075-9.294-.093-3.458-.02-6.916-.03-10.375-.036-2.964-.005-5.929-.006-8.893-.006-3.089,0-3.094,4.8,0,4.8h0Z"/><path class="d" d="M107.92,249.461v-16.68c0-1.297-1.103-2.4-2.4-2.4s-2.4,1.098-2.4,2.4v16.68c0,1.297,1.103,2.4,2.4,2.4s2.4-1.098,2.4-2.4h0Z"/><path class="d" d="M132.126,204.572c4.507-4.438,9.181-8.688,14.084-12.686,5.56-4.533,11.234-9.016,17.176-13.037,3.115-2.108,6.308-4.095,9.478-6.12,1.013-.647,1.646-2.197.861-3.284-3.325-4.604-6.683-9.124-10.325-13.489-2.985-3.577-6.23-6.904-9.883-9.805-3.738-2.969-7.775-5.387-11.989-7.616-3.419-1.808-6.813-3.408-10.461-4.671-2.925-1.013-4.182,3.623-1.276,4.629,1.012.35,2.036.678,3.039,1.052.607.227-.534-.299.343.158.453.236.925.442,1.385.666,1.093.533,2.18,1.079,3.26,1.637,3.913,2.022,7.818,4.153,11.349,6.801,3.652,2.74,6.918,5.958,9.888,9.418,1.411,1.644,2.764,3.336,4.118,5.026.319.399.639.798.958,1.196.162.202.325.404.488.606.087.107.608.755.251.288.174.227.336.465.503.697l4.208,5.828.861-3.284c-6.142,3.924-12.173,7.891-17.963,12.328-5.247,4.021-10.467,8.083-15.423,12.462-2.851,2.519-5.613,5.135-8.324,7.804-2.205,2.171,1.19,5.564,3.394,3.394h0Z"/><path class="d" d="M82.622,201.177c-4.595-4.525-9.365-8.851-14.369-12.918-5.729-4.656-11.564-9.281-17.674-13.428-3.176-2.155-6.433-4.182-9.667-6.248l.861,3.284,3.722-5.155c.256-.354.51-.709.767-1.063.069-.094.134-.191.205-.284.048-.063.119-.136-.103.146.201-.257.411-.508.615-.762,1.375-1.708,2.732-3.43,4.132-5.117,2.818-3.396,5.851-6.588,9.262-9.397,3.377-2.78,7.114-5.001,10.958-7.068,2.255-1.213,4.581-2.279,6.848-3.465.73-.382-.232.062.432-.203.338-.135.679-.263,1.018-.394l1.586-.614c1.208-.467,2.044-1.613,1.676-2.952-.317-1.154-1.737-2.147-2.952-1.676-7.259,2.808-14.529,6.478-20.729,11.217-6.686,5.11-12.368,11.601-17.285,18.411l-4.298,5.953c-.78,1.081-.147,2.639.861,3.284,6.012,3.841,11.933,7.711,17.602,12.051,5.092,3.898,10.144,7.854,14.947,12.107,2.804,2.482,5.521,5.058,8.189,7.685,2.203,2.169,5.6-1.222,3.394-3.394h0Z"/><path class="f" d="M71.293,15.495c3.932-3.622,10.201-7.739,14.436-9.337,14.358-5.417,31.35-5.146,43.007,1.982,11.798,7.214,13.269,10.667,23.519,19.951,2.876,2.605,5.121,5.797,7.333,8.985,3.639,5.245,3.852,13.421,3.068,19.756-.827,6.678-2.766,13.229-2.735,19.975-.875-.474-2.01-.822-3.481-.874-1.698-.06-3.682.472-5.154,1.887l-4.066-3.235c.197-5.962-1.167-11.947-4.004-17.57-1.586-3.143-3.673-6.22-6.863-8.695-3.19-2.475-7.598-4.307-12.351-4.504-2.319-.096-4.633.192-6.91.516-5.549.788-11.217,1.796-16.802,1.143-3.718-.435-7.245-1.596-11.008-1.76-6.162-.269-12.138,2.305-15.523,5.919-3.386,3.614-4.437,8.11-4.043,12.423.107,1.166.299,2.391-.384,3.457-.529.826-1.52,1.452-2.422,2.101-3.732,2.682-6.312,6.143-7.276,9.823-1.414-1.129-3.183-1.559-4.718-1.505-1.158.041-2.108.265-2.886.59-1.721-6.793-2.454-11.876-2.19-18.11.782-18.499,4.081-27.677,13.998-34.888l7.458-8.029Z"/><path class="d" d="M54.154,75.132c-1.084-4.426-1.887-8.872-1.961-13.439-.07-4.287.262-8.634.794-12.887.758-6.059,2.235-11.951,5.717-16.914,1.555-2.216,4.047-4.612,6.343-6.294,1.044-.765,1.563-2.083.861-3.284-.603-1.03-2.232-1.631-3.284-.861-5.295,3.879-9.273,8.753-11.63,14.909-2.802,7.318-3.449,15.617-3.598,23.385-.109,5.641.791,11.197,2.129,16.662.734,2.999,5.364,1.729,4.629-1.276h0Z"/><path class="d" d="M148.543,101.105c-.683,3.322-1.942,6.482-3.099,9.401-.11.277.213-.481.083-.196-.041.09-.078.182-.12.272-.079.17-.156.342-.237.511-.227.479-.467.951-.713,1.42-.556,1.058-1.152,2.095-1.773,3.116-3.284,5.4-7.287,10.504-12.189,14.53-2.705,2.222-5.751,3.987-9.141,4.77-3.008.696-1.735,5.325,1.276,4.629,6.934-1.603,12.707-6.66,17.235-11.923,3.774-4.385,7.306-9.33,9.685-14.632.154-.344.302-.691.445-1.039.063-.153.348-.82.075-.19.382-.879.756-1.76,1.093-2.657.822-2.193,1.535-4.442,2.007-6.738.261-1.268-.368-2.593-1.676-2.952-1.188-.326-2.69.401-2.952,1.676h0Z"/><path class="d" d="M58.051,102.219c1.519,6.703,4.238,13.204,8.042,18.933,4.129,6.219,9.559,12.041,16.134,15.701,3.367,1.874,7.043,3.146,10.854,3.71,1.281.19,2.579-.319,2.952-1.676.311-1.131-.386-2.761-1.676-2.952-13.469-1.993-23.523-13.626-28.664-25.584-1.301-3.027-2.286-6.196-3.014-9.407-.682-3.011-5.311-1.737-4.629,1.276h0Z"/><path class="d" d="M152.982,79.517c2.107-1.899,5.539-1.387,7.077.504-.34-.419.114.195.169.286.131.215.273.451.372.67.32.703.502,1.495.655,2.247.335,1.647.346,3.368.23,5.039-.204,2.924-1.18,5.831-2.532,8.423-1.415,2.713-4.163,6.67-7.738,6.189-1.283-.173-2.576.308-2.952,1.676-.307,1.118.383,2.778,1.676,2.952,8.385,1.128,13.262-7.047,15.433-13.978,1.087-3.471,1.212-7.306.637-10.88-.477-2.965-1.739-5.774-4.256-7.526-3.679-2.561-8.929-1.915-12.166,1.002-2.3,2.072,1.104,5.458,3.394,3.394h0Z"/><path class="d" d="M61.766,76.123c-3.06-2.757-7.47-3.333-11.187-1.567-2.682,1.274-4.253,3.926-4.956,6.717-1.671,6.627.03,14.249,3.84,19.866,2.792,4.116,6.787,7.06,11.952,6.365,1.286-.173,1.986-1.823,1.676-2.952-.381-1.388-1.662-1.85-2.952-1.676-3.515.473-6.238-3.364-7.657-6.033-1.398-2.629-2.405-5.6-2.613-8.578-.186-2.671.005-6.391,1.491-8.325-.166.217.327-.351.384-.41.307-.316.242-.246.502-.414.55-.354,1.101-.56,1.748-.684,1.548-.297,3.188.014,4.378,1.087,2.29,2.063,5.695-1.321,3.394-3.394h0Z"/><path class="d" d="M97.171,114.821c2.802,1.48,5.82,2.103,8.988,2.082,3.239-.021,6.493-.666,9.085-2.686.995-.775.875-2.591,0-3.394-1.055-.969-2.332-.827-3.394,0,.732-.57.18-.145-.009-.025-.18.115-.365.222-.554.321-.098.051-.198.097-.296.148-.315.162-.118-.086.111-.038-.154-.033-.604.226-.763.277-.696.224-1.413.379-2.136.488.36-.054-.023,0-.183.015-.21.021-.419.038-.63.052-.506.033-1.012.045-1.519.042-.454-.003-.907-.018-1.36-.049-.208-.014-.415-.031-.623-.052-.04-.004-.79-.12-.281-.03-.674-.119-1.339-.247-1.996-.443-.28-.084-.552-.184-.828-.278-.608-.208.371.19-.177-.069-.342-.161-.68-.33-1.014-.506-1.11-.586-2.66-.318-3.284.861-.586,1.109-.324,2.658.861,3.284h0Z"/><path class="d" d="M104.905,93.69c.39,1.488.765,2.999.989,4.523l-.086-.638c.027.209.038.414.017.624l.086-.638c-.015.097-.036.188-.069.281l.242-.573c-.029.066-.059.121-.099.181l.375-.486c-.047.056-.091.1-.148.146l.486-.375c-.114.073-.235.133-.358.19l.573-.242c-.197.082-.393.143-.604.176l.638-.086c-.19.023-.376.021-.567-.001l.638.086c-.214-.03-.423-.082-.637-.111-.319-.1-.638-.114-.957-.043-.319.014-.617.109-.892.285-.498.291-.973.862-1.103,1.434-.14.614-.11,1.304.242,1.849.312.484.835,1.022,1.434,1.103.494.067.973.192,1.475.214.774.034,1.492-.204,2.182-.52.855-.392,1.523-1.165,1.75-2.086.193-.78.11-1.456-.022-2.238-.246-1.457-.583-2.901-.958-4.33-.318-1.214-1.729-2.072-2.952-1.676-1.25.404-2.018,1.651-1.676,2.952h0Z"/><path class="d" d="M81.071,80.861c-.755,2.454-.263,8.1,4.387,8.581,6.145-.037,6.472-6.863,4.404-10.072-1.694-2.628-6.674-3.721-8.79,1.492Z"/><path class="d" d="M130.283,80.861c.755,2.454.263,8.1-4.386,8.581-6.145-.037-6.473-6.863-4.404-10.072,1.694-2.628,6.674-3.72,8.79,1.492Z"/><path class="d" d="M72.99,17.192c3.341-3.048,7.17-5.673,11.2-7.725s8.59-3.17,13.007-3.922c8.79-1.496,18.513-.999,26.713,2.748,6.96,3.181,12.972,8.211,18.368,13.551,3.087,3.055,6.36,5.939,9.408,9.026,1.798,1.821,3.333,3.859,4.804,5.946,1.228,1.741,2.322,3.438,2.966,5.483,3.484,11.067-1.579,22.356-1.934,33.469-.099,3.09,4.701,3.086,4.8,0,.187-5.869,1.711-11.558,2.523-17.35.682-4.861.848-9.779-.073-14.624-1.925-10.127-10.517-16.848-17.448-23.706-5.765-5.704-11.781-11.077-18.983-14.943C119.66.486,109.335-.735,99.641.391c-5.612.652-11.282,1.918-16.451,4.248-4.942,2.227-9.599,5.516-13.594,9.159-2.287,2.086,1.115,5.473,3.394,3.394h0Z"/><path class="d" d="M62.311,76.848c1.533-3.575,4.14-5.838,7.161-8.144,1.745-1.332,2.783-3.021,2.748-5.272-.027-1.727-.306-3.403-.058-5.134,1.044-7.298,8.009-11.742,14.982-12.163,4.207-.254,8.234,1.088,12.363,1.64,4.495.601,8.973.166,13.442-.443,4.117-.561,8.378-1.534,12.549-1.003,3.475.442,6.962,1.886,9.679,4.106,6.851,5.598,9.871,15.579,9.644,24.15-.082,3.09,4.718,3.088,4.8,0,.233-8.767-2.602-18.087-8.315-24.833-2.688-3.174-6.205-5.494-10.095-6.924-4.201-1.544-8.587-1.625-12.978-1.053-4.688.611-9.359,1.504-14.103,1.51s-9.218-1.512-13.912-1.909c-8.003-.677-17.122,3.063-20.936,10.438-1.104,2.135-1.722,4.414-1.959,6.8-.101,1.018-.109,2.043-.038,3.063.056.807.408,1.972-.075,2.677-.537.784-1.719,1.331-2.459,1.904-.979.757-1.913,1.565-2.761,2.467-1.576,1.676-2.915,3.585-3.823,5.702-.51,1.19-.354,2.573.861,3.284,1.011.591,2.77.337,3.284-.861h0Z"/></g></svg>